<svg width="95" height="92" fill="none" xmlns="http://www.w3.org/2000/svg"><path d="M6 92h73c3.314 0 6-2.654 6-5.968V19c0-.5-19.5-19-20-19H5.997A5.998 5.998 0 000 6v80a6 6 0 006 6z" fill="#E8E8E8"/><path d="M85 19H68c-2.19-.049-2.997-.585-3-3V0h.5A2597.592 2597.592 0 0085 18.5v.5z" fill="#C4C4C4"/><path d="M10 41c0-6.075 4.925-11 11-11h74v21c0 6.075-4.925 11-11 11H10V41z" fill="#5FA8DD"/><path d="M32.62 52V39.4h4.698c1.968 0 3.576.6 4.824 1.8 1.248 1.188 1.872 2.688 1.872 4.5 0 1.8-.63 3.3-1.89 4.5-1.248 1.2-2.85 1.8-4.806 1.8H32.62zm2.214-2.016h2.484c1.308 0 2.364-.396 3.168-1.188.804-.804 1.206-1.836 1.206-3.096 0-1.248-.402-2.274-1.206-3.078-.804-.804-1.86-1.206-3.168-1.206h-2.484v8.568zm22.612.324c-1.248 1.272-2.826 1.908-4.734 1.908s-3.48-.63-4.716-1.89c-1.236-1.26-1.854-2.802-1.854-4.626 0-1.8.624-3.336 1.872-4.608 1.248-1.272 2.826-1.908 4.734-1.908s3.48.63 4.716 1.89c1.236 1.26 1.854 2.802 1.854 4.626 0 1.8-.624 3.336-1.872 4.608zm-7.776-1.422c.816.864 1.842 1.296 3.078 1.296 1.236 0 2.25-.432 3.042-1.296.804-.864 1.206-1.926 1.206-3.186 0-1.248-.408-2.304-1.224-3.168-.804-.876-1.824-1.314-3.06-1.314s-2.256.432-3.06 1.296c-.792.864-1.188 1.926-1.188 3.186 0 1.248.402 2.31 1.206 3.186zm18.173 3.33c-1.824 0-3.348-.624-4.572-1.872-1.224-1.26-1.836-2.808-1.836-4.644 0-1.824.612-3.366 1.836-4.626 1.224-1.26 2.778-1.89 4.662-1.89 1.092 0 2.016.168 2.772.504a7.539 7.539 0 012.16 1.458l-1.422 1.638c-1.128-1.044-2.304-1.566-3.528-1.566-1.2 0-2.196.432-2.988 1.296-.78.864-1.17 1.926-1.17 3.186 0 1.248.396 2.31 1.188 3.186.792.864 1.782 1.296 2.97 1.296.72 0 1.356-.132 1.908-.396.552-.276 1.122-.69 1.71-1.242l1.422 1.44c-.708.744-1.458 1.302-2.25 1.674-.792.372-1.746.558-2.862.558z" fill="#fff"/></svg>