<svg width="95" height="92" fill="none" xmlns="http://www.w3.org/2000/svg"><path d="M6 92h73c3.314 0 6-2.654 6-5.968V19c0-.5-19.5-19-20-19H5.997A5.998 5.998 0 000 6v80a6 6 0 006 6z" fill="#E8E8E8"/><path d="M85 19H68c-2.19-.049-2.997-.585-3-3V0h.5A2597.592 2597.592 0 0085 18.5v.5z" fill="#C4C4C4"/><path d="M10 41c0-6.075 4.925-11 11-11h74v21c0 6.075-4.925 11-11 11H10V41z" fill="#F23F45"/><path d="M35.62 52V39.4h4.968c1.464 0 2.628.384 3.492 1.152.864.768 1.296 1.8 1.296 3.096 0 1.356-.48 2.412-1.44 3.168-.948.756-2.148 1.134-3.6 1.134h-2.502V52H35.62zm2.214-6.048h2.574c.828 0 1.488-.21 1.98-.63.492-.42.738-.972.738-1.656 0-.72-.246-1.272-.738-1.656-.48-.396-1.14-.594-1.98-.594h-2.574v4.536zM47.644 52V39.4h4.697c1.968 0 3.576.6 4.824 1.8 1.248 1.188 1.872 2.688 1.872 4.5 0 1.8-.63 3.3-1.89 4.5-1.248 1.2-2.85 1.8-4.806 1.8h-4.698zm2.213-2.016h2.484c1.308 0 2.364-.396 3.168-1.188.804-.804 1.206-1.836 1.206-3.096 0-1.248-.402-2.274-1.206-3.078-.804-.804-1.86-1.206-3.168-1.206h-2.484v8.568zM61.724 52V39.4h9.378v2.016h-7.165v3.438h6.355v2.016h-6.355V52h-2.213z" fill="#fff"/></svg>