<svg width="95" height="92" fill="none" xmlns="http://www.w3.org/2000/svg"><path d="M6 92h73c3.314 0 6-2.654 6-5.968V19c0-.5-19.5-19-20-19H5.997A5.998 5.998 0 000 6v80a6 6 0 006 6z" fill="#E8E8E8"/><path d="M85 19H68c-2.19-.049-2.997-.585-3-3V0h.5A2597.592 2597.592 0 0085 18.5v.5z" fill="#C4C4C4"/><path d="M10 41c0-6.075 4.925-11 11-11h74v21c0 6.075-4.925 11-11 11H10V41z" fill="#61DD5F"/><path d="M35.666 52l4.59-6.408-4.41-6.192h2.61l3.132 4.518 3.15-4.518h2.538l-4.392 6.156L47.456 52h-2.61l-3.312-4.77-3.33 4.77h-2.538zm14.067 0V39.4h2.214v10.584h6.624V52h-8.838zm15.555.18c-2.004 0-3.756-.672-5.256-2.016l1.332-1.584c1.26 1.092 2.586 1.638 3.978 1.638.684 0 1.224-.144 1.62-.432.408-.3.612-.696.612-1.188 0-.468-.192-.84-.576-1.116-.384-.288-1.14-.564-2.268-.828-1.464-.348-2.532-.786-3.204-1.314-.66-.54-.99-1.362-.99-2.466 0-1.08.402-1.956 1.206-2.628.804-.684 1.836-1.026 3.096-1.026 1.728 0 3.252.528 4.572 1.584l-1.188 1.674c-1.164-.864-2.304-1.296-3.42-1.296-.636 0-1.14.144-1.512.432-.36.288-.54.654-.54 1.098 0 .492.198.876.594 1.152.408.264 1.206.54 2.394.828 1.392.336 2.412.786 3.06 1.35.66.564.99 1.356.99 2.376 0 1.164-.414 2.082-1.242 2.754-.828.672-1.914 1.008-3.258 1.008z" fill="#fff"/></svg>