<svg width="115" height="143" fill="none" xmlns="http://www.w3.org/2000/svg"><path d="M3 4a1 1 0 011-1h61.59a1 1 0 011 1v31.256a1 1 0 01-1 1H4a1 1 0 01-1-1V4zm44.61 51.747a1 1 0 011-1h61.59a1 1 0 011 1v31.256a1 1 0 01-1 1H48.61a1 1 0 01-1-1V55.747zM3 107.494a1 1 0 011-1h61.59a1 1 0 011 1v31.256a1 1 0 01-1 1H4a1 1 0 01-1-1v-31.256z" stroke="#22272F" stroke-width="6"/><rect x="12.49" y="12.491" width="23.197" height="3.569" rx="1.5" fill="#22272F"/><rect x="12.49" y="23.197" width="23.197" height="3.569" rx="1.5" fill="#22272F"/><rect x="57.1" y="64.237" width="23.197" height="3.569" rx="1.5" fill="#22272F"/><rect x="57.1" y="74.944" width="23.197" height="3.569" rx="1.5" fill="#22272F"/><rect x="12.49" y="115.984" width="23.197" height="3.569" rx="1.5" fill="#22272F"/><rect x="12.49" y="126.69" width="23.197" height="3.569" rx="1.5" fill="#22272F"/><rect x="74.943" y="16.06" width="23.197" height="7.138" rx="2" fill="#22272F"/><rect x="98.141" y="16.06" width="30.334" height="7.138" rx="2" transform="rotate(90 98.14 16.06)" fill="#22272F"/><rect x="8.922" y="99.925" width="32.119" height="7.138" rx="2" transform="rotate(-90 8.922 99.925)" fill="#22272F"/><rect x="8.922" y="67.806" width="30.334" height="7.138" rx="2" fill="#22272F"/><circle cx="54.424" cy="24.089" r="13.383" fill="#8F6DFF"/><rect x="63.551" y="19.703" width="14.928" height="3.774" rx="1.887" transform="rotate(135 63.55 19.703)" fill="#fff"/><rect x="48.908" y="20.848" width="9.534" height="3.774" rx="1.887" transform="rotate(45 48.908 20.848)" fill="#fff"/><circle cx="99.033" cy="75.836" r="13.383" fill="#8F6DFF"/><rect x="108.16" y="71.45" width="14.928" height="3.774" rx="1.887" transform="rotate(135 108.16 71.45)" fill="#fff"/><rect x="93.518" y="72.595" width="9.534" height="3.774" rx="1.887" transform="rotate(45 93.518 72.595)" fill="#fff"/><circle cx="54.424" cy="127.583" r="13.383" fill="#8F6DFF"/><rect x="63.551" y="123.197" width="14.928" height="3.774" rx="1.887" transform="rotate(135 63.55 123.197)" fill="#fff"/><rect x="48.908" y="124.342" width="9.534" height="3.774" rx="1.887" transform="rotate(45 48.908 124.342)" fill="#fff"/></svg>