<svg width="163" height="159" fill="none" xmlns="http://www.w3.org/2000/svg"><path d="M2.5 4A1.5 1.5 0 014 2.5h100.585a1.5 1.5 0 011.5 1.5v129.671a1.5 1.5 0 01-1.5 1.5H4a1.5 1.5 0 01-1.5-1.5V4z" stroke="#22272F" stroke-width="5"/><path d="M19.39 28.697l8 8.144 13.33-13.573" stroke="#8F6DFF" stroke-width="5"/><rect x="48.476" y="27.146" width="40.719" height="5.817" rx="1.5" fill="#22272F"/><path d="M19.39 53.905l8 8.144 13.33-13.573" stroke="#8F6DFF" stroke-width="5"/><rect x="48.476" y="52.353" width="40.719" height="5.817" rx="1.5" fill="#22272F"/><path d="M19.39 79.112l8 8.144 13.33-13.573" stroke="#8F6DFF" stroke-width="5"/><rect x="48.476" y="77.561" width="40.719" height="5.817" rx="1.5" fill="#22272F"/><path d="M19.39 104.319l8 8.144L40.72 98.89" stroke="#8F6DFF" stroke-width="5"/><rect x="48.476" y="102.768" width="40.719" height="5.817" rx="1.5" fill="#22272F"/><circle cx="113.433" cy="109.555" r="49.445" fill="#8F6DFF"/><rect x="147.157" y="93.348" width="55.153" height="13.944" rx="3.343" transform="rotate(135 147.157 93.348)" fill="#fff"/><rect x="93.055" y="97.579" width="35.225" height="13.944" rx="3.343" transform="rotate(45 93.055 97.58)" fill="#fff"/><circle cx="113.433" cy="109.555" r="49.445" fill="#8F6DFF"/><rect x="147.157" y="93.348" width="55.153" height="13.944" rx="3.343" transform="rotate(135 147.157 93.348)" fill="#fff"/><rect x="93.055" y="97.579" width="35.225" height="13.944" rx="3.343" transform="rotate(45 93.055 97.58)" fill="#fff"/></svg>