<svg width="89" height="80" fill="none" xmlns="http://www.w3.org/2000/svg"><rect x="45" y="39" width="4" height="2" rx="1" fill="#8F6DFF"/><rect x="67" y="57" width="4" height="2" rx="1" transform="rotate(90 67 57)" fill="#8F6DFF"/><rect x="55.242" y="53.414" width="4" height="2" rx="1" transform="rotate(135 55.242 53.414)" fill="#8F6DFF"/><rect x="53.828" y="28.242" width="4" height="2" rx="1" transform="rotate(-135 53.828 28.242)" fill="#8F6DFF"/><rect x="87.242" y="41" width="4" height="2" rx="1" transform="rotate(-180 87.242 41)" fill="#8F6DFF"/><rect x="77" y="26.828" width="4" height="2" rx="1" transform="rotate(-45 77 26.828)" fill="#8F6DFF"/><rect x="78.414" y="52" width="4" height="2" rx="1" transform="rotate(45 78.414 52)" fill="#8F6DFF"/><rect x="65" y="23" width="4" height="2" rx="1" transform="rotate(-90 65 23)" fill="#8F6DFF"/><circle cx="66" cy="40" r="21.5" stroke="#000" stroke-width="3"/><path d="M13 4a2 2 0 012-2h31a2 2 0 012 2v14a2 2 0 01-2 2H15a2 2 0 01-2-2V4zM2 33a2 2 0 012-2h31a2 2 0 012 2v14a2 2 0 01-2 2H4a2 2 0 01-2-2V33zm11 29a2 2 0 012-2h31a2 2 0 012 2v14a2 2 0 01-2 2H15a2 2 0 01-2-2V62z" stroke="#22272F" stroke-width="4"/><rect x="18" y="7" width="13" height="2" rx="1" fill="#22272F"/><rect x="18" y="13" width="13" height="2" rx="1" fill="#22272F"/><rect x="7" y="36" width="13" height="2" rx="1" fill="#22272F"/><rect x="7" y="42" width="13" height="2" rx="1" fill="#22272F"/><rect x="18" y="65" width="13" height="2" rx="1" fill="#22272F"/><rect x="18" y="71" width="13" height="2" rx="1" fill="#22272F"/><circle cx="41.5" cy="13.5" r="7.5" fill="#8F6DFF"/><rect x="46.615" y="11.042" width="8.366" height="2.115" rx="1.058" transform="rotate(135 46.615 11.042)" fill="#fff"/><rect x="65" y="41" width="10" height="2" rx="1" transform="rotate(-90 65 41)" fill="#000"/><rect x="65" y="39" width="16" height="2" rx="1" fill="#000"/><rect x="38.409" y="11.684" width="5.343" height="2.115" rx="1.058" transform="rotate(45 38.41 11.684)" fill="#fff"/><circle cx="30.5" cy="42.5" r="7.5" fill="#8F6DFF"/><rect x="35.615" y="40.042" width="8.366" height="2.115" rx="1.058" transform="rotate(135 35.615 40.042)" fill="#fff"/><rect x="27.41" y="40.684" width="5.343" height="2.115" rx="1.058" transform="rotate(45 27.41 40.684)" fill="#fff"/><circle cx="41.5" cy="71.5" r="7.5" fill="#8F6DFF"/><rect x="46.615" y="69.042" width="8.366" height="2.115" rx="1.058" transform="rotate(135 46.615 69.042)" fill="#fff"/><rect x="38.409" y="69.684" width="5.343" height="2.115" rx="1.058" transform="rotate(45 38.41 69.684)" fill="#fff"/></svg>