<svg width="69" height="84" fill="none" xmlns="http://www.w3.org/2000/svg"><path d="M2 17a2 2 0 012-2h48a2 2 0 012 2v63a2 2 0 01-2 2H4a2 2 0 01-2-2V17z" stroke="#22272F" stroke-width="4"/><rect x="10" y="27" width="36" height="3" rx="1.5" fill="#22272F"/><rect x="10" y="40" width="36" height="3" rx="1.5" fill="#22272F"/><rect x="10" y="53" width="36" height="3" rx="1.5" fill="#22272F"/><rect x="10" y="66" width="36" height="3" rx="1.5" fill="#22272F"/><circle cx="51" cy="18" r="18" fill="#8F6DFF"/><rect x="63.277" y="12.1" width="20.078" height="5.076" rx="2.538" transform="rotate(135 63.277 12.1)" fill="#fff"/><rect x="43.581" y="13.641" width="12.823" height="5.076" rx="2.538" transform="rotate(45 43.581 13.64)" fill="#fff"/></svg>