<svg width="1066" height="591" fill="none" xmlns="http://www.w3.org/2000/svg"><path d="M932.558 87.391l108.392-65.128-87.264 74.3V125l16.535-20.18L1017.07 125 1063 3 905 74.549l27.558 12.842z" stroke="#D9DFE4" stroke-width="3"/><path d="M940.177 108.467c-147.857 111.434-244.48 143.839-434.001 164M499 273c-764.5 79-439 253.5-239 247.5" stroke="#D9DFE4" stroke-width="2"/><circle cx="589.5" cy="261.5" r="4.5" fill="#FDFDFD"/><circle cx="414.5" cy="282.5" r="4.5" fill="#fff"/><circle cx="353.5" cy="290.5" r="4.5" fill="#fff"/><circle cx="215.5" cy="315.5" r="4.5" fill="#fff"/><circle cx="291.5" cy="301.5" r="4.5" fill="#fff"/><circle cx="148.5" cy="332.5" r="4.5" fill="#fff"/><circle cx="91.5" cy="353.5" r="4.5" fill="#fff"/><circle cx="37.5" cy="385.5" r="4.5" fill="#fff"/><circle cx="37.5" cy="457.5" r="4.5" fill="#fff"/><circle cx="75.5" cy="483.5" r="4.5" fill="#fff"/><circle cx="116.5" cy="500.5" r="4.5" fill="#fff"/><circle cx="160.5" cy="510.5" r="4.5" fill="#fff"/><circle cx="205.5" cy="518.5" r="4.5" fill="#fff"/><circle cx="673.5" cy="245.5" r="4.5" fill="#FDFDFD"/><circle cx="756.5" cy="217.5" r="4.5" fill="#FDFDFD"/><circle cx="829.5" cy="182.5" r="4.5" fill="#FDFDFD"/><circle cx="891.5" cy="144.5" r="4.5" fill="#FDFDFD"/></svg>