<svg width="663" height="224" fill="none" xmlns="http://www.w3.org/2000/svg"><g filter="url(#filter0_d)"><rect x="15" y="14" width="633" height="194" rx="13" fill="#fff"/></g><g filter="url(#filter1_d)"><rect x="46" y="44" width="181" height="134" rx="7" fill="#fff"/></g><g filter="url(#filter2_d)"><rect x="240" y="44" width="181" height="134" rx="7" fill="#8F6DFF"/></g><g filter="url(#filter3_d)"><rect x="434" y="44" width="181" height="134" rx="7" fill="#fff"/></g><path d="M75.005 164.156c-1.309 0-2.397-.451-3.263-1.352-.867-.91-1.3-2.028-1.3-3.354 0-1.309.437-2.418 1.313-3.328.875-.919 1.971-1.378 3.289-1.378.762 0 1.412.126 1.95.377.537.243 1.061.607 1.573 1.092l-.676.728c-.876-.832-1.829-1.248-2.86-1.248-1.006 0-1.846.36-2.522 1.079-.668.719-1.001 1.612-1.001 2.678 0 1.057.338 1.95 1.014 2.678.676.719 1.512 1.079 2.509 1.079.589 0 1.109-.108 1.56-.325.45-.217.91-.546 1.378-.988l.676.715c-.512.511-1.049.897-1.612 1.157-.564.26-1.24.39-2.028.39zm6.893-.156v-5.837h-2.405v-.884h5.824v.884h-2.405V164h-1.014zm6.877.143c-.684 0-1.274-.186-1.768-.559-.494-.373-.74-.893-.74-1.56 0-.702.26-1.244.78-1.625s1.217-.572 2.092-.572a7.52 7.52 0 012.054.286v-.208c0-.589-.173-1.04-.52-1.352-.346-.312-.836-.468-1.469-.468-.658 0-1.339.16-2.04.481l-.3-.819c.832-.381 1.647-.572 2.444-.572.954 0 1.677.247 2.171.741.468.468.702 1.127.702 1.976V164h-.988v-1.001c-.598.763-1.404 1.144-2.418 1.144zm.195-.806c.624 0 1.153-.169 1.586-.507.434-.338.65-.771.65-1.3v-.624a7.02 7.02 0 00-1.963-.286c-.615 0-1.096.126-1.443.377-.346.243-.52.576-.52 1.001 0 .407.16.732.481.975.33.243.733.364 1.21.364zm5.332.663v-6.721h1v2.899h3.875v-2.899h1.001V164h-1.001v-2.938h-3.874V164h-1.001zm7.124 1.677v-2.561h.728c.598-1.101.897-2.656.897-4.667v-1.17h4.784v5.837h1.014l-.156 2.561h-.832V164h-5.434l-.182 1.677h-.819zm1.794-2.561h3.614v-4.953h-2.821v.936c0 1.69-.264 3.029-.793 4.017zm9.004 1.027c-.685 0-1.274-.186-1.768-.559-.494-.373-.741-.893-.741-1.56 0-.702.26-1.244.78-1.625s1.217-.572 2.093-.572c.693 0 1.378.095 2.054.286v-.208c0-.589-.174-1.04-.52-1.352-.347-.312-.837-.468-1.469-.468-.659 0-1.339.16-2.041.481l-.299-.819c.832-.381 1.646-.572 2.444-.572.953 0 1.677.247 2.171.741.468.468.702 1.127.702 1.976V164h-.988v-1.001c-.598.763-1.404 1.144-2.418 1.144zm.195-.806c.624 0 1.152-.169 1.586-.507.433-.338.65-.771.65-1.3v-.624a7.022 7.022 0 00-1.963-.286c-.616 0-1.097.126-1.443.377-.347.243-.52.576-.52 1.001 0 .407.16.732.481.975.329.243.732.364 1.209.364zm5.331 2.743v-8.801h1.001v1.352c.676-.997 1.534-1.495 2.574-1.495.858 0 1.608.321 2.249.962.641.633.962 1.482.962 2.548 0 1.049-.321 1.894-.962 2.535-.641.641-1.391.962-2.249.962-1.057 0-1.915-.477-2.574-1.43v3.367h-1.001zm3.393-2.834c.676 0 1.239-.234 1.69-.702.451-.477.676-1.114.676-1.911 0-.771-.23-1.395-.689-1.872a2.222 2.222 0 00-1.677-.728c-.65 0-1.218.247-1.703.741-.485.494-.728 1.118-.728 1.872s.243 1.378.728 1.872c.485.485 1.053.728 1.703.728zm6.865.754v-5.837h-2.405v-.884h5.824v.884h-2.405V164h-1.014zm4.875 0v-6.721h1.001v2.899h3.874v-2.899h1.001V164h-1.001v-2.938h-3.874V164h-1.001zm10.114.143c-.685 0-1.274-.186-1.768-.559-.494-.373-.741-.893-.741-1.56 0-.702.26-1.244.78-1.625s1.218-.572 2.093-.572c.693 0 1.378.095 2.054.286v-.208c0-.589-.173-1.04-.52-1.352-.347-.312-.836-.468-1.469-.468-.659 0-1.339.16-2.041.481l-.299-.819c.832-.381 1.647-.572 2.444-.572.953 0 1.677.247 2.171.741.468.468.702 1.127.702 1.976V164h-.988v-1.001c-.598.763-1.404 1.144-2.418 1.144zm.195-.806c.624 0 1.153-.169 1.586-.507.433-.338.65-.771.65-1.3v-.624a7.022 7.022 0 00-1.963-.286c-.615 0-1.096.126-1.443.377-.347.243-.52.576-.52 1.001 0 .407.16.732.481.975.329.243.732.364 1.209.364zm4.733.663l2.054-2.6c-.528-.121-.962-.36-1.3-.715-.329-.355-.494-.793-.494-1.313 0-.624.226-1.127.676-1.508.451-.39 1.071-.585 1.859-.585h3.159V164h-1.001v-2.444h-1.859A387.761 387.761 0 01149.16 164h-1.235zm2.873-3.289h2.08v-2.548h-2.106c-.494 0-.884.113-1.17.338-.277.217-.416.52-.416.91 0 .399.148.715.442.949.304.234.694.351 1.17.351zm11.347 3.445c-1.032 0-1.959-.334-2.782-1.001l.507-.741c.684.581 1.434.871 2.249.871.459 0 .849-.104 1.17-.312.329-.217.494-.511.494-.884a.909.909 0 00-.442-.806c-.295-.199-.711-.299-1.248-.299h-.897v-.819h.91c.442 0 .801-.104 1.079-.312.277-.217.416-.498.416-.845 0-.303-.139-.546-.416-.728-.269-.182-.616-.273-1.04-.273-.798 0-1.478.225-2.041.676l-.494-.702c.728-.563 1.594-.845 2.6-.845.745 0 1.334.169 1.768.507.442.329.663.758.663 1.287 0 .737-.36 1.252-1.079 1.547.832.295 1.248.845 1.248 1.651 0 .563-.243 1.044-.728 1.443-.486.39-1.131.585-1.937.585zm6.522-.013c-.685 0-1.274-.186-1.768-.559-.494-.373-.741-.893-.741-1.56 0-.702.26-1.244.78-1.625s1.218-.572 2.093-.572c.693 0 1.378.095 2.054.286v-.208c0-.589-.173-1.04-.52-1.352-.347-.312-.836-.468-1.469-.468-.659 0-1.339.16-2.041.481l-.299-.819c.832-.381 1.647-.572 2.444-.572.953 0 1.677.247 2.171.741.468.468.702 1.127.702 1.976V164h-.988v-1.001c-.598.763-1.404 1.144-2.418 1.144zm.195-.806c.624 0 1.153-.169 1.586-.507.433-.338.65-.771.65-1.3v-.624a7.022 7.022 0 00-1.963-.286c-.615 0-1.096.126-1.443.377-.347.243-.52.576-.52 1.001 0 .407.16.732.481.975.329.243.732.364 1.209.364zm4.343 2.34v-2.561h.728c.598-1.101.897-2.656.897-4.667v-1.17h4.784v5.837h1.014l-.156 2.561h-.832V164h-5.434l-.182 1.677h-.819zm1.794-2.561h3.614v-4.953h-2.821v.936c0 1.69-.264 3.029-.793 4.017zm9.004 1.027c-.685 0-1.274-.186-1.768-.559-.494-.373-.741-.893-.741-1.56 0-.702.26-1.244.78-1.625s1.217-.572 2.093-.572c.693 0 1.378.095 2.054.286v-.208c0-.589-.174-1.04-.52-1.352-.347-.312-.837-.468-1.469-.468-.659 0-1.339.16-2.041.481l-.299-.819c.832-.381 1.646-.572 2.444-.572.953 0 1.677.247 2.171.741.468.468.702 1.127.702 1.976V164h-.988v-1.001c-.598.763-1.404 1.144-2.418 1.144zm.195-.806c.624 0 1.152-.169 1.586-.507.433-.338.65-.771.65-1.3v-.624a7.022 7.022 0 00-1.963-.286c-.616 0-1.097.126-1.443.377-.347.243-.52.576-.52 1.001 0 .407.16.732.481.975.329.243.732.364 1.209.364zm9.595.663v-2.769c-.269.156-.62.299-1.053.429a4.474 4.474 0 01-1.196.182c-.676 0-1.218-.173-1.625-.52-.399-.347-.598-.845-.598-1.495v-2.548h1.001v2.405c0 .399.117.715.351.949.243.225.576.338 1.001.338.797 0 1.504-.212 2.119-.637v-3.055h1.001V164h-1.001zm5.241.143c-.685 0-1.274-.186-1.768-.559-.494-.373-.741-.893-.741-1.56 0-.702.26-1.244.78-1.625s1.218-.572 2.093-.572c.693 0 1.378.095 2.054.286v-.208c0-.589-.173-1.04-.52-1.352-.347-.312-.836-.468-1.469-.468-.659 0-1.339.16-2.041.481l-.299-.819c.832-.381 1.647-.572 2.444-.572.953 0 1.677.247 2.171.741.468.468.702 1.127.702 1.976V164h-.988v-1.001c-.598.763-1.404 1.144-2.418 1.144zm.195-.806c.624 0 1.153-.169 1.586-.507.433-.338.65-.771.65-1.3v-.624a7.022 7.022 0 00-1.963-.286c-.615 0-1.096.126-1.443.377-.347.243-.52.576-.52 1.001 0 .407.16.732.481.975.329.243.732.364 1.209.364z" fill="#8A8A8A"/><path d="M260.369 164.156c-1.456 0-2.721-.49-3.796-1.469l.611-.715c.919.867 1.985 1.3 3.198 1.3.581 0 1.079-.16 1.495-.481.416-.329.624-.754.624-1.274 0-.563-.225-.984-.676-1.261-.451-.277-1.044-.416-1.781-.416h-1.001v-.845h1.001c.659 0 1.192-.152 1.599-.455.416-.312.624-.732.624-1.261 0-.468-.195-.854-.585-1.157-.381-.312-.871-.468-1.469-.468a3.88 3.88 0 00-2.678 1.027l-.598-.715a5.2 5.2 0 011.482-.91c.52-.199 1.127-.299 1.82-.299.901 0 1.638.23 2.21.689.572.459.858 1.04.858 1.742 0 1.031-.555 1.746-1.664 2.145.581.173 1.044.446 1.391.819.347.373.52.845.52 1.417 0 .737-.299 1.352-.897 1.846-.589.494-1.352.741-2.288.741zm7.082-.013c-.685 0-1.274-.186-1.768-.559-.494-.373-.741-.893-.741-1.56 0-.702.26-1.244.78-1.625s1.217-.572 2.093-.572c.693 0 1.378.095 2.054.286v-.208c0-.589-.174-1.04-.52-1.352-.347-.312-.837-.468-1.469-.468-.659 0-1.339.16-2.041.481l-.299-.819c.832-.381 1.646-.572 2.444-.572.953 0 1.677.247 2.171.741.468.468.702 1.127.702 1.976V164h-.988v-1.001c-.598.763-1.404 1.144-2.418 1.144zm.195-.806c.624 0 1.152-.169 1.586-.507.433-.338.65-.771.65-1.3v-.624a7.022 7.022 0 00-1.963-.286c-.616 0-1.097.126-1.443.377-.347.243-.52.576-.52 1.001 0 .407.16.732.481.975.329.243.732.364 1.209.364zm4.343 2.34v-2.561h.728c.598-1.101.897-2.656.897-4.667v-1.17h4.784v5.837h1.014l-.156 2.561h-.832V164h-5.434l-.182 1.677h-.819zm1.794-2.561h3.614v-4.953h-2.821v.936c0 1.69-.264 3.029-.793 4.017zm9.004 1.027c-.685 0-1.274-.186-1.768-.559-.494-.373-.741-.893-.741-1.56 0-.702.26-1.244.78-1.625s1.217-.572 2.093-.572c.693 0 1.378.095 2.054.286v-.208c0-.589-.174-1.04-.52-1.352-.347-.312-.837-.468-1.469-.468-.659 0-1.339.16-2.041.481l-.299-.819c.832-.381 1.646-.572 2.444-.572.953 0 1.677.247 2.171.741.468.468.702 1.127.702 1.976V164h-.988v-1.001c-.598.763-1.404 1.144-2.418 1.144zm.195-.806c.624 0 1.152-.169 1.586-.507.433-.338.65-.771.65-1.3v-.624a7.022 7.022 0 00-1.963-.286c-.616 0-1.097.126-1.443.377-.347.243-.52.576-.52 1.001 0 .407.16.732.481.975.329.243.732.364 1.209.364zm9.595.663v-2.769c-.269.156-.62.299-1.053.429a4.48 4.48 0 01-1.196.182c-.676 0-1.218-.173-1.625-.52-.399-.347-.598-.845-.598-1.495v-2.548h1.001v2.405c0 .399.117.715.351.949.242.225.576.338 1.001.338.797 0 1.503-.212 2.119-.637v-3.055h1.001V164h-1.001zm5.241.143c-.685 0-1.274-.186-1.768-.559-.494-.373-.741-.893-.741-1.56 0-.702.26-1.244.78-1.625s1.217-.572 2.093-.572c.693 0 1.378.095 2.054.286v-.208c0-.589-.174-1.04-.52-1.352-.347-.312-.837-.468-1.469-.468-.659 0-1.339.16-2.041.481l-.299-.819c.832-.381 1.646-.572 2.444-.572.953 0 1.677.247 2.171.741.468.468.702 1.127.702 1.976V164h-.988v-1.001c-.598.763-1.404 1.144-2.418 1.144zm.195-.806c.624 0 1.152-.169 1.586-.507.433-.338.65-.771.65-1.3v-.624a7.022 7.022 0 00-1.963-.286c-.616 0-1.097.126-1.443.377-.347.243-.52.576-.52 1.001 0 .407.16.732.481.975.329.243.732.364 1.209.364zm12.258.819c-.971 0-1.79-.342-2.457-1.027a3.478 3.478 0 01-.988-2.483c0-.962.329-1.785.988-2.47.667-.693 1.486-1.04 2.457-1.04 1.04 0 1.937.399 2.691 1.196l-.637.676c-.624-.659-1.313-.988-2.067-.988-.676 0-1.248.256-1.716.767-.46.503-.689 1.122-.689 1.859 0 .728.234 1.348.702 1.859a2.337 2.337 0 001.768.754c.719 0 1.395-.338 2.028-1.014l.663.611c-.78.867-1.695 1.3-2.743 1.3zm8.295-.156v-6.721h5.824V164h-1.001v-5.837h-3.822V164h-1.001zm13.638-.871c-.676.685-1.512 1.027-2.509 1.027-.996 0-1.828-.342-2.496-1.027-.658-.685-.988-1.512-.988-2.483 0-.962.334-1.785 1.001-2.47.676-.693 1.513-1.04 2.509-1.04.997 0 1.829.342 2.496 1.027.668.685 1.001 1.512 1.001 2.483 0 .962-.338 1.79-1.014 2.483zm-2.483.13c.72 0 1.309-.251 1.768-.754.468-.503.702-1.122.702-1.859 0-.728-.242-1.348-.728-1.859a2.32 2.32 0 00-1.768-.767c-.719 0-1.308.256-1.768.767-.459.503-.689 1.122-.689 1.859 0 .728.239 1.348.715 1.859a2.338 2.338 0 001.768.754zm5.311.741v-6.721h3.25c.667 0 1.2.152 1.599.455.398.303.598.711.598 1.222 0 .719-.373 1.235-1.118 1.547.988.269 1.482.823 1.482 1.664 0 .563-.221 1.01-.663 1.339-.442.329-1.036.494-1.781.494h-3.367zm1.001-.858h2.236c.476 0 .853-.1 1.131-.299a.968.968 0 00.416-.832c0-.329-.148-.585-.442-.767-.286-.182-.698-.273-1.235-.273h-2.106v2.171zm0-2.977h2.067c.416 0 .745-.091.988-.273.251-.191.377-.459.377-.806a.816.816 0 00-.351-.689c-.234-.173-.564-.26-.988-.26h-2.093v2.028zm8.241 3.835v-5.837h-2.405v-.884h5.824v.884h-2.405V164h-1.014zm10.452-.871c-.676.685-1.513 1.027-2.509 1.027-.997 0-1.829-.342-2.496-1.027-.659-.685-.988-1.512-.988-2.483a3.41 3.41 0 011.001-2.47c.676-.693 1.512-1.04 2.509-1.04.996 0 1.828.342 2.496 1.027.667.685 1.001 1.512 1.001 2.483 0 .962-.338 1.79-1.014 2.483zm-2.483.13c.719 0 1.308-.251 1.768-.754.468-.503.702-1.122.702-1.859 0-.728-.243-1.348-.728-1.859a2.322 2.322 0 00-1.768-.767c-.72 0-1.309.256-1.768.767-.46.503-.689 1.122-.689 1.859 0 .728.238 1.348.715 1.859a2.337 2.337 0 001.768.754zm5.31 2.821v-8.801h1.001v1.352c.676-.997 1.534-1.495 2.574-1.495.858 0 1.608.321 2.249.962.641.633.962 1.482.962 2.548 0 1.049-.321 1.894-.962 2.535-.641.641-1.391.962-2.249.962-1.057 0-1.915-.477-2.574-1.43v3.367h-1.001zm3.393-2.834c.676 0 1.239-.234 1.69-.702.451-.477.676-1.114.676-1.911 0-.771-.23-1.395-.689-1.872a2.222 2.222 0 00-1.677-.728c-.65 0-1.218.247-1.703.741-.485.494-.728 1.118-.728 1.872s.243 1.378.728 1.872c.485.485 1.053.728 1.703.728zm8.178.91c-.945 0-1.742-.325-2.392-.975-.641-.659-.962-1.504-.962-2.535 0-.979.308-1.807.923-2.483.615-.685 1.382-1.027 2.301-1.027.962 0 1.725.338 2.288 1.014.563.676.845 1.525.845 2.548 0 .13-.004.247-.013.351h-5.33c.069.685.325 1.231.767 1.638.451.399.984.598 1.599.598.806 0 1.512-.316 2.119-.949l.624.559c-.754.841-1.677 1.261-2.769 1.261zm-2.34-3.913h4.329c-.061-.65-.277-1.187-.65-1.612-.364-.433-.862-.65-1.495-.65-.572 0-1.062.212-1.469.637-.407.425-.646.966-.715 1.625zm7.095 3.757v-6.721h1.001v2.899h3.874v-2.899h1.001V164h-1.001v-2.938h-3.874V164h-1.001zm8.113 0v-6.721h1.001v5.317l3.991-5.317h.975V164h-1.001v-5.317L382.954 164h-.962zm11.139.156c-.945 0-1.742-.325-2.392-.975-.642-.659-.962-1.504-.962-2.535 0-.979.307-1.807.923-2.483.615-.685 1.382-1.027 2.301-1.027.962 0 1.724.338 2.288 1.014.563.676.845 1.525.845 2.548 0 .13-.005.247-.013.351h-5.33c.069.685.325 1.231.767 1.638.45.399.983.598 1.599.598.806 0 1.512-.316 2.119-.949l.624.559c-.754.841-1.677 1.261-2.769 1.261zm-2.34-3.913h4.329c-.061-.65-.278-1.187-.65-1.612-.364-.433-.863-.65-1.495-.65-.572 0-1.062.212-1.469.637-.408.425-.646.966-.715 1.625zm7.095 3.757v-6.721h.949l2.509 3.536 2.509-3.536h.962V164h-1.014v-5.122l-2.483 3.406-2.457-3.406V164h-.975z" fill="#fff"/><path d="M103 62a2 2 0 012-2h48a2 2 0 012 2v63a2 2 0 01-2 2h-48a2 2 0 01-2-2V62z" stroke="#22272F" stroke-width="4"/><path d="M111 72.8l4.125 4.2L122 70" stroke="#8F6DFF" stroke-width="3"/><rect x="126" y="72" width="21" height="3" rx="1.5" fill="#22272F"/><path d="M111 85.8l4.125 4.2L122 83" stroke="#8F6DFF" stroke-width="3"/><rect x="126" y="85" width="21" height="3" rx="1.5" fill="#22272F"/><path d="M111 98.8l4.125 4.2L122 96" stroke="#8F6DFF" stroke-width="3"/><rect x="126" y="98" width="21" height="3" rx="1.5" fill="#22272F"/><path d="M111 111.8l4.125 4.2 6.875-7" stroke="#8F6DFF" stroke-width="3"/><rect x="126" y="111" width="21" height="3" rx="1.5" fill="#22272F"/><circle cx="159.5" cy="114.5" r="25.5" fill="#8F6DFF"/><rect x="176.893" y="106.142" width="28.444" height="7.191" rx="3.343" transform="rotate(135 176.893 106.142)" fill="#fff"/><rect x="148.991" y="108.324" width="18.166" height="7.191" rx="3.343" transform="rotate(45 148.991 108.324)" fill="#fff"/><circle cx="159.5" cy="114.5" r="25.5" fill="#8F6DFF"/><rect x="176.893" y="106.142" width="28.444" height="7.191" rx="3.343" transform="rotate(135 176.893 106.142)" fill="#fff"/><rect x="148.991" y="108.324" width="18.166" height="7.191" rx="3.343" transform="rotate(45 148.991 108.324)" fill="#fff"/><circle cx="355" cy="98" r="21.5" fill="#fff" stroke="#000" stroke-width="3"/><rect x="334" y="97" width="4" height="2" rx="1" fill="#8F6DFF"/><rect x="356" y="115" width="4" height="2" rx="1" transform="rotate(90 356 115)" fill="#8F6DFF"/><rect x="344.242" y="111.414" width="4" height="2" rx="1" transform="rotate(135 344.242 111.414)" fill="#8F6DFF"/><rect x="342.828" y="86.242" width="4" height="2" rx="1" transform="rotate(-135 342.828 86.242)" fill="#8F6DFF"/><rect x="376.242" y="99" width="4" height="2" rx="1" transform="rotate(-180 376.242 99)" fill="#8F6DFF"/><rect x="366" y="84.828" width="4" height="2" rx="1" transform="rotate(-45 366 84.828)" fill="#8F6DFF"/><rect x="367.414" y="110" width="4" height="2" rx="1" transform="rotate(45 367.414 110)" fill="#8F6DFF"/><rect x="354" y="81" width="4" height="2" rx="1" transform="rotate(-90 354 81)" fill="#8F6DFF"/><circle cx="355" cy="98" r="21.5" stroke="#000" stroke-width="3"/><path d="M302 62a2 2 0 012-2h31a2 2 0 012 2v14a2 2 0 01-2 2h-31a2 2 0 01-2-2V62zm-11 29a2 2 0 012-2h31a2 2 0 012 2v14a2 2 0 01-2 2h-31a2 2 0 01-2-2V91zm11 29a2 2 0 012-2h31a2 2 0 012 2v14a2 2 0 01-2 2h-31a2 2 0 01-2-2v-14z" fill="#fff" stroke="#22272F" stroke-width="4"/><rect x="307" y="65" width="13" height="2" rx="1" fill="#22272F"/><rect x="307" y="71" width="13" height="2" rx="1" fill="#22272F"/><rect x="296" y="94" width="13" height="2" rx="1" fill="#22272F"/><rect x="296" y="100" width="13" height="2" rx="1" fill="#22272F"/><rect x="307" y="123" width="13" height="2" rx="1" fill="#22272F"/><rect x="307" y="129" width="13" height="2" rx="1" fill="#22272F"/><circle cx="330.5" cy="71.5" r="7.5" fill="#8F6DFF"/><rect x="335.616" y="69.042" width="8.366" height="2.115" rx="1.058" transform="rotate(135 335.616 69.042)" fill="#fff"/><rect x="354" y="99" width="10" height="2" rx="1" transform="rotate(-90 354 99)" fill="#000"/><rect x="354" y="97" width="16" height="2" rx="1" fill="#000"/><rect x="327.409" y="69.684" width="5.343" height="2.115" rx="1.058" transform="rotate(45 327.409 69.684)" fill="#fff"/><circle cx="319.5" cy="100.5" r="7.5" fill="#8F6DFF"/><rect x="324.615" y="98.042" width="8.366" height="2.115" rx="1.058" transform="rotate(135 324.615 98.042)" fill="#fff"/><rect x="316.41" y="98.684" width="5.343" height="2.115" rx="1.058" transform="rotate(45 316.41 98.684)" fill="#fff"/><circle cx="330.5" cy="129.5" r="7.5" fill="#8F6DFF"/><rect x="335.616" y="127.042" width="8.366" height="2.115" rx="1.058" transform="rotate(135 335.616 127.042)" fill="#fff"/><rect x="327.409" y="127.684" width="5.343" height="2.115" rx="1.058" transform="rotate(45 327.409 127.684)" fill="#fff"/><path d="M453.413 164.156c-1.456 0-2.721-.49-3.796-1.469l.611-.715c.919.867 1.985 1.3 3.198 1.3.581 0 1.079-.16 1.495-.481.416-.329.624-.754.624-1.274 0-.563-.225-.984-.676-1.261-.45-.277-1.044-.416-1.781-.416h-1.001v-.845h1.001c.659 0 1.192-.152 1.599-.455.416-.312.624-.732.624-1.261 0-.468-.195-.854-.585-1.157-.381-.312-.871-.468-1.469-.468a3.882 3.882 0 00-2.678 1.027l-.598-.715a5.2 5.2 0 011.482-.91c.52-.199 1.127-.299 1.82-.299.902 0 1.638.23 2.21.689.572.459.858 1.04.858 1.742 0 1.031-.554 1.746-1.664 2.145.581.173 1.045.446 1.391.819.347.373.52.845.52 1.417 0 .737-.299 1.352-.897 1.846-.589.494-1.352.741-2.288.741zm7.082-.013c-.685 0-1.274-.186-1.768-.559-.494-.373-.741-.893-.741-1.56 0-.702.26-1.244.78-1.625s1.218-.572 2.093-.572c.693 0 1.378.095 2.054.286v-.208c0-.589-.173-1.04-.52-1.352-.347-.312-.836-.468-1.469-.468-.659 0-1.339.16-2.041.481l-.299-.819c.832-.381 1.647-.572 2.444-.572.953 0 1.677.247 2.171.741.468.468.702 1.127.702 1.976V164h-.988v-1.001c-.598.763-1.404 1.144-2.418 1.144zm.195-.806c.624 0 1.153-.169 1.586-.507.433-.338.65-.771.65-1.3v-.624a7.022 7.022 0 00-1.963-.286c-.615 0-1.096.126-1.443.377-.347.243-.52.576-.52 1.001 0 .407.16.732.481.975.329.243.732.364 1.209.364zm4.343 2.34v-2.561h.728c.598-1.101.897-2.656.897-4.667v-1.17h4.784v5.837h1.014l-.156 2.561h-.832V164h-5.434l-.182 1.677h-.819zm1.794-2.561h3.614v-4.953h-2.821v.936c0 1.69-.264 3.029-.793 4.017zm9.004 1.027c-.685 0-1.274-.186-1.768-.559-.494-.373-.741-.893-.741-1.56 0-.702.26-1.244.78-1.625s1.218-.572 2.093-.572c.693 0 1.378.095 2.054.286v-.208c0-.589-.173-1.04-.52-1.352-.347-.312-.836-.468-1.469-.468-.659 0-1.339.16-2.041.481l-.299-.819c.832-.381 1.647-.572 2.444-.572.953 0 1.677.247 2.171.741.468.468.702 1.127.702 1.976V164h-.988v-1.001c-.598.763-1.404 1.144-2.418 1.144zm.195-.806c.624 0 1.153-.169 1.586-.507.433-.338.65-.771.65-1.3v-.624a7.022 7.022 0 00-1.963-.286c-.615 0-1.096.126-1.443.377-.347.243-.52.576-.52 1.001 0 .407.16.732.481.975.329.243.732.364 1.209.364zm9.595.663v-2.769a4.942 4.942 0 01-1.053.429 4.474 4.474 0 01-1.196.182c-.676 0-1.217-.173-1.625-.52-.398-.347-.598-.845-.598-1.495v-2.548h1.001v2.405c0 .399.117.715.351.949.243.225.577.338 1.001.338.798 0 1.504-.212 2.119-.637v-3.055h1.001V164h-1.001zm5.241.143c-.684 0-1.274-.186-1.768-.559-.494-.373-.741-.893-.741-1.56 0-.702.26-1.244.78-1.625s1.218-.572 2.093-.572c.694 0 1.378.095 2.054.286v-.208c0-.589-.173-1.04-.52-1.352-.346-.312-.836-.468-1.469-.468-.658 0-1.339.16-2.041.481l-.299-.819c.832-.381 1.647-.572 2.444-.572.954 0 1.677.247 2.171.741.468.468.702 1.127.702 1.976V164h-.988v-1.001c-.598.763-1.404 1.144-2.418 1.144zm.195-.806c.624 0 1.153-.169 1.586-.507.434-.338.65-.771.65-1.3v-.624a7.017 7.017 0 00-1.963-.286c-.615 0-1.096.126-1.443.377-.346.243-.52.576-.52 1.001 0 .407.161.732.481.975.33.243.733.364 1.209.364zm12.258.819c-.971 0-1.79-.342-2.457-1.027a3.478 3.478 0 01-.988-2.483c0-.962.329-1.785.988-2.47.667-.693 1.486-1.04 2.457-1.04 1.04 0 1.937.399 2.691 1.196l-.637.676c-.624-.659-1.313-.988-2.067-.988-.676 0-1.248.256-1.716.767-.459.503-.689 1.122-.689 1.859 0 .728.234 1.348.702 1.859a2.338 2.338 0 001.768.754c.719 0 1.395-.338 2.028-1.014l.663.611c-.78.867-1.694 1.3-2.743 1.3zm8.295-.156v-6.721h5.824V164h-1.001v-5.837h-3.822V164h-1.001zm8.062 2.08v-8.801h1.001v1.352c.676-.997 1.534-1.495 2.574-1.495.858 0 1.607.321 2.249.962.641.633.962 1.482.962 2.548 0 1.049-.321 1.894-.962 2.535-.642.641-1.391.962-2.249.962-1.058 0-1.916-.477-2.574-1.43v3.367h-1.001zm3.393-2.834c.676 0 1.239-.234 1.69-.702.45-.477.676-1.114.676-1.911 0-.771-.23-1.395-.689-1.872a2.225 2.225 0 00-1.677-.728c-.65 0-1.218.247-1.703.741-.486.494-.728 1.118-.728 1.872s.242 1.378.728 1.872c.485.485 1.053.728 1.703.728zm5.24.754v-6.721h1.001v5.317l3.991-5.317h.975V164h-1.001v-5.317L529.267 164h-.962zm13.778-.871c-.676.685-1.513 1.027-2.509 1.027-.997 0-1.829-.342-2.496-1.027-.659-.685-.988-1.512-.988-2.483a3.41 3.41 0 011.001-2.47c.676-.693 1.512-1.04 2.509-1.04.996 0 1.828.342 2.496 1.027.667.685 1.001 1.512 1.001 2.483 0 .962-.338 1.79-1.014 2.483zm-2.483.13c.719 0 1.308-.251 1.768-.754.468-.503.702-1.122.702-1.859 0-.728-.243-1.348-.728-1.859a2.322 2.322 0 00-1.768-.767c-.72 0-1.309.256-1.768.767-.46.503-.689 1.122-.689 1.859 0 .728.238 1.348.715 1.859a2.337 2.337 0 001.768.754zm5.31 2.821v-8.801h1.001v1.352c.676-.997 1.534-1.495 2.574-1.495.858 0 1.608.321 2.249.962.641.633.962 1.482.962 2.548 0 1.049-.321 1.894-.962 2.535-.641.641-1.391.962-2.249.962-1.057 0-1.915-.477-2.574-1.43v3.367h-1.001zm3.393-2.834c.676 0 1.239-.234 1.69-.702.451-.477.676-1.114.676-1.911 0-.771-.23-1.395-.689-1.872a2.222 2.222 0 00-1.677-.728c-.65 0-1.218.247-1.703.741-.485.494-.728 1.118-.728 1.872s.243 1.378.728 1.872c.485.485 1.053.728 1.703.728zm5.24.754v-6.721h1.001v5.317l3.991-5.317h.975V164h-1.001v-5.317L554.505 164h-.962zm9.826 0v-5.837h-2.405v-.884h5.824v.884h-2.405V164h-1.014zm7.813.156c-.945 0-1.742-.325-2.392-.975-.641-.659-.962-1.504-.962-2.535 0-.979.308-1.807.923-2.483.615-.685 1.382-1.027 2.301-1.027.962 0 1.725.338 2.288 1.014.563.676.845 1.525.845 2.548 0 .13-.004.247-.013.351h-5.33c.069.685.325 1.231.767 1.638.451.399.984.598 1.599.598.806 0 1.512-.316 2.119-.949l.624.559c-.754.841-1.677 1.261-2.769 1.261zm-2.34-3.913h4.329c-.061-.65-.277-1.187-.65-1.612-.364-.433-.862-.65-1.495-.65-.572 0-1.062.212-1.469.637-.407.425-.646.966-.715 1.625zm8.72 3.757v-5.837h-2.405v-.884h5.824v.884h-2.405V164h-1.014zm10.452-.871c-.676.685-1.512 1.027-2.509 1.027-.996 0-1.828-.342-2.496-1.027-.658-.685-.988-1.512-.988-2.483 0-.962.334-1.785 1.001-2.47.676-.693 1.513-1.04 2.509-1.04.997 0 1.829.342 2.496 1.027.668.685 1.001 1.512 1.001 2.483 0 .962-.338 1.79-1.014 2.483zm-2.483.13c.72 0 1.309-.251 1.768-.754.468-.503.702-1.122.702-1.859 0-.728-.242-1.348-.728-1.859a2.32 2.32 0 00-1.768-.767c-.719 0-1.308.256-1.768.767-.459.503-.689 1.122-.689 1.859 0 .728.239 1.348.715 1.859a2.338 2.338 0 001.768.754zm5.311.741v-6.721h.949l2.509 3.536 2.509-3.536h.962V164h-1.014v-5.122l-2.483 3.406-2.457-3.406V164h-.975z" fill="#8A8A8A"/><path d="M495 70a2 2 0 012-2h48a2 2 0 012 2v63a2 2 0 01-2 2h-48a2 2 0 01-2-2V70z" stroke="#22272F" stroke-width="4"/><rect x="503" y="80" width="36" height="3" rx="1.5" fill="#22272F"/><rect x="503" y="93" width="36" height="3" rx="1.5" fill="#22272F"/><rect x="503" y="106" width="36" height="3" rx="1.5" fill="#22272F"/><rect x="503" y="119" width="36" height="3" rx="1.5" fill="#22272F"/><circle cx="544" cy="71" r="18" fill="#8F6DFF"/><rect x="556.277" y="65.1" width="20.078" height="5.076" rx="2.538" transform="rotate(135 556.277 65.1)" fill="#fff"/><rect x="536.581" y="66.641" width="12.823" height="5.076" rx="2.538" transform="rotate(45 536.581 66.64)" fill="#fff"/><defs><filter id="filter0_d" x="0" y="0" width="663" height="224" filterUnits="userSpaceOnUse" color-interpolation-filters="sRGB"><feFlood flood-opacity="0" result="BackgroundImageFix"/><feColorMatrix in="SourceAlpha" values="0 0 0 0 0 0 0 0 0 0 0 0 0 0 0 0 0 0 127 0"/><feOffset dy="1"/><feGaussianBlur stdDeviation="7.5"/><feColorMatrix values="0 0 0 0 0 0 0 0 0 0 0 0 0 0 0 0 0 0 0.36 0"/><feBlend in2="BackgroundImageFix" result="effect1_dropShadow"/><feBlend in="SourceGraphic" in2="effect1_dropShadow" result="shape"/></filter><filter id="filter1_d" x="36" y="35" width="201" height="154" filterUnits="userSpaceOnUse" color-interpolation-filters="sRGB"><feFlood flood-opacity="0" result="BackgroundImageFix"/><feColorMatrix in="SourceAlpha" values="0 0 0 0 0 0 0 0 0 0 0 0 0 0 0 0 0 0 127 0"/><feOffset dy="1"/><feGaussianBlur stdDeviation="5"/><feColorMatrix values="0 0 0 0 0 0 0 0 0 0 0 0 0 0 0 0 0 0 0.25 0"/><feBlend in2="BackgroundImageFix" result="effect1_dropShadow"/><feBlend in="SourceGraphic" in2="effect1_dropShadow" result="shape"/></filter><filter id="filter2_d" x="230" y="35" width="201" height="154" filterUnits="userSpaceOnUse" color-interpolation-filters="sRGB"><feFlood flood-opacity="0" result="BackgroundImageFix"/><feColorMatrix in="SourceAlpha" values="0 0 0 0 0 0 0 0 0 0 0 0 0 0 0 0 0 0 127 0"/><feOffset dy="1"/><feGaussianBlur stdDeviation="5"/><feColorMatrix values="0 0 0 0 0 0 0 0 0 0 0 0 0 0 0 0 0 0 0.25 0"/><feBlend in2="BackgroundImageFix" result="effect1_dropShadow"/><feBlend in="SourceGraphic" in2="effect1_dropShadow" result="shape"/></filter><filter id="filter3_d" x="424" y="35" width="201" height="154" filterUnits="userSpaceOnUse" color-interpolation-filters="sRGB"><feFlood flood-opacity="0" result="BackgroundImageFix"/><feColorMatrix in="SourceAlpha" values="0 0 0 0 0 0 0 0 0 0 0 0 0 0 0 0 0 0 127 0"/><feOffset dy="1"/><feGaussianBlur stdDeviation="5"/><feColorMatrix values="0 0 0 0 0 0 0 0 0 0 0 0 0 0 0 0 0 0 0.25 0"/><feBlend in2="BackgroundImageFix" result="effect1_dropShadow"/><feBlend in="SourceGraphic" in2="effect1_dropShadow" result="shape"/></filter></defs></svg>