<svg width="311" height="260" fill="none" xmlns="http://www.w3.org/2000/svg"><path d="M13.657 12.977c-.601.77-1.386 1.155-2.354 1.155-.968 0-1.753-.381-2.354-1.144-.594-.77-.891-1.716-.891-2.838 0-1.107.3-2.046.902-2.816.609-.777 1.397-1.166 2.365-1.166.968 0 1.749.385 2.343 1.155.594.763.891 1.705.891 2.827 0 1.107-.3 2.05-.902 2.827zm-4.037-.572c.44.623 1.008.935 1.705.935.697 0 1.258-.308 1.683-.924.433-.623.649-1.379.649-2.266 0-.873-.22-1.62-.66-2.244-.433-.63-.997-.946-1.694-.946s-1.261.312-1.694.935c-.433.616-.649 1.368-.649 2.255 0 .873.22 1.624.66 2.255zM16.424 14L19.9 7.092h-4.235V6.3h5.225v.649L17.392 14h-.968zm5.948-4.532V8.313h1.012v1.155h-1.012zm0 4.532v-1.155h1.012V14h-1.012zm8.182-1.023c-.6.77-1.386 1.155-2.354 1.155-.968 0-1.752-.381-2.354-1.144-.594-.77-.89-1.716-.89-2.838 0-1.107.3-2.046.901-2.816.61-.777 1.397-1.166 2.365-1.166.968 0 1.75.385 2.343 1.155.594.763.891 1.705.891 2.827 0 1.107-.3 2.05-.902 2.827zm-4.037-.572c.44.623 1.009.935 1.705.935.697 0 1.258-.308 1.683-.924.433-.623.65-1.379.65-2.266 0-.873-.22-1.62-.66-2.244-.433-.63-.998-.946-1.695-.946-.696 0-1.26.312-1.694.935-.432.616-.649 1.368-.649 2.255 0 .873.22 1.624.66 2.255zm11.9.572c-.6.77-1.385 1.155-2.353 1.155-.968 0-1.753-.381-2.354-1.144-.594-.77-.891-1.716-.891-2.838 0-1.107.3-2.046.902-2.816.608-.777 1.397-1.166 2.365-1.166.968 0 1.749.385 2.343 1.155.594.763.89 1.705.89 2.827 0 1.107-.3 2.05-.901 2.827zm-4.036-.572c.44.623 1.008.935 1.705.935.696 0 1.257-.308 1.683-.924.432-.623.649-1.379.649-2.266 0-.873-.22-1.62-.66-2.244-.433-.63-.998-.946-1.694-.946-.697 0-1.262.312-1.694.935-.433.616-.65 1.368-.65 2.255 0 .873.22 1.624.66 2.255zM12.959 32.977c-.602.77-1.386 1.155-2.354 1.155-.968 0-1.753-.381-2.354-1.144-.594-.77-.891-1.716-.891-2.838 0-1.107.3-2.046.902-2.816.608-.777 1.397-1.166 2.365-1.166.968 0 1.749.385 2.343 1.155.594.763.89 1.705.89 2.827 0 1.107-.3 2.05-.901 2.827zm-4.037-.572c.44.623 1.008.935 1.705.935.696 0 1.257-.308 1.683-.924.432-.623.649-1.379.649-2.266 0-.873-.22-1.62-.66-2.244-.433-.63-.998-.946-1.694-.946-.697 0-1.262.312-1.694.935-.433.616-.65 1.368-.65 2.255 0 .873.22 1.624.66 2.255zm11.152 1.1c-.55.403-1.24.605-2.068.605-.829 0-1.518-.205-2.068-.616-.55-.41-.825-.939-.825-1.584 0-.44.143-.821.429-1.144.286-.323.671-.572 1.155-.748-.88-.403-1.32-1.001-1.32-1.793 0-.58.257-1.063.77-1.452.52-.389 1.14-.583 1.859-.583.719 0 1.335.194 1.848.583.52.389.781.88.781 1.474 0 .777-.44 1.368-1.32 1.771 1.056.396 1.584 1.03 1.584 1.903 0 .645-.275 1.173-.825 1.584zm-3.322-4.191c.337.264.755.396 1.254.396s.917-.132 1.254-.396c.337-.264.506-.609.506-1.034 0-.381-.169-.697-.506-.946-.337-.257-.755-.385-1.254-.385-.506 0-.928.128-1.265.385-.33.25-.495.572-.495.968 0 .41.169.748.506 1.012zm-.22 3.619c.367.279.858.418 1.474.418s1.104-.14 1.463-.418c.367-.279.55-.627.55-1.045 0-.425-.194-.774-.583-1.045-.389-.279-.865-.418-1.43-.418-.572 0-1.052.14-1.441.418-.381.279-.572.634-.572 1.067 0 .403.18.744.539 1.023zm5.84-3.465v-1.155h1.012v1.155h-1.012zm0 4.532v-1.155h1.012V34h-1.012zm8.182-1.023c-.6.77-1.386 1.155-2.354 1.155-.968 0-1.752-.381-2.354-1.144-.594-.77-.89-1.716-.89-2.838 0-1.107.3-2.046.901-2.816.61-.777 1.397-1.166 2.365-1.166.968 0 1.75.385 2.343 1.155.594.763.891 1.705.891 2.827 0 1.107-.3 2.05-.902 2.827zm-4.037-.572c.44.623 1.009.935 1.705.935.697 0 1.258-.308 1.683-.924.433-.623.65-1.379.65-2.266 0-.873-.22-1.62-.66-2.244-.433-.63-.998-.946-1.695-.946-.696 0-1.26.312-1.694.935-.432.616-.649 1.368-.649 2.255 0 .873.22 1.624.66 2.255zm11.9.572c-.6.77-1.385 1.155-2.353 1.155-.968 0-1.753-.381-2.354-1.144-.594-.77-.891-1.716-.891-2.838 0-1.107.3-2.046.902-2.816.608-.777 1.397-1.166 2.365-1.166.968 0 1.749.385 2.343 1.155.594.763.89 1.705.89 2.827 0 1.107-.3 2.05-.901 2.827zm-4.036-.572c.44.623 1.008.935 1.705.935.696 0 1.257-.308 1.683-.924.432-.623.649-1.379.649-2.266 0-.873-.22-1.62-.66-2.244-.433-.63-.998-.946-1.694-.946-.697 0-1.262.312-1.694.935-.433.616-.65 1.368-.65 2.255 0 .873.22 1.624.66 2.255zM12.765 52.977c-.601.77-1.386 1.155-2.354 1.155-.968 0-1.752-.381-2.354-1.144-.594-.77-.89-1.716-.89-2.838 0-1.107.3-2.046.901-2.816.609-.777 1.397-1.166 2.365-1.166.968 0 1.75.385 2.343 1.155.594.763.891 1.705.891 2.827 0 1.107-.3 2.05-.902 2.827zm-4.037-.572c.44.623 1.009.935 1.705.935.697 0 1.258-.308 1.683-.924.433-.623.65-1.379.65-2.266 0-.873-.22-1.62-.66-2.244-.433-.63-.998-.946-1.695-.946-.696 0-1.261.312-1.694.935-.432.616-.649 1.368-.649 2.255 0 .873.22 1.624.66 2.255zm8.865 1.727c-.822 0-1.614-.315-2.376-.946l.506-.671c.623.55 1.254.825 1.892.825.682 0 1.232-.304 1.65-.913.425-.616.638-1.404.638-2.365v-.099c-.514.821-1.24 1.232-2.178 1.232-.792 0-1.438-.224-1.936-.671-.499-.455-.748-1.034-.748-1.738 0-.74.26-1.36.78-1.859.521-.506 1.185-.759 1.992-.759.909 0 1.631.304 2.167.913.542.609.814 1.57.814 2.882 0 1.225-.297 2.226-.891 3.003-.594.777-1.364 1.166-2.31 1.166zm.23-3.685c.565 0 1.024-.176 1.376-.528.359-.352.539-.763.539-1.232 0-.499-.184-.913-.55-1.243-.367-.337-.836-.506-1.408-.506-.558 0-1.005.18-1.342.539a1.79 1.79 0 00-.506 1.287c0 .491.176.895.528 1.21.352.315.806.473 1.364.473zm4.549-.979v-1.155h1.012v1.155h-1.012zm0 4.532v-1.155h1.012V54h-1.012zm8.182-1.023c-.6.77-1.386 1.155-2.354 1.155-.968 0-1.752-.381-2.354-1.144-.594-.77-.89-1.716-.89-2.838 0-1.107.3-2.046.901-2.816.61-.777 1.397-1.166 2.365-1.166.968 0 1.75.385 2.343 1.155.594.763.891 1.705.891 2.827 0 1.107-.3 2.05-.902 2.827zm-4.037-.572c.44.623 1.009.935 1.705.935.697 0 1.258-.308 1.683-.924.433-.623.65-1.379.65-2.266 0-.873-.22-1.62-.66-2.244-.433-.63-.998-.946-1.695-.946-.696 0-1.26.312-1.694.935-.432.616-.649 1.368-.649 2.255 0 .873.22 1.624.66 2.255zm11.9.572c-.6.77-1.385 1.155-2.353 1.155-.968 0-1.753-.381-2.354-1.144-.594-.77-.891-1.716-.891-2.838 0-1.107.3-2.046.902-2.816.608-.777 1.397-1.166 2.365-1.166.968 0 1.749.385 2.343 1.155.594.763.89 1.705.89 2.827 0 1.107-.3 2.05-.901 2.827zm-4.036-.572c.44.623 1.008.935 1.705.935.696 0 1.257-.308 1.683-.924.432-.623.649-1.379.649-2.266 0-.873-.22-1.62-.66-2.244-.433-.63-.998-.946-1.694-.946-.697 0-1.262.312-1.694.935-.433.616-.65 1.368-.65 2.255 0 .873.22 1.624.66 2.255zM11.633 74v-6.853l-1.452.451-.209-.704 1.881-.649h.638V74h-.858zm8.254-1.023c-.6.77-1.386 1.155-2.354 1.155-.968 0-1.752-.381-2.354-1.144-.594-.77-.89-1.716-.89-2.838 0-1.107.3-2.046.901-2.816.61-.777 1.397-1.166 2.365-1.166.968 0 1.75.385 2.343 1.155.594.763.891 1.705.891 2.827 0 1.107-.3 2.05-.902 2.827zm-4.037-.572c.44.623 1.009.935 1.705.935.697 0 1.258-.308 1.683-.924.433-.623.65-1.379.65-2.266 0-.873-.22-1.62-.66-2.244-.433-.63-.998-.946-1.695-.946-.696 0-1.26.312-1.694.935-.432.616-.649 1.368-.649 2.255 0 .873.22 1.624.66 2.255zm6.522-2.937v-1.155h1.012v1.155h-1.012zm0 4.532v-1.155h1.012V74h-1.012zm8.182-1.023c-.6.77-1.386 1.155-2.354 1.155-.968 0-1.752-.381-2.354-1.144-.594-.77-.89-1.716-.89-2.838 0-1.107.3-2.046.901-2.816.61-.777 1.397-1.166 2.365-1.166.968 0 1.75.385 2.343 1.155.594.763.891 1.705.891 2.827 0 1.107-.3 2.05-.902 2.827zm-4.037-.572c.44.623 1.009.935 1.705.935.697 0 1.258-.308 1.683-.924.433-.623.65-1.379.65-2.266 0-.873-.22-1.62-.66-2.244-.433-.63-.998-.946-1.695-.946-.696 0-1.26.312-1.694.935-.432.616-.649 1.368-.649 2.255 0 .873.22 1.624.66 2.255zm11.9.572c-.6.77-1.385 1.155-2.353 1.155-.968 0-1.753-.381-2.354-1.144-.594-.77-.891-1.716-.891-2.838 0-1.107.3-2.046.902-2.816.608-.777 1.397-1.166 2.365-1.166.968 0 1.749.385 2.343 1.155.594.763.89 1.705.89 2.827 0 1.107-.3 2.05-.901 2.827zm-4.036-.572c.44.623 1.008.935 1.705.935.696 0 1.257-.308 1.683-.924.432-.623.649-1.379.649-2.266 0-.873-.22-1.62-.66-2.244-.433-.63-.998-.946-1.694-.946-.697 0-1.262.312-1.694.935-.433.616-.65 1.368-.65 2.255 0 .873.22 1.624.66 2.255zM15.554 94v-6.853l-1.452.451-.209-.704 1.881-.649h.638V94h-.858zm3.942 0v-6.853l-1.452.451-.209-.704 1.881-.649h.638V94h-.858zm2.876-4.532v-1.155h1.012v1.155h-1.012zm0 4.532v-1.155h1.012V94h-1.012zm8.182-1.023c-.6.77-1.386 1.155-2.354 1.155-.968 0-1.752-.381-2.354-1.144-.594-.77-.89-1.716-.89-2.838 0-1.107.3-2.046.901-2.816.61-.777 1.397-1.166 2.365-1.166.968 0 1.75.385 2.343 1.155.594.763.891 1.705.891 2.827 0 1.107-.3 2.05-.902 2.827zm-4.037-.572c.44.623 1.009.935 1.705.935.697 0 1.258-.308 1.683-.924.433-.623.65-1.379.65-2.266 0-.873-.22-1.62-.66-2.244-.433-.63-.998-.946-1.695-.946-.696 0-1.26.312-1.694.935-.432.616-.649 1.368-.649 2.255 0 .873.22 1.624.66 2.255zm11.9.572c-.6.77-1.385 1.155-2.353 1.155-.968 0-1.753-.381-2.354-1.144-.594-.77-.891-1.716-.891-2.838 0-1.107.3-2.046.902-2.816.608-.777 1.397-1.166 2.365-1.166.968 0 1.749.385 2.343 1.155.594.763.89 1.705.89 2.827 0 1.107-.3 2.05-.901 2.827zm-4.036-.572c.44.623 1.008.935 1.705.935.696 0 1.257-.308 1.683-.924.432-.623.649-1.379.649-2.266 0-.873-.22-1.62-.66-2.244-.433-.63-.998-.946-1.694-.946-.697 0-1.262.312-1.694.935-.433.616-.65 1.368-.65 2.255 0 .873.22 1.624.66 2.255zM12.911 114v-6.853l-1.452.451-.209-.704 1.881-.649h.638V114h-.858zm2.502 0v-.671l2.794-2.464c.601-.528 1.02-.968 1.254-1.32a1.96 1.96 0 00.352-1.1c0-.44-.15-.796-.451-1.067a1.585 1.585 0 00-1.1-.407 1.97 1.97 0 00-1.111.319c-.316.213-.635.546-.957 1.001l-.638-.462c.374-.557.77-.968 1.188-1.232.418-.271.946-.407 1.584-.407.69 0 1.257.209 1.705.627.454.411.682.935.682 1.573 0 .528-.143.997-.43 1.408-.285.411-.791.939-1.517 1.584l-2.057 1.826h4.08V114h-5.378zm6.959-4.532v-1.155h1.012v1.155h-1.012zm0 4.532v-1.155h1.012V114h-1.012zm8.182-1.023c-.6.77-1.386 1.155-2.354 1.155-.968 0-1.752-.381-2.354-1.144-.594-.77-.89-1.716-.89-2.838 0-1.107.3-2.046.901-2.816.61-.777 1.397-1.166 2.365-1.166.968 0 1.75.385 2.343 1.155.594.763.891 1.705.891 2.827 0 1.107-.3 2.05-.902 2.827zm-4.037-.572c.44.623 1.009.935 1.705.935.697 0 1.258-.308 1.683-.924.433-.623.65-1.379.65-2.266 0-.873-.22-1.621-.66-2.244-.433-.631-.998-.946-1.695-.946-.696 0-1.26.312-1.694.935-.432.616-.649 1.368-.649 2.255 0 .873.22 1.624.66 2.255zm11.9.572c-.6.77-1.385 1.155-2.353 1.155-.968 0-1.753-.381-2.354-1.144-.594-.77-.891-1.716-.891-2.838 0-1.107.3-2.046.902-2.816.608-.777 1.397-1.166 2.365-1.166.968 0 1.749.385 2.343 1.155.594.763.89 1.705.89 2.827 0 1.107-.3 2.05-.901 2.827zm-4.036-.572c.44.623 1.008.935 1.705.935.696 0 1.257-.308 1.683-.924.432-.623.649-1.379.649-2.266 0-.873-.22-1.621-.66-2.244-.433-.631-.998-.946-1.694-.946-.697 0-1.262.312-1.694.935-.433.616-.65 1.368-.65 2.255 0 .873.22 1.624.66 2.255zM12.75 134v-6.853l-1.452.451-.209-.704 1.881-.649h.638V134h-.858zm5.395.132c-1.21 0-2.167-.458-2.871-1.375l.627-.561c.623.763 1.375 1.144 2.255 1.144.476 0 .876-.139 1.199-.418.322-.279.484-.645.484-1.1 0-.469-.198-.832-.594-1.089-.396-.264-.917-.396-1.562-.396h-.495l-.176-.517 2.43-2.739h-3.761v-.781h4.917v.638l-2.42 2.684c.733.059 1.338.271 1.815.638.484.359.726.876.726 1.551 0 .675-.25 1.232-.748 1.672-.492.433-1.1.649-1.826.649zm4.227-4.664v-1.155h1.012v1.155h-1.012zm0 4.532v-1.155h1.012V134h-1.012zm8.182-1.023c-.6.77-1.386 1.155-2.354 1.155-.968 0-1.752-.381-2.354-1.144-.594-.77-.89-1.716-.89-2.838 0-1.107.3-2.046.901-2.816.61-.777 1.397-1.166 2.365-1.166.968 0 1.75.385 2.343 1.155.594.763.891 1.705.891 2.827 0 1.107-.3 2.05-.902 2.827zm-4.037-.572c.44.623 1.009.935 1.705.935.697 0 1.258-.308 1.683-.924.433-.623.65-1.379.65-2.266 0-.873-.22-1.621-.66-2.244-.433-.631-.998-.946-1.695-.946-.696 0-1.26.312-1.694.935-.432.616-.649 1.368-.649 2.255 0 .873.22 1.624.66 2.255zm11.9.572c-.6.77-1.385 1.155-2.353 1.155-.968 0-1.753-.381-2.354-1.144-.594-.77-.891-1.716-.891-2.838 0-1.107.3-2.046.902-2.816.608-.777 1.397-1.166 2.365-1.166.968 0 1.749.385 2.343 1.155.594.763.89 1.705.89 2.827 0 1.107-.3 2.05-.901 2.827zm-4.036-.572c.44.623 1.008.935 1.705.935.696 0 1.257-.308 1.683-.924.432-.623.649-1.379.649-2.266 0-.873-.22-1.621-.66-2.244-.433-.631-.998-.946-1.694-.946-.697 0-1.262.312-1.694.935-.433.616-.65 1.368-.65 2.255 0 .873.22 1.624.66 2.255zM12.117 154v-6.853l-1.453.451-.208-.704 1.88-.649h.639V154h-.858zm6.725 0v-1.826h-4.06l-.22-.627 4.357-5.302h.759v5.203h1.199v.726h-1.2V154h-.835zm-3.234-2.552h3.234v-3.971l-3.234 3.971zm6.764-1.98v-1.155h1.012v1.155h-1.012zm0 4.532v-1.155h1.012V154h-1.012zm8.182-1.023c-.6.77-1.386 1.155-2.354 1.155-.968 0-1.752-.381-2.354-1.144-.594-.77-.89-1.716-.89-2.838 0-1.107.3-2.046.901-2.816.61-.777 1.397-1.166 2.365-1.166.968 0 1.75.385 2.343 1.155.594.763.891 1.705.891 2.827 0 1.107-.3 2.05-.902 2.827zm-4.037-.572c.44.623 1.009.935 1.705.935.697 0 1.258-.308 1.683-.924.433-.623.65-1.379.65-2.266 0-.873-.22-1.621-.66-2.244-.433-.631-.998-.946-1.695-.946-.696 0-1.26.312-1.694.935-.432.616-.649 1.368-.649 2.255 0 .873.22 1.624.66 2.255zm11.9.572c-.6.77-1.385 1.155-2.353 1.155-.968 0-1.753-.381-2.354-1.144-.594-.77-.891-1.716-.891-2.838 0-1.107.3-2.046.902-2.816.608-.777 1.397-1.166 2.365-1.166.968 0 1.749.385 2.343 1.155.594.763.89 1.705.89 2.827 0 1.107-.3 2.05-.901 2.827zm-4.036-.572c.44.623 1.008.935 1.705.935.696 0 1.257-.308 1.683-.924.432-.623.649-1.379.649-2.266 0-.873-.22-1.621-.66-2.244-.433-.631-.998-.946-1.694-.946-.697 0-1.262.312-1.694.935-.433.616-.65 1.368-.65 2.255 0 .873.22 1.624.66 2.255zM12.761 174v-6.853l-1.452.451-.209-.704 1.881-.649h.638V174h-.858zm5.306.132c-1.019 0-1.936-.407-2.75-1.221l.572-.627c.726.704 1.456 1.056 2.19 1.056.55 0 .997-.161 1.341-.484.345-.323.517-.737.517-1.243 0-.477-.18-.865-.539-1.166-.352-.301-.81-.451-1.375-.451-.528 0-1.067.147-1.617.44l-.583-.385.22-3.751h4.433v.803h-3.674l-.165 2.464a3.787 3.787 0 011.518-.341c.77 0 1.405.216 1.903.649.506.425.76 1.001.76 1.727 0 .748-.257 1.357-.77 1.826-.514.469-1.174.704-1.98.704zm4.305-4.664v-1.155h1.012v1.155h-1.012zm0 4.532v-1.155h1.012V174h-1.012zm8.182-1.023c-.6.77-1.386 1.155-2.354 1.155-.968 0-1.752-.381-2.354-1.144-.594-.77-.89-1.716-.89-2.838 0-1.107.3-2.046.901-2.816.61-.777 1.397-1.166 2.365-1.166.968 0 1.75.385 2.343 1.155.594.763.891 1.705.891 2.827 0 1.107-.3 2.05-.902 2.827zm-4.037-.572c.44.623 1.009.935 1.705.935.697 0 1.258-.308 1.683-.924.433-.623.65-1.379.65-2.266 0-.873-.22-1.621-.66-2.244-.433-.631-.998-.946-1.695-.946-.696 0-1.26.312-1.694.935-.432.616-.649 1.368-.649 2.255 0 .873.22 1.624.66 2.255zm11.9.572c-.6.77-1.385 1.155-2.353 1.155-.968 0-1.753-.381-2.354-1.144-.594-.77-.891-1.716-.891-2.838 0-1.107.3-2.046.902-2.816.608-.777 1.397-1.166 2.365-1.166.968 0 1.749.385 2.343 1.155.594.763.89 1.705.89 2.827 0 1.107-.3 2.05-.901 2.827zm-4.036-.572c.44.623 1.008.935 1.705.935.696 0 1.257-.308 1.683-.924.432-.623.649-1.379.649-2.266 0-.873-.22-1.621-.66-2.244-.433-.631-.998-.946-1.694-.946-.697 0-1.262.312-1.694.935-.433.616-.65 1.368-.65 2.255 0 .873.22 1.624.66 2.255zM12.374 194v-6.853l-1.452.451-.209-.704 1.881-.649h.638V194h-.858zm5.637.132c-.924 0-1.654-.304-2.19-.913-.535-.609-.802-1.566-.802-2.871 0-1.203.286-2.2.858-2.992.579-.792 1.36-1.188 2.343-1.188.799 0 1.558.293 2.277.88l-.506.671c-.602-.506-1.207-.759-1.815-.759-.682 0-1.229.312-1.64.935-.41.623-.615 1.434-.615 2.431v.033c.535-.785 1.265-1.177 2.189-1.177.74 0 1.367.22 1.88.66.521.44.782 1.016.782 1.727 0 .741-.264 1.353-.792 1.837s-1.185.726-1.97.726zm.01-.77c.558 0 1.005-.169 1.343-.506.344-.337.517-.763.517-1.276 0-.477-.176-.869-.528-1.177-.352-.315-.803-.473-1.353-.473-.558 0-1.02.172-1.386.517-.36.337-.54.733-.54 1.188 0 .491.184.902.55 1.232.367.33.833.495 1.398.495zm4.35-3.894v-1.155h1.013v1.155h-1.012zm0 4.532v-1.155h1.013V194h-1.012zm8.183-1.023c-.6.77-1.386 1.155-2.354 1.155-.968 0-1.752-.381-2.354-1.144-.594-.77-.89-1.716-.89-2.838 0-1.107.3-2.046.901-2.816.61-.777 1.397-1.166 2.365-1.166.968 0 1.75.385 2.343 1.155.594.763.891 1.705.891 2.827 0 1.107-.3 2.05-.902 2.827zm-4.037-.572c.44.623 1.009.935 1.705.935.697 0 1.258-.308 1.683-.924.433-.623.65-1.379.65-2.266 0-.873-.22-1.621-.66-2.244-.433-.631-.998-.946-1.695-.946-.696 0-1.26.312-1.694.935-.432.616-.649 1.368-.649 2.255 0 .873.22 1.624.66 2.255zm11.9.572c-.6.77-1.385 1.155-2.353 1.155-.968 0-1.753-.381-2.354-1.144-.594-.77-.891-1.716-.891-2.838 0-1.107.3-2.046.902-2.816.608-.777 1.397-1.166 2.365-1.166.968 0 1.749.385 2.343 1.155.594.763.89 1.705.89 2.827 0 1.107-.3 2.05-.901 2.827zm-4.036-.572c.44.623 1.008.935 1.705.935.696 0 1.257-.308 1.683-.924.432-.623.649-1.379.649-2.266 0-.873-.22-1.621-.66-2.244-.433-.631-.998-.946-1.694-.946-.697 0-1.262.312-1.694.935-.433.616-.65 1.368-.65 2.255 0 .873.22 1.624.66 2.255zM12.944 214v-6.853l-1.452.451-.21-.704 1.882-.649h.638V214h-.858zm3.48 0l3.476-6.908h-4.235v-.792h5.225v.649L17.392 214h-.968zm5.948-4.532v-1.155h1.012v1.155h-1.012zm0 4.532v-1.155h1.012V214h-1.012zm8.182-1.023c-.6.77-1.386 1.155-2.354 1.155-.968 0-1.752-.381-2.354-1.144-.594-.77-.89-1.716-.89-2.838 0-1.107.3-2.046.901-2.816.61-.777 1.397-1.166 2.365-1.166.968 0 1.75.385 2.343 1.155.594.763.891 1.705.891 2.827 0 1.107-.3 2.05-.902 2.827zm-4.037-.572c.44.623 1.009.935 1.705.935.697 0 1.258-.308 1.683-.924.433-.623.65-1.379.65-2.266 0-.873-.22-1.621-.66-2.244-.433-.631-.998-.946-1.695-.946-.696 0-1.26.312-1.694.935-.432.616-.649 1.368-.649 2.255 0 .873.22 1.624.66 2.255zm11.9.572c-.6.77-1.385 1.155-2.353 1.155-.968 0-1.753-.381-2.354-1.144-.594-.77-.891-1.716-.891-2.838 0-1.107.3-2.046.902-2.816.608-.777 1.397-1.166 2.365-1.166.968 0 1.749.385 2.343 1.155.594.763.89 1.705.89 2.827 0 1.107-.3 2.05-.901 2.827zm-4.036-.572c.44.623 1.008.935 1.705.935.696 0 1.257-.308 1.683-.924.432-.623.649-1.379.649-2.266 0-.873-.22-1.621-.66-2.244-.433-.631-.998-.946-1.694-.946-.697 0-1.262.312-1.694.935-.433.616-.65 1.368-.65 2.255 0 .873.22 1.624.66 2.255zM12.568 234v-6.853l-1.452.451-.21-.704 1.882-.649h.638V234h-.858zm7.506-.495c-.55.403-1.24.605-2.068.605-.829 0-1.518-.205-2.068-.616-.55-.411-.825-.939-.825-1.584 0-.44.143-.821.429-1.144.286-.323.671-.572 1.155-.748-.88-.403-1.32-1.001-1.32-1.793 0-.579.257-1.063.77-1.452.52-.389 1.14-.583 1.859-.583.719 0 1.335.194 1.848.583.52.389.781.88.781 1.474 0 .777-.44 1.368-1.32 1.771 1.056.396 1.584 1.03 1.584 1.903 0 .645-.275 1.173-.825 1.584zm-3.322-4.191c.337.264.755.396 1.254.396s.917-.132 1.254-.396c.337-.264.506-.609.506-1.034 0-.381-.169-.697-.506-.946-.337-.257-.755-.385-1.254-.385-.506 0-.928.128-1.265.385-.33.249-.495.572-.495.968 0 .411.169.748.506 1.012zm-.22 3.619c.367.279.858.418 1.474.418s1.104-.139 1.463-.418c.367-.279.55-.627.55-1.045 0-.425-.194-.774-.583-1.045-.389-.279-.865-.418-1.43-.418-.572 0-1.052.139-1.441.418-.381.279-.572.634-.572 1.067 0 .403.18.744.539 1.023zm5.84-3.465v-1.155h1.012v1.155h-1.012zm0 4.532v-1.155h1.012V234h-1.012zm8.182-1.023c-.6.77-1.386 1.155-2.354 1.155-.968 0-1.752-.381-2.354-1.144-.594-.77-.89-1.716-.89-2.838 0-1.107.3-2.046.901-2.816.61-.777 1.397-1.166 2.365-1.166.968 0 1.75.385 2.343 1.155.594.763.891 1.705.891 2.827 0 1.107-.3 2.05-.902 2.827zm-4.037-.572c.44.623 1.009.935 1.705.935.697 0 1.258-.308 1.683-.924.433-.623.65-1.379.65-2.266 0-.873-.22-1.621-.66-2.244-.433-.631-.998-.946-1.695-.946-.696 0-1.26.312-1.694.935-.432.616-.649 1.368-.649 2.255 0 .873.22 1.624.66 2.255zm11.9.572c-.6.77-1.385 1.155-2.353 1.155-.968 0-1.753-.381-2.354-1.144-.594-.77-.891-1.716-.891-2.838 0-1.107.3-2.046.902-2.816.608-.777 1.397-1.166 2.365-1.166.968 0 1.749.385 2.343 1.155.594.763.89 1.705.89 2.827 0 1.107-.3 2.05-.901 2.827zm-4.036-.572c.44.623 1.008.935 1.705.935.696 0 1.257-.308 1.683-.924.432-.623.649-1.379.649-2.266 0-.873-.22-1.621-.66-2.244-.433-.631-.998-.946-1.694-.946-.697 0-1.262.312-1.694.935-.433.616-.65 1.368-.65 2.255 0 .873.22 1.624.66 2.255zM12.374 254v-6.853l-1.452.451-.209-.704 1.881-.649h.638V254h-.858zm5.219.132c-.822 0-1.614-.315-2.376-.946l.506-.671c.623.55 1.254.825 1.892.825.682 0 1.232-.304 1.65-.913.425-.616.638-1.404.638-2.365v-.099c-.514.821-1.24 1.232-2.178 1.232-.792 0-1.438-.224-1.936-.671-.499-.455-.748-1.034-.748-1.738 0-.741.26-1.36.78-1.859.521-.506 1.185-.759 1.992-.759.909 0 1.631.304 2.167.913.542.609.814 1.569.814 2.882 0 1.225-.297 2.226-.891 3.003-.594.777-1.364 1.166-2.31 1.166zm.23-3.685c.565 0 1.024-.176 1.376-.528.359-.352.539-.763.539-1.232 0-.499-.184-.913-.55-1.243-.367-.337-.836-.506-1.408-.506-.558 0-1.005.18-1.342.539a1.79 1.79 0 00-.506 1.287c0 .491.176.895.528 1.21.352.315.806.473 1.364.473zm4.549-.979v-1.155h1.012v1.155h-1.012zm0 4.532v-1.155h1.012V254h-1.012zm8.182-1.023c-.6.77-1.386 1.155-2.354 1.155-.968 0-1.752-.381-2.354-1.144-.594-.77-.89-1.716-.89-2.838 0-1.107.3-2.046.901-2.816.61-.777 1.397-1.166 2.365-1.166.968 0 1.75.385 2.343 1.155.594.763.891 1.705.891 2.827 0 1.107-.3 2.05-.902 2.827zm-4.037-.572c.44.623 1.009.935 1.705.935.697 0 1.258-.308 1.683-.924.433-.623.65-1.379.65-2.266 0-.873-.22-1.621-.66-2.244-.433-.631-.998-.946-1.695-.946-.696 0-1.26.312-1.694.935-.432.616-.649 1.368-.649 2.255 0 .873.22 1.624.66 2.255zm11.9.572c-.6.77-1.385 1.155-2.353 1.155-.968 0-1.753-.381-2.354-1.144-.594-.77-.891-1.716-.891-2.838 0-1.107.3-2.046.902-2.816.608-.777 1.397-1.166 2.365-1.166.968 0 1.749.385 2.343 1.155.594.763.89 1.705.89 2.827 0 1.107-.3 2.05-.901 2.827zm-4.036-.572c.44.623 1.008.935 1.705.935.696 0 1.257-.308 1.683-.924.432-.623.649-1.379.649-2.266 0-.873-.22-1.621-.66-2.244-.433-.631-.998-.946-1.694-.946-.697 0-1.262.312-1.694.935-.433.616-.65 1.368-.65 2.255 0 .873.22 1.624.66 2.255z" fill="#747474"/><rect x="49.5" y="1.5" width="30" height="17" rx="2.5" stroke="#DADADA"/><rect x="49.5" y="21.5" width="30" height="17" rx="2.5" stroke="#DADADA"/><rect x="82.5" y="21.5" width="30" height="17" rx="2.5" stroke="#DADADA"/><rect x="49" y="41" width="31" height="198" rx="3" fill="#8F6DFF"/><rect x="82" y="62" width="31" height="198" rx="3" fill="#8F6DFF"/><rect x="115" y="40" width="31" height="198" rx="3" fill="#8F6DFF"/><rect x="148" y="40" width="31" height="198" rx="3" fill="#8F6DFF"/><rect x="49.5" y="241.5" width="30" height="17" rx="2.5" stroke="#DADADA"/><rect x="82.5" y="1.5" width="30" height="17" rx="2.5" stroke="#DADADA"/><rect x="115.5" y="21.5" width="30" height="17" rx="2.5" stroke="#DADADA"/><rect x="115.5" y="1.5" width="30" height="17" rx="2.5" stroke="#DADADA"/><rect x="148.5" y="21.5" width="30" height="17" rx="2.5" stroke="#DADADA"/><rect x="148.5" y="1.5" width="30" height="17" rx="2.5" stroke="#DADADA"/><rect x="181.5" y="21.5" width="30" height="17" rx="2.5" stroke="#DADADA"/><rect x="181.5" y="1.5" width="30" height="17" rx="2.5" stroke="#DADADA"/><rect x="181.5" y="61.5" width="30" height="17" rx="2.5" stroke="#DADADA"/><rect x="181.5" y="41.5" width="30" height="17" rx="2.5" stroke="#DADADA"/><rect x="181.5" y="101.5" width="30" height="17" rx="2.5" stroke="#DADADA"/><rect x="181.5" y="81.5" width="30" height="17" rx="2.5" stroke="#DADADA"/><rect x="181.5" y="141.5" width="30" height="17" rx="2.5" stroke="#DADADA"/><rect x="181.5" y="121.5" width="30" height="17" rx="2.5" stroke="#DADADA"/><rect x="181.5" y="181.5" width="30" height="17" rx="2.5" stroke="#DADADA"/><rect x="181.5" y="161.5" width="30" height="17" rx="2.5" stroke="#DADADA"/><rect x="181.5" y="221.5" width="30" height="17" rx="2.5" stroke="#DADADA"/><rect x="181.5" y="241.5" width="30" height="17" rx="2.5" stroke="#DADADA"/><rect x="148.5" y="241.5" width="30" height="17" rx="2.5" stroke="#DADADA"/><rect x="115.5" y="241.5" width="30" height="17" rx="2.5" stroke="#DADADA"/><rect x="181.5" y="201.5" width="30" height="17" rx="2.5" stroke="#DADADA"/><rect x="82.5" y="41.5" width="30" height="17" rx="2.5" stroke="#DADADA"/><rect x="214.5" y="21.5" width="30" height="17" rx="2.5" stroke="#DADADA"/><rect x="214" y="62" width="31" height="198" rx="3" fill="#8F6DFF"/><rect x="214.5" y="1.5" width="30" height="17" rx="2.5" stroke="#DADADA"/><rect x="214.5" y="41.5" width="30" height="17" rx="2.5" stroke="#DADADA"/><rect x="247.5" y="21.5" width="30" height="17" rx="2.5" stroke="#DADADA"/><rect x="247" y="62" width="31" height="198" rx="3" fill="#8F6DFF"/><rect x="247.5" y="1.5" width="30" height="17" rx="2.5" stroke="#DADADA"/><rect x="247.5" y="41.5" width="30" height="17" rx="2.5" stroke="#DADADA"/><rect x="280.5" y=".5" width="30" height="17" rx="2.5" stroke="#DADADA"/><rect x="280" y="41" width="31" height="198" rx="3" fill="#8F6DFF"/><rect x="280.5" y="241.5" width="30" height="17" rx="2.5" stroke="#DADADA"/><rect x="280.5" y="20.5" width="30" height="17" rx="2.5" stroke="#DADADA"/><g filter="url(#filter0_d)"><rect x="164" y="180" width="100" height="38" rx="4" fill="#fff"/></g><path d="M177.694 194.791c-.711.91-1.638 1.365-2.782 1.365-1.144 0-2.071-.451-2.782-1.352-.702-.91-1.053-2.028-1.053-3.354 0-1.309.355-2.418 1.066-3.328.719-.919 1.651-1.378 2.795-1.378s2.067.455 2.769 1.365c.702.901 1.053 2.015 1.053 3.341 0 1.309-.355 2.422-1.066 3.341zm-4.771-.676c.52.737 1.192 1.105 2.015 1.105.823 0 1.486-.364 1.989-1.092.511-.737.767-1.629.767-2.678 0-1.031-.26-1.915-.78-2.652-.511-.745-1.179-1.118-2.002-1.118-.823 0-1.491.368-2.002 1.105-.511.728-.767 1.616-.767 2.665 0 1.031.26 1.92.78 2.665zm10.476 2.041c-.971 0-1.907-.373-2.808-1.118l.598-.793c.737.65 1.482.975 2.236.975.806 0 1.456-.36 1.95-1.079.503-.728.754-1.66.754-2.795v-.117c-.607.971-1.465 1.456-2.574 1.456-.936 0-1.699-.264-2.288-.793-.589-.537-.884-1.222-.884-2.054 0-.875.308-1.608.923-2.197.615-.598 1.4-.897 2.353-.897 1.075 0 1.928.36 2.561 1.079.641.719.962 1.855.962 3.406 0 1.447-.351 2.63-1.053 3.549s-1.612 1.378-2.73 1.378zm.273-4.355c.667 0 1.209-.208 1.625-.624.425-.416.637-.901.637-1.456 0-.589-.217-1.079-.65-1.469-.433-.399-.988-.598-1.664-.598-.659 0-1.187.212-1.586.637-.399.416-.598.923-.598 1.521 0 .581.208 1.057.624 1.43.416.373.953.559 1.612.559zm5.375-1.157v-1.365h1.196v1.365h-1.196zm0 5.356v-1.365h1.196V196h-1.196zm9.67-1.209c-.71.91-1.638 1.365-2.782 1.365-1.144 0-2.071-.451-2.782-1.352-.702-.91-1.053-2.028-1.053-3.354 0-1.309.356-2.418 1.066-3.328.72-.919 1.651-1.378 2.795-1.378s2.067.455 2.769 1.365c.702.901 1.053 2.015 1.053 3.341 0 1.309-.355 2.422-1.066 3.341zm-4.771-.676c.52.737 1.192 1.105 2.015 1.105.824 0 1.487-.364 1.989-1.092.512-.737.767-1.629.767-2.678 0-1.031-.26-1.915-.78-2.652-.511-.745-1.178-1.118-2.002-1.118-.823 0-1.49.368-2.002 1.105-.511.728-.767 1.616-.767 2.665 0 1.031.26 1.92.78 2.665zm14.064.676c-.71.91-1.638 1.365-2.782 1.365-1.144 0-2.071-.451-2.782-1.352-.702-.91-1.053-2.028-1.053-3.354 0-1.309.356-2.418 1.066-3.328.72-.919 1.651-1.378 2.795-1.378s2.067.455 2.769 1.365c.702.901 1.053 2.015 1.053 3.341 0 1.309-.355 2.422-1.066 3.341zm-4.771-.676c.52.737 1.192 1.105 2.015 1.105.824 0 1.487-.364 1.989-1.092.512-.737.767-1.629.767-2.678 0-1.031-.26-1.915-.78-2.652-.511-.745-1.178-1.118-2.002-1.118-.823 0-1.49.368-2.002 1.105-.511.728-.767 1.616-.767 2.665 0 1.031.26 1.92.78 2.665zm11.384-1.495v-1.053h3.614v1.053h-3.614zm10.686 3.38v-8.099l-1.716.533-.247-.832 2.223-.767h.754V196h-1.014zm8.871-.585c-.65.477-1.465.715-2.444.715-.979 0-1.794-.243-2.444-.728-.65-.485-.975-1.109-.975-1.872 0-.52.169-.971.507-1.352.338-.381.793-.676 1.365-.884-1.04-.477-1.56-1.183-1.56-2.119 0-.685.303-1.257.91-1.716.615-.459 1.348-.689 2.197-.689s1.577.23 2.184.689c.615.459.923 1.04.923 1.742 0 .919-.52 1.616-1.56 2.093 1.248.468 1.872 1.218 1.872 2.249 0 .763-.325 1.387-.975 1.872zm-3.926-4.953c.399.312.893.468 1.482.468s1.083-.156 1.482-.468c.399-.312.598-.719.598-1.222 0-.451-.199-.823-.598-1.118-.399-.303-.893-.455-1.482-.455-.598 0-1.096.152-1.495.455-.39.295-.585.676-.585 1.144 0 .485.199.884.598 1.196zm-.26 4.277c.433.329 1.014.494 1.742.494s1.304-.165 1.729-.494c.433-.329.65-.741.65-1.235 0-.503-.23-.914-.689-1.235-.459-.329-1.023-.494-1.69-.494-.676 0-1.244.165-1.703.494-.451.329-.676.75-.676 1.261 0 .477.212.88.637 1.209zm6.902-4.095v-1.365h1.196v1.365h-1.196zm0 5.356v-1.365h1.196V196h-1.196zm9.67-1.209c-.711.91-1.638 1.365-2.782 1.365-1.144 0-2.071-.451-2.782-1.352-.702-.91-1.053-2.028-1.053-3.354 0-1.309.355-2.418 1.066-3.328.719-.919 1.651-1.378 2.795-1.378s2.067.455 2.769 1.365c.702.901 1.053 2.015 1.053 3.341 0 1.309-.355 2.422-1.066 3.341zm-4.771-.676c.52.737 1.192 1.105 2.015 1.105.823 0 1.486-.364 1.989-1.092.511-.737.767-1.629.767-2.678 0-1.031-.26-1.915-.78-2.652-.511-.745-1.179-1.118-2.002-1.118-.823 0-1.491.368-2.002 1.105-.511.728-.767 1.616-.767 2.665 0 1.031.26 1.92.78 2.665zm14.064.676c-.711.91-1.638 1.365-2.782 1.365-1.144 0-2.071-.451-2.782-1.352-.702-.91-1.053-2.028-1.053-3.354 0-1.309.355-2.418 1.066-3.328.719-.919 1.651-1.378 2.795-1.378s2.067.455 2.769 1.365c.702.901 1.053 2.015 1.053 3.341 0 1.309-.355 2.422-1.066 3.341zm-4.771-.676c.52.737 1.192 1.105 2.015 1.105.823 0 1.486-.364 1.989-1.092.511-.737.767-1.629.767-2.678 0-1.031-.26-1.915-.78-2.652-.511-.745-1.179-1.118-2.002-1.118-.823 0-1.491.368-2.002 1.105-.511.728-.767 1.616-.767 2.665 0 1.031.26 1.92.78 2.665z" fill="#7157C7"/><path d="M187.658 210v-6.853l-1.452.451-.209-.704 1.881-.649h.638V210h-.858zm9.638 1.76v-2.222c-.454.389-.927.583-1.419.583-.689 0-1.246-.264-1.672-.792-.425-.535-.638-1.265-.638-2.189 0-.909.213-1.628.638-2.156.426-.528.983-.792 1.672-.792.492 0 .965.205 1.419.616V202.3h.858v2.508c.455-.411.928-.616 1.419-.616.697 0 1.258.268 1.683.803.426.528.638 1.25.638 2.167 0 .909-.216 1.632-.649 2.167-.425.528-.982.792-1.672.792-.315 0-.575-.048-.781-.143a3.605 3.605 0 01-.638-.44v2.222h-.858zm-1.243-2.387c.477 0 .891-.187 1.243-.561v-3.3c-.352-.374-.766-.561-1.243-.561-.528 0-.927.198-1.199.594-.271.396-.407.942-.407 1.639 0 1.459.536 2.189 1.606 2.189zm3.355 0c1.071 0 1.606-.737 1.606-2.211 0-.689-.135-1.228-.407-1.617-.271-.396-.671-.594-1.199-.594-.476 0-.894.187-1.254.561v3.3c.36.374.778.561 1.254.561zm6.557.759c-.8 0-1.474-.275-2.024-.825-.543-.557-.814-1.272-.814-2.145 0-.829.26-1.529.781-2.101a2.51 2.51 0 011.947-.869c.814 0 1.459.286 1.936.858.476.572.715 1.291.715 2.156 0 .11-.004.209-.011.297h-4.51c.058.579.275 1.041.649 1.386.381.337.832.506 1.353.506.682 0 1.279-.268 1.793-.803l.528.473c-.638.711-1.419 1.067-2.343 1.067zm-1.98-3.311h3.663c-.052-.55-.235-1.005-.55-1.364-.308-.367-.73-.55-1.265-.55-.484 0-.899.18-1.243.539-.345.359-.547.818-.605 1.375zm6.003 3.179v-5.687h2.75c.565 0 1.016.128 1.353.385.338.257.506.601.506 1.034 0 .609-.315 1.045-.946 1.309.836.227 1.254.697 1.254 1.408 0 .477-.187.854-.561 1.133-.374.279-.876.418-1.507.418h-2.849zm.847-.726h1.892c.404 0 .723-.084.957-.253a.817.817 0 00.352-.704c0-.279-.124-.495-.374-.649-.242-.154-.59-.231-1.045-.231h-1.782v1.837zm0-2.519h1.749c.352 0 .631-.077.836-.231.213-.161.319-.389.319-.682a.691.691 0 00-.297-.583c-.198-.147-.476-.22-.836-.22h-1.771v1.716zm5.599 5.005v-7.447h.847v1.144c.572-.843 1.298-1.265 2.178-1.265.726 0 1.36.271 1.903.814.542.535.814 1.254.814 2.156 0 .887-.272 1.602-.814 2.145-.543.543-1.177.814-1.903.814-.895 0-1.621-.403-2.178-1.21v2.849h-.847zm2.871-2.398c.572 0 1.048-.198 1.43-.594.381-.403.572-.942.572-1.617 0-.653-.195-1.181-.583-1.584a1.88 1.88 0 00-1.419-.616c-.55 0-1.031.209-1.441.627-.411.418-.616.946-.616 1.584 0 .638.205 1.166.616 1.584.41.411.891.616 1.441.616zm6.127.759c-.579 0-1.078-.158-1.496-.473-.418-.315-.627-.755-.627-1.32 0-.594.22-1.052.66-1.375.44-.323 1.031-.484 1.771-.484.587 0 1.166.081 1.738.242v-.176c0-.499-.146-.88-.44-1.144-.293-.264-.707-.396-1.243-.396-.557 0-1.133.136-1.727.407l-.253-.693c.704-.323 1.394-.484 2.068-.484.807 0 1.419.209 1.837.627.396.396.594.953.594 1.672V210h-.836v-.847c-.506.645-1.188.968-2.046.968zm.165-.682c.528 0 .976-.143 1.342-.429.367-.286.55-.653.55-1.1v-.528a5.961 5.961 0 00-1.661-.242c-.52 0-.927.106-1.221.319a.98.98 0 00-.44.847c0 .345.136.62.407.825.279.205.62.308 1.023.308zm4.237.649c-.22 0-.448-.029-.682-.088l.099-.726c.168.051.304.077.407.077.161 0 .293-.018.396-.055.102-.044.212-.15.33-.319.124-.176.22-.422.286-.737.066-.315.121-.763.165-1.342.051-.579.077-1.283.077-2.112v-.473h4.026V210h-.847v-4.939h-2.376v.132c0 .865-.033 1.602-.099 2.211-.066.609-.151 1.085-.253 1.43-.096.345-.231.612-.407.803-.176.191-.349.312-.517.363a1.782 1.782 0 01-.605.088zm6.493-.088l1.738-2.2a2.138 2.138 0 01-1.1-.605 1.577 1.577 0 01-.418-1.111c0-.528.191-.953.572-1.276.382-.33.906-.495 1.573-.495h2.673V210h-.847v-2.068h-1.573a281.806 281.806 0 01-1.573 2.068h-1.045zm2.431-2.783h1.76v-2.156h-1.782c-.418 0-.748.095-.99.286-.234.183-.352.44-.352.77 0 .337.125.605.374.803.257.198.587.297.99.297z" fill="#747474"/><defs><filter id="filter0_d" x="162" y="178" width="104" height="42" filterUnits="userSpaceOnUse" color-interpolation-filters="sRGB"><feFlood flood-opacity="0" result="BackgroundImageFix"/><feColorMatrix in="SourceAlpha" values="0 0 0 0 0 0 0 0 0 0 0 0 0 0 0 0 0 0 127 0"/><feOffset/><feGaussianBlur stdDeviation="1"/><feColorMatrix values="0 0 0 0 0 0 0 0 0 0 0 0 0 0 0 0 0 0 0.3 0"/><feBlend in2="BackgroundImageFix" result="effect1_dropShadow"/><feBlend in="SourceGraphic" in2="effect1_dropShadow" result="shape"/></filter></defs></svg>