<svg width="697" height="421" fill="none" xmlns="http://www.w3.org/2000/svg"><path d="M305 283.999c-33 7.5-82.395 30.365-104.5 74.501-11.922 23.804 17 30.5 31.001 30.5H400c32 0 46.5-11 60.999-21.999L461 367c14.5-11 39.5-50.13-16.001-48.631-55.5 1.5-106.999-41.87-139.999-34.37z" fill="url(#paint0_linear)" fill-opacity=".6"/><path d="M269.745.188C151.223 4.504 63.006 84.02 17.483 158.104c-45.524 74.085 2.923 161.608 86.871 165.715 83.948 4.107 101.072-62.777 165.391-80.713 64.318-17.936 113.691 41.532 169.984 28.464 56.293-13.067 114.854-98.259 88.96-152.067C502.795 65.695 387.523-4.1 269.745.188z" fill="url(#paint1_linear)" fill-opacity=".7"/><path d="M50.25 213v-87.5h34.5c10.167 0 18.25 2.667 24.25 8s9 12.5 9 21.5c0 9.417-3.333 16.75-10 22-6.583 5.25-14.917 7.875-25 7.875H65.625V213H50.25zm15.375-42H83.5c5.75 0 10.333-1.458 13.75-4.375s5.125-6.75 5.125-11.5c0-5-1.708-8.833-5.125-11.5-3.333-2.75-7.917-4.125-13.75-4.125H65.625V171zm96.621 43.5c-9.667 0-17.75-3.208-24.25-9.625-6.417-6.417-9.625-14.708-9.625-24.875 0-9.583 3.042-17.708 9.125-24.375 6.083-6.667 13.792-10 23.125-10 10 0 17.75 3.417 23.25 10.25 5.583 6.75 8.375 15.167 8.375 25.25 0 1.833-.083 3.25-.25 4.25h-48.5c.833 5.25 2.958 9.375 6.375 12.375 3.417 2.917 7.625 4.375 12.625 4.375 6.5 0 12.458-2.625 17.875-7.875l8.875 7.875c-6.833 8.25-15.833 12.375-27 12.375zm-18.875-39.125h33.875c-.5-5.083-2.208-9.25-5.125-12.5S165.329 158 160.496 158c-4.583 0-8.417 1.625-11.5 4.875-3.083 3.167-4.958 7.333-5.625 12.5zm95.44 39.125c-10 0-18.334-3.333-25-10-6.667-6.667-10-14.792-10-24.375s3.375-17.708 10.125-24.375c6.75-6.75 15.125-10.125 25.125-10.125s18.333 3.333 25 10c6.75 6.667 10.125 14.833 10.125 24.5 0 9.5-3.375 17.625-10.125 24.375-6.75 6.667-15.167 10-25.25 10zm.25-13.125c6 0 10.833-2.042 14.5-6.125 3.666-4.083 5.5-9.125 5.5-15.125 0-5.917-1.917-10.917-5.75-15-3.834-4.167-8.667-6.25-14.5-6.25-5.917 0-10.709 2.042-14.375 6.125-3.667 4.083-5.5 9.125-5.5 15.125 0 5.833 1.916 10.833 5.75 15 3.833 4.167 8.625 6.25 14.375 6.25zM289.589 233v-86h15.125v11c5.833-8.25 13.292-12.375 22.375-12.375 8.333 0 15.542 3.125 21.625 9.375 6.083 6.167 9.125 14.542 9.125 25.125 0 10.417-3.042 18.75-9.125 25-6.083 6.167-13.292 9.25-21.625 9.25-9.083 0-16.542-3.875-22.375-11.625V233h-15.125zm34-31.75c5.333 0 9.792-1.958 13.375-5.875 3.667-3.917 5.5-9.083 5.5-15.5 0-6.25-1.833-11.333-5.5-15.25s-8.125-5.875-13.375-5.875-9.792 2-13.625 6c-3.75 4-5.625 9.125-5.625 15.375 0 6.167 1.875 11.25 5.625 15.25 3.833 3.917 8.375 5.875 13.625 5.875zM374.204 213v-91.25h15.125V213h-15.125zm65.142 1.5c-9.667 0-17.75-3.208-24.25-9.625-6.417-6.417-9.625-14.708-9.625-24.875 0-9.583 3.041-17.708 9.125-24.375 6.083-6.667 13.791-10 23.125-10 10 0 17.75 3.417 23.25 10.25 5.583 6.75 8.375 15.167 8.375 25.25 0 1.833-.084 3.25-.25 4.25h-48.5c.833 5.25 2.958 9.375 6.375 12.375 3.416 2.917 7.625 4.375 12.625 4.375 6.5 0 12.458-2.625 17.875-7.875l8.875 7.875c-6.834 8.25-15.834 12.375-27 12.375zm-18.875-39.125h33.875c-.5-5.083-2.209-9.25-5.125-12.5-2.917-3.25-6.792-4.875-11.625-4.875-4.584 0-8.417 1.625-11.5 4.875-3.084 3.167-4.959 7.333-5.625 12.5z" fill="#fff"/><ellipse cx="511.593" cy="225.35" rx="35.057" ry="34.658" transform="rotate(19.44 511.593 225.35)" fill="url(#paint2_linear)"/><path d="M232.5 74c-2.928-1.4-4.572-1.135-7.5 0l-18.5 47.5-21.5 193 3.5 35c2.451 1.678 5.692 1.383 10.5 1.5.841-1.012.85-1.587 0-2.5-3.893-3.115-5.623-5.031-7-9l14.5-100 24.5 104 24 6s1 .501 2.5 0c1.5-.5 1.5-2.5 0-2.5-1.5.001-19.504-6.167-19.5-7.5l-13-68h7.5l-1.5-46-12-.5v-4.5l2-1c.055-3.515-.667-5.31-2-8.5v-20l44.5 2.5c1.583 1.77 2.417 2.789 5.5 3.5 1.558-.48 2.343-.798 3.5-1.5 1.531.415 2.404.447 4 0 2.383-1.274 3.365-2.386 5-4.5l32-10.5 11.5-15v-5l-3-9-31.5 27.5-28 7-43.5-7 3-32.5-5-22c.397-1.86.433-2.839 0-4.5l2-3h7.5c2.046-3.656 2.914-5.785 3-10l3-1c-3.842-6.877-5.605-10.87-6-19 3.08-4.791 4.219-7.703 6-13z" fill="#000" fill-opacity=".1"/><path d="M334.5 131l3.5-5.5h-4.5c-2.165-3.354-3.077-5.373-3.5-9.5-1.692-.338-2.384-.726-3.5-1.5 4.574-7.967 6.39-12.455 7-20.5-1.925-1.516-2.696-2.574-3.5-5 1.171-1.806 2.39-1.835 4.5-2l14.5 35.5 1.706 30.51L385 162l5.5 34.5-7 29c-1.683.491-2.668.271-4.5-1 .506-4.507.999-7.026 2.5-11.5l-1-2-1.5-36.5-4.5-4.5-2.5-1-20.612-3.791L361.5 346l-7.5 5h-3.5c.772-3.402 1.348-5.358 3-8.5l-6-111-36 114.5-19 5h-3c-1 0-.726-1.345 0-2 8.288-3.831 11.551-6.076 18.5-10l16.5-126-4.5-1v-40l8.5-11 1.5-20.5 4.5-9.5z" fill="#000" fill-opacity=".1"/><path fill-rule="evenodd" clip-rule="evenodd" d="M215.72 212.556c1.043 1.314 2.351 4.6 2.605 6.366-1.556 1.069-4.271.394-5.792.374l-.681-5.481 3.868-1.259z" fill="#F8D5C0"/><path fill-rule="evenodd" clip-rule="evenodd" d="M212.684 213.983l3.021-1.135-.049-1.526-3.393.92.421 1.741z" fill="#fff"/><path fill-rule="evenodd" clip-rule="evenodd" d="M181.055 339.596c-.896 3.844-1.16 7.226-2.505 11.564 0 0 14.827.541 18.086.571 1.316.012.978-2.216.144-2.53-2.217-.834-7.353-5.918-7.33-9.239l-8.395-.366z" fill="#8F0AAD"/><path fill-rule="evenodd" clip-rule="evenodd" d="M171.188 222.842l57.225 1.235.858 45.926-58.122-1.261s.63-46.598.039-45.9z" fill="#2900FF"/><path fill-rule="evenodd" clip-rule="evenodd" d="M215.959 224.267l-.004-6.778-3.666.055-.437 7.042 4.107-.319z" fill="#2900FF"/><path fill-rule="evenodd" clip-rule="evenodd" d="M176.494 216.278l4.639 123.765 8.467.304 9.533-80.649 26.474 81.08 10.847-.047-24.416-133.52-34.576.429-.968 8.638z" fill="#000B44"/><path fill-rule="evenodd" clip-rule="evenodd" d="M222.621 87.128c-.082.105 7.716-13.585 5.633-15.068-2.082-1.485-8.398.37-17.743 3.324-7.859 2.486-16.763 7.136-16.944 7.287-1.433 1.198-2.337 7.147-1.597 8.928 2.27 4.454 4.756 8.722 8.027 12.307 1.222 1.125 2.302 2.691 3.21 4.775l.086-12.764 6.184-9.113s13.227.22 13.144.324z" fill="#191212"/><path fill-rule="evenodd" clip-rule="evenodd" d="M195.817 209.793l12.347-.609 4.201-29.813-4.446-5.051-12.102 35.473z" fill="#fff"/><path fill-rule="evenodd" clip-rule="evenodd" d="M212.283 125.807c-.042-.049 2.973 20.683 2.973 20.683-2.898 22.863-5.75 45.735-10.084 68.242l-.721-1.357c4.302-25.658 7.852-48.116 9.419-66.906 0 0-1.546-20.612-1.587-20.662z" fill="#C98B32"/><path fill-rule="evenodd" clip-rule="evenodd" d="M213.389 121.284l4.794 25.569c-2.189 23.354-4.608 46.398-1.909 64.19l-11.001 3.594c3.746-22.228 6.866-45.592 9.319-68.118l-2.696-20.338 1.493-4.897z" fill="#FFAB31"/><path fill-rule="evenodd" clip-rule="evenodd" d="M200.818 103.194c.413 2.972.16 7.278-.889 9.787l14.038 6.373 3.627-5.782-16.776-10.378z" fill="#F0C4B1"/><path fill-rule="evenodd" clip-rule="evenodd" d="M200.83 103.349l2.776 7.173c5.4 1.882 10.595 4.26 16.293 5.774 1.175.313 1.118.225 2.516.277 1.292-.442 1.946-2.453 2.472-3.776 1.014-2.542 1.033-2.772 1.343-5.155 1.102.16 2.132-.136 3.141-.561-4.419-5.765-6.404-13.753-6.143-21.032l-14.583-.945c-.689 4.74-3.478 7.931-7.106 10.5-2.057-.903-3.433.352-3.596 1.769-.355 3.057.652 4.861 2.887 5.976z" fill="#F8D5C0"/><path fill-rule="evenodd" clip-rule="evenodd" d="M201.162 95.024c1.606 1.02 2.338 3.688 2.495 6.344 2.834-4.53 4.663-10.774 5.078-16.675l-7.573 10.33zm135.012.108c.079.105-5.378-6.917-3.183-8.063 9.28-4.84 12.619-9.528 21.367-6.176 7.287 2.79 6.211 4.377 6.794 4.673 7.759 3.954 4.888 12.256 4.184 14.037-2.16 4.454-4.525 8.722-7.637 12.307-1.163 1.125-2.19 2.691-3.054 4.775l-.082-12.764-5.883-9.113s-12.585.22-12.506.324z" fill="#191212"/><path fill-rule="evenodd" clip-rule="evenodd" d="M356.735 111.006c-.393 2.971.07 11.243 1.069 13.751l-10.376 4.388-3.204-1.98-3.451-5.782 15.962-10.377z" fill="#F0C4B1"/><path fill-rule="evenodd" clip-rule="evenodd" d="M356.635 111.161l-2.642 7.173c-5.137 1.881-10.079 4.26-15.5 5.774-1.119.312-1.065.225-2.394.277-1.229-.442-1.852-2.453-2.352-3.776-.965-2.542-.983-2.772-1.278-5.156-1.049.161-2.028-.136-2.988-.56 4.204-5.766 6.093-13.753 5.845-21.033l13.873-.944c.657 4.74 3.309 7.931 6.762 10.5 1.956-.903 3.265.352 3.421 1.768.337 3.057-.621 4.861-2.747 5.977z" fill="#F8D5C0"/><path fill-rule="evenodd" clip-rule="evenodd" d="M356.57 102.835c-1.528 1.02-2.224 3.689-2.374 6.344-2.696-4.529-4.436-10.774-4.831-16.674l7.205 10.33z" fill="#191212"/><path fill-rule="evenodd" clip-rule="evenodd" d="M200.237 113.062l14.107 6.374-1.195 6.747-16.098-7.422 3.186-5.699z" fill="#EBEBEB"/><path fill-rule="evenodd" clip-rule="evenodd" d="M197.051 118.818c-.118-.131 16.28 37.697 16.28 37.697l1.151-10.087-1.362-20.258s-15.95-7.221-16.069-7.352z" fill="#fff"/><path fill-rule="evenodd" clip-rule="evenodd" d="M213.384 122.929c.188.74.367 1.483.356 2.302-.05.533-.282 1.038-.575 1.534l.021 22.555-1.564-2.792c-.617-7.542.535-19.511.535-19.511l.625-.754.602-3.334z" fill="#3D34BE"/><path fill-rule="evenodd" clip-rule="evenodd" d="M265.576 180.076l6.545.933 6.588-.755-.249 7.633c-1.684.599-3.355 3.692-4.047 4.096-.605.355-2.885-.482-2.885-.482l-2.573.959c-.962.524-2.95-1.429-4.067-2.84l.688-9.544z" fill="#F8D5C0"/><path fill-rule="evenodd" clip-rule="evenodd" d="M261.803 180.385l4.07-.309-.693 9.786-3.581-1.062.204-8.415z" fill="#fff"/><path fill-rule="evenodd" clip-rule="evenodd" d="M196.954 118.82c.032.1-7.419 6.29-7.419 6.29l-10.612 19.006-6.129 73.029 23.782 11.544 15.778-68.899 1.217-10.23s-16.713-31.048-16.617-30.74z" fill="#FFAB31"/><path fill-rule="evenodd" clip-rule="evenodd" d="M206.775 178.432l-2.735 12.995 1.862 4.994 3.06-15.175-2.187-2.814z" fill="#3D34BE"/><path fill-rule="evenodd" clip-rule="evenodd" d="M184.717 147.321c.913-8.079 3.858-14.49 9.156-19.048 11.506 13.331 21.169 27.405 28.718 42.334 13.601 2.049 26.782 5.213 39.814 8.779l-.145 10.521c-16.543-.329-33.037-.895-49.365-2.257-11.046-12.544-19.65-26.415-28.178-40.329z" fill="#FFBC52"/><path fill-rule="evenodd" clip-rule="evenodd" d="M225.55 340.418c.471 1.828 1.155 4.1 1.072 5.587-.068 1.226-2.49 4.155-1.272 4.319 4.574.613 28.451.831 28.451.831 2.807-.086 3.363-2.757.654-3.29-8.663-1.703-13.303-4.575-18.115-7.397l-10.79-.05z" fill="#8F0AAD"/><path fill-rule="evenodd" clip-rule="evenodd" d="M319.641 340.577c-.334 1.512-.786 2.808.089 4.14.983 2.002.85 4.348.154 6.869 0 0-23.381 1.809-27.781.479-.811-.244-.545-2.008.26-2.281.503-.172 19.365-9.576 18.633-10.599l8.645 1.392zm36.374 2.185c-1.372 2.165-2.079 4.163-2.818 6.52-.374.871-.375 1.909-.259 2.886l14 .396c.706-1.185.955-2.484.612-3.928-1.99-1.643-3.289-3.577-4.312-6.162l-7.223.288z" fill="#004F9D"/><path fill-rule="evenodd" clip-rule="evenodd" d="M328.657 203.922l-18.545 135.427 9.783 2.002 29.915-111.354 6.002 113.18 8.13-.146 8.065-138.269-43.35-.84z" fill="#00075D"/><path fill-rule="evenodd" clip-rule="evenodd" d="M278.666 180.091l2.181-.837 1.165 7.497-3.557 1.23.211-7.89zm58.992 26.504l24.014-2.23-2.578-77.007-11.392 3.557-7.885-4.286-2.149 3.203-.01 76.763z" fill="#fff"/><path fill-rule="evenodd" clip-rule="evenodd" d="M282.012 187.696l-1.501-9.234 25.607-15.821 15.56-27.573 17.523-8.028.675 88.277-16.37-3.398-.769-50.693-10.379 15.683-30.346 10.787zm76.938-60.245l-1.557 88.039 18.524.601.489-47.16 5.272 4.11 1.082 37.08 12.568 2.839.907-34.455-10.923-42.586-26.362-8.468z" fill="#6900FF"/><path fill-rule="evenodd" clip-rule="evenodd" d="M338.892 127.313l2.488-3.973 5.685 5.685-1.481 2.712-6.692-4.424zm8.222 1.69l10.34-4.841 1.619 3.213-10.414 4.264-1.545-2.636z" fill="#F0F0F0"/><path fill-rule="evenodd" clip-rule="evenodd" d="M346.011 131.657l1.394-2.561 1.476 2.526-1.24.218 3.85 53.578-2.631 5.92-3.39-5.949 1.771-53.531-1.23-.201z" fill="#02003F"/><path fill-rule="evenodd" clip-rule="evenodd" d="M389.461 231.067l.144-6.135 1.747-.042.078 6.143-1.969.034z" fill="#383D52"/><path fill-rule="evenodd" clip-rule="evenodd" d="M393.028 216.284l-7.921-2.495c-.341.785-.191 2.628-.152 3.455.062 1.296-1.284 5.792-1.807 7.292-.439 1.261-.387 2.127.562 2.419 1.872.574 9.686 1.649 11.135-1.527 1.401-3.067-1.817-9.144-1.817-9.144z" fill="#F8D5C0"/><path fill-rule="evenodd" clip-rule="evenodd" d="M383.705 209.267l.076 4.715 10.688 3.466-.042-5.557-10.722-2.624z" fill="#fff"/><path fill-rule="evenodd" clip-rule="evenodd" d="M385.624 230.007l.257-7.584 1.843.034.307 7.535 7.426.107-1.043 34.685-15.231-.028 1.229-34.697 5.212-.052z" fill="#424D67"/><path d="M395.291 230.321l-6.241-.087-.482 34.723 6.241.087.482-34.723z" fill="#383D52"/><path d="M396.938 245.92l-2.132-.063-.163 5.545 2.132.063.163-5.545z" fill="#9B9EB1"/><ellipse cx="494.783" cy="91.359" rx="61.149" ry="60.454" transform="rotate(19.44 494.783 91.36)" fill="url(#paint3_linear)" fill-opacity=".1"/><ellipse cx="500.783" cy="88.359" rx="61.149" ry="60.454" transform="rotate(19.44 500.783 88.36)" fill="url(#paint4_linear)"/><ellipse cx="77.783" cy="304.359" rx="61.149" ry="60.454" transform="rotate(19.44 77.783 304.359)" fill="url(#paint5_linear)"/><rect x="480" y="103.477" width="53" height="9" rx="4.5" transform="rotate(-45 480 103.477)" fill="#fff"/><circle cx="488.5" cy="74.5" r="9.5" fill="#fff"/><circle cx="515.5" cy="101.5" r="9.5" fill="#fff"/><circle cx="81" cy="73" r="37" fill="#E1EDFF"/><circle cx="629.5" cy="202.5" r="67.5" fill="url(#paint6_linear)"/><g clip-path="url(#clip0)"><path d="M94.718 325.722H60.282a1.968 1.968 0 01-1.967-1.968v-5.826a7.052 7.052 0 014.171-6.431c7.37-3.291 6.967-3.179 7.54-3.179h2.34c.905 0 1.694.618 1.91 1.497.825 3.352 5.622 3.354 6.448 0a1.968 1.968 0 011.91-1.497c2.517 0 2.647-.05 3.141.17l6.739 3.009a7.052 7.052 0 014.172 6.431v5.826a1.968 1.968 0 01-1.968 1.968zm-17.17-46.445c-6.627 0-12.02 5.392-12.02 12.02 0 6.627 5.392 12.019 12.02 12.019 6.628 0 12.02-5.392 12.02-12.019 0-6.628-5.392-12.02-12.02-12.02zm-18.96 12.857c-4.174 0-7.569 3.395-7.569 7.568s3.395 7.568 7.568 7.568 7.568-3.395 7.568-7.568-3.395-7.568-7.568-7.568zm37.825 0c-4.173 0-7.568 3.395-7.568 7.568s3.395 7.568 7.568 7.568 7.568-3.395 7.568-7.568-3.395-7.568-7.568-7.568zm8.746 18.026c-4.094-1.828-3.996-1.847-4.556-1.847-2.932 0-4.849-.02-6.146-.027-1.29-.006-1.716 1.723-.574 2.32.936.489 1.503.907 2.178 1.643 1.968 2.137 2.151 4.4 2.15 6.275a1.23 1.23 0 001.23 1.229h6.591a1.969 1.969 0 001.968-1.968v-3.245a4.802 4.802 0 00-2.841-4.38zm-50.762-1.847c-.557 0-.447.012-4.556 1.847A4.803 4.803 0 0047 314.54v3.245c0 1.086.88 1.968 1.968 1.968h6.59c.68 0 1.23-.55 1.23-1.23-.002-1.882.175-4.128 2.151-6.274.671-.733 1.244-1.154 2.159-1.634 1.14-.599.718-2.323-.57-2.321-1.304.002-3.221.019-6.13.019z" fill="#fff"/></g><defs><linearGradient id="paint0_linear" x1="212.5" y1="422" x2="461" y2="346.5" gradientUnits="userSpaceOnUse"><stop stop-color="#8C70FF"/><stop offset="1" stop-color="#469BFF"/></linearGradient><linearGradient id="paint1_linear" x1="444.382" y1="75.443" x2="166.976" y2="276.813" gradientUnits="userSpaceOnUse"><stop stop-color="#459CFF"/><stop offset="1" stop-color="#7956ED"/></linearGradient><linearGradient id="paint2_linear" x1="511.593" y1="190.692" x2="511.593" y2="260.009" gradientUnits="userSpaceOnUse"><stop stop-color="#524B91"/><stop offset="1" stop-color="#B892B4"/></linearGradient><linearGradient id="paint3_linear" x1="494.783" y1="30.905" x2="494.783" y2="151.813" gradientUnits="userSpaceOnUse"><stop/><stop offset="1" stop-color="#CD66C9"/></linearGradient><linearGradient id="paint4_linear" x1="500.783" y1="27.905" x2="500.783" y2="148.813" gradientUnits="userSpaceOnUse"><stop stop-color="#4E9FFF"/><stop offset="0" stop-color="#F3F579"/><stop offset="1" stop-color="#C55CC7"/></linearGradient><linearGradient id="paint5_linear" x1="77.783" y1="243.905" x2="77.783" y2="364.813" gradientUnits="userSpaceOnUse"><stop offset="0" stop-color="#F8775B"/><stop offset="1" stop-color="#4E9FFF"/><stop offset="1" stop-color="#C55CC7"/></linearGradient><linearGradient id="paint6_linear" x1="595.5" y1="157.5" x2="662" y2="242.5" gradientUnits="userSpaceOnUse"><stop stop-color="#F2E5F4"/><stop offset="1" stop-color="#8EBFFF"/></linearGradient><clipPath id="clip0"><path fill="#fff" transform="translate(47 272)" d="M0 0h61v61H0z"/></clipPath></defs></svg>