<svg width="24" height="24" fill="none" xmlns="http://www.w3.org/2000/svg"><path d="M1.488 12.152a11 11 0 111.436 5.434" stroke="#fff"/><path d="M3.532 17.63l-.868.5-.25-.435a.5.5 0 01.867-.5l.25.435zM.989 12.15h1v.503a.5.5 0 01-1 0v-.503z" fill="#fff"/><path d="M20.992 19v-5a1 1 0 00-1-1h-16" stroke="#fff"/><path d="M2.992 17.5V16a1 1 0 011-1h16" stroke="#fff"/><path d="M17.992 5h-11v6h11V5z" fill="#8F6DFF"/><path d="M6.992 11V6a1 1 0 011-1h9a1 1 0 011 1v4a1 1 0 01-1 1h-5.25a.75.75 0 000 1.5h2.25" stroke="#fff"/><path d="M8.492 7a.5.5 0 100-1 .5.5 0 000 1z" fill="#fff"/></svg>