<svg width="24" height="24" fill="none" xmlns="http://www.w3.org/2000/svg"><path d="M6.867 17.96l-1 3 2 1 5 1 5-2-1-3-3-1.5-3-.5-4 2z" fill="#8F6DFF"/><path d="M22.871 11.96a11 11 0 11-1.436-5.434" stroke="#fff"/><path d="M20.828 6.481l.867-.5.251.435a.5.5 0 01-.867.5l-.25-.435zm2.543 5.48h-1v-.502a.5.5 0 011 0v.502z" fill="#fff"/><path d="M18.367 12.46a2 2 0 100-4 2 2 0 000 4zm-13 0a2 2 0 100-4 2 2 0 000 4z" stroke="#fff"/><path d="M11.867 14.46a4.5 4.5 0 100-9 4.5 4.5 0 000 9z" fill="#8F6DFF" stroke="#fff"/><path d="M17.867 20.96c0-.657-.155-1.307-.457-1.913a5.049 5.049 0 00-1.3-1.623 6.193 6.193 0 00-1.947-1.083 7.055 7.055 0 00-2.296-.381c-.788 0-1.568.13-2.296.38a6.2 6.2 0 00-1.946 1.084c-.558.465-1 1.016-1.301 1.623a4.288 4.288 0 00-.457 1.913" stroke="#fff"/><path d="M8.867 16.96c0-.394-.09-.784-.267-1.148a3.016 3.016 0 00-.758-.973 3.59 3.59 0 00-1.136-.65 4.013 4.013 0 00-1.34-.229c-.459 0-.914.078-1.339.228a3.59 3.59 0 00-1.135.65c-.325.28-.583.61-.759.974-.09.188-.221.45-.266.648m13 .5c0-.394.09-.784.267-1.148.175-.364.433-.695.758-.973.325-.279.711-.5 1.136-.65a4.029 4.029 0 012.679-.001c.425.151.81.372 1.136.65.325.28.582.61.758.974.091.188.222.45.266.648" stroke="#fff"/></svg>