<svg width="24" height="24" fill="none" xmlns="http://www.w3.org/2000/svg"><path d="M23 12a11 11 0 11-1.436-5.434" stroke="#fff"/><path d="M20.96 6.522l.864-.498.251.435a.498.498 0 01-.863.498l-.251-.435zm2.54 5.479h-1v-.502a.5.5 0 011 0v.502z" fill="#fff"/><path d="M18 21c0-.657-.155-1.307-.457-1.913a5.049 5.049 0 00-1.3-1.622 6.194 6.194 0 00-1.947-1.084A7.055 7.055 0 0012 16c-.788 0-1.568.13-2.296.38-.728.252-1.39.62-1.947 1.085a5.033 5.033 0 00-1.3 1.622A4.287 4.287 0 006 21" stroke="#fff"/><path d="M12 14.5a4.5 4.5 0 100-9 4.5 4.5 0 000 9z" fill="#8F6DFF" stroke="#fff"/><path d="M7.5 17.5L6 21c2.072 1.309 3.398 1.722 6 2l6-1.5V20l-2-3-4.5-1-4 1.5z" fill="#fff"/></svg>