<svg width="24" height="24" fill="none" xmlns="http://www.w3.org/2000/svg"><path d="M8 6.5a.5.5 0 00-1 0v11a.5.5 0 001 0v-11zm4 0a.5.5 0 00-1 0v11a.5.5 0 001 0v-11zm4 0a.5.5 0 00-1 0v11a.5.5 0 001 0v-11z" fill="#C1C1C1"/><path d="M7.5 9a1.5 1.5 0 100-3 1.5 1.5 0 000 3zm4 4a1.5 1.5 0 100-3 1.5 1.5 0 000 3zm4-3a1.5 1.5 0 100-3 1.5 1.5 0 000 3z" fill="#fff"/><path d="M7.5 8a.5.5 0 100-1 .5.5 0 000 1zm4 4a.5.5 0 100-1 .5.5 0 000 1zm4-3a.5.5 0 100-1 .5.5 0 000 1z" fill="#8F6DFF"/><path d="M11.735.984A11 11 0 116.3 2.42" stroke="#fff"/><path d="M6.254 3.028l-.5-.868.435-.25a.5.5 0 01.5.867l-.435.25zM11.735.485v1h-.502a.5.5 0 010-1h.502z" fill="#fff"/></svg>