<svg width="24" height="25" fill="none" xmlns="http://www.w3.org/2000/svg"><path d="M12.001 1.5a11 11 0 11-5.428 1.46" stroke="#fff"/><path d="M6.531 3.568l-.504-.865.434-.253a.5.5 0 01.504.865l-.434.253zM12.002 1l.004 1-.502.002a.5.5 0 01-.004-1L12.002 1z" fill="#fff"/><path d="M15.309 11.247h-7a.5.5 0 100 1h7a.5.5 0 000-1zm-4 2h-3a.5.5 0 100 1h3a.5.5 0 000-1zm4-4h-3a.5.5 0 000 1h3a.5.5 0 000-1zm0 4h-2a.5.5 0 100 1h2a.5.5 0 000-1zm0 2h-7a.5.5 0 100 1h7a.5.5 0 000-1z" fill="#8F6DFF"/><path d="M6.809 9.676h3.636V6.247M6.809 9.676v8.571h10v-12h-6.364L6.809 9.676zm0 0l3.636-3.429-3.636 3.429z" stroke="#fff"/><path d="M2.632 12.07a.25.25 0 000 .354l1.59 1.591a.25.25 0 10.354-.354l-1.414-1.414 1.414-1.414a.25.25 0 00-.353-.354L2.632 12.07zm2.177-.073h-2v.5h2v-.5zm16.176.427a.25.25 0 000-.354l-1.59-1.59a.25.25 0 00-.354.353l1.414 1.414-1.414 1.415a.25.25 0 10.353.353l1.591-1.591zm-2.176.073h2v-.5h-2v.5z" fill="#fff"/></svg>