<svg width="24" height="24" fill="none" xmlns="http://www.w3.org/2000/svg"><path d="M11.735.983A11 11 0 116.3 2.42" stroke="#fff"/><path d="M6.254 3.027l-.5-.868.435-.25a.5.5 0 01.5.867l-.435.25zM11.735.484v1h-.502a.5.5 0 010-1h.502z" fill="#fff"/><path d="M19.332 8.536L15.797 5 4.483 16.314l3.536 3.535L19.332 8.536z" fill="#D7D7D7"/><path d="M18.625 9.242l-2.121-2.12-.707.706 2.121 2.122.707-.708zm-4.242 4.244l-2.121-2.122-.707.707 2.12 2.122.708-.707zm-4.246 4.242l-2.121-2.122-.707.708 2.12 2.12.708-.706zm1.413-1.414l-1.413-1.415-.707.708 1.414 1.414.707-.707zm1.415-1.414l-1.414-1.415-.707.708 1.414 1.414.707-.707zm2.832-2.829l-1.414-1.414-.707.707 1.414 1.414.707-.707zm1.414-1.414l-1.414-1.414-.707.707 1.414 1.415.707-.708z" fill="#8F6DFF"/><path d="M6.394 8.66L5.359 5.875l2.785 1.034 8.593 8.593-.875.875-.876.875L6.394 8.66zm9.466 9.468l1.75-1.75.521.521a.5.5 0 010 .708l-1.043 1.043a.5.5 0 01-.707 0l-.522-.522z" fill="#fff"/><path d="M16.735 15.5l-1.75 1.751.875.875 1.75-1.75-.875-.875z" fill="#8F6DFF"/></svg>