<svg width="24" height="24" fill="none" xmlns="http://www.w3.org/2000/svg"><path d="M12 9l8 2v8.5L17 22l-5 1V9z" fill="#8F6DFF"/><path d="M23 12a11 11 0 11-1.436-5.434M8.072 4.929l.786 1.178M8.072 4.93L5.715 7.286V20.25l3.143 1.965V6.107L8.072 4.93zm0 0l7.857 2.357v.786L8.858 6.107 8.072 4.93z" stroke="#fff"/><path d="M5.715 7.285L8.072 4.93l.786 1.178-.393 15.715-2.75-1.965V7.285z" fill="#fff"/><path d="M15.888 7.18L8.2 4.928l-.193.659 7.69 2.25.192-.659zm-6.243 3.25l2.357-1.573.785.786V23l-3.142.001V10.43z" fill="#fff"/><path d="M12 8.857L20 11v.5l-8-1.745v-.898zm1.578 2.749l6.282 1.163v1.553l-6.278-1.12-.004-1.596zm-.004 2.17l6.287 1.222.002 1.62-6.283-1.176-.006-1.666zm0 2.358l6.286 1.178v1.572l-6.282-1.135-.004-1.615zm7.386-9.612l.864-.498.251.435a.498.498 0 01-.863.498l-.251-.435zm2.54 5.479h-1v-.502a.5.5 0 011 0v.502z" fill="#fff"/></svg>