<svg width="37" height="37" fill="none" xmlns="http://www.w3.org/2000/svg"><path d="M18.602 13.8l12.8 3.2v13.6l-4.8 4-8 1.6V13.8z" fill="#8F6DFF"/><path d="M36.2 18.6a17.6 17.6 0 11-2.298-8.695m-21.588-2.62l-3.771 3.771V31.8l5.029 3.143V9.171m-1.258-1.886l12.572 3.771v1.258L13.572 9.17m-1.258-1.886l1.258 1.886" stroke="#fff" stroke-width="1.6"/><path d="M8.543 11.056l3.771-3.77 1.258 1.885-.63 25.142-4.399-3.143V11.056z" fill="#fff"/><path fill="#fff" d="M12.52 7.285l12.302 3.6-.309 1.055-12.302-3.6zm2.312 8.802l3.771-2.516 1.257 1.257V36.2l-5.028.001V16.087z"/><path d="M18.602 13.571L31.402 17v.8l-12.8-2.791v-1.437zm2.52 4.399l10.05 1.86v2.484l-10.045-1.79-.005-2.554zm-.004 3.472l10.059 1.955.003 2.593-10.053-1.883-.01-2.665zm0 3.772L31.175 27.1v2.514L21.125 27.8l-.007-2.585zm11.82-15.378l1.381-.796.55.954a.498.498 0 01-.183.68l-.518.3a.498.498 0 01-.68-.184l-.55-.954zM37 18.6h-1.6v-1.102a.5.5 0 01.5-.498h.602a.5.5 0 01.499.499L37 18.601z" fill="#fff"/></svg>