<svg width="37" height="37" fill="none" xmlns="http://www.w3.org/2000/svg"><path d="M28.5 33c0-1.074.066-1.412-.427-2.404a8.26 8.26 0 00-2.129-2.655 10.139 10.139 0 00-3.185-1.773 11.544 11.544 0 00-3.757-.623c-1.29 0-2.566.211-3.757.623a10.139 10.139 0 00-3.186 1.773 8.26 8.26 0 00-2.128 2.655 7.016 7.016 0 00-.747 3.13" stroke="#fff"/><circle cx="19.002" cy="15.727" r="7.182" fill="#8F6DFF" stroke="#fff" stroke-width="2"/><path d="M11.638 28L9 33c3.391 2.142 5.743 3.046 10 3.5l9.82-3v-1.41l-3.273-4.909-7.363-1.636-6.546 2.454z" fill="#fff"/><path d="M36.2 18.6a17.6 17.6 0 11-2.298-8.695" stroke="#fff" stroke-width="1.6"/><path d="M32.93 9.834l1.387-.8.55.955a.498.498 0 01-.182.68l-.525.302a.498.498 0 01-.68-.183l-.55-.954zM37 18.6h-1.6v-1.102c0-.275.224-.498.499-.498h.603a.5.5 0 01.499.499L37 18.601z" fill="#fff"/></svg>