<svg width="37" height="38" fill="none" xmlns="http://www.w3.org/2000/svg"><path d="M1.115 19.001a17.425 17.425 0 112.275 8.608" stroke="#fff" stroke-width="1.6"/><path d="M4.355 27.68l-1.373.792-.543-.941a.498.498 0 01.183-.68l.51-.295a.498.498 0 01.681.183l.542.94zM.324 19h1.584v1.087a.498.498 0 01-.499.498H.822a.498.498 0 01-.498-.5V19z" fill="#fff"/><path d="M32.008 29.85v-8.505a1 1 0 00-1-1H5.078" stroke="#fff" stroke-width="1.6"/><path d="M3.496 27.474v-2.96a1 1 0 011-1h25.929" stroke="#fff" stroke-width="1.6"/><path fill="#8F6DFF" d="M9.832 7.673h17.425v9.504H9.832z"/><path d="M9.832 17.177V8.673a1 1 0 011-1h15.425a1 1 0 011 1v7.504a1 1 0 01-1 1h-9.089a1 1 0 00-1 1v.376a1 1 0 001 1h3.752" stroke="#fff" stroke-width="1.6"/><circle cx="12.206" cy="10.049" r=".792" fill="#fff"/></svg>