<svg width="24" height="24" fill="none" xmlns="http://www.w3.org/2000/svg"><path d="M12 .5a11 11 0 11-5.434 1.437" stroke="#fff"/><path d="M6.52 2.544l-.5-.867.434-.25a.5.5 0 01.5.866l-.434.251zM12 .001v1h-.502a.5.5 0 010-1H12z" fill="#fff"/><g clip-path="url(#clip0)"><path d="M7 12.5L6 16h12l-1.5-3-1.5-.5-1.5-4-1 1-.5 1-.5-.5-1.5.5L9 12l-2 .5z" fill="#8F6DFF"/><path d="M18.774 16.645h-.226v-.677a.226.226 0 00-.225-.226h-.087l-1.518-3.036a.226.226 0 00-.13-.114l-1.26-.42-1.521-3.477V6.71h.903v.677c0 .125.1.226.225.226h3.162a.226.226 0 00.202-.327l-.401-.802.4-.802a.226.226 0 00-.201-.327h-1.58v-.678a.226.226 0 00-.227-.225h-2.483V4h-.452v.452h-.226c-.125 0-.226.1-.226.225v1.807c0 .125.101.226.226.226h.226v1.904l-1.02.612a.226.226 0 00-.086.092l-.433.867-.054-.16a.225.225 0 00-.25-.151l-1.356.226a.225.225 0 00-.143.087L8.714 11.92l-1.488.212a.226.226 0 00-.183.156l-1.08 3.455h-.286c-.124 0-.225.1-.225.226v.677h-.226a.226.226 0 00-.226.226v.903c0 .125.101.226.226.226h13.548c.125 0 .226-.1.226-.226v-.903a.226.226 0 00-.226-.226zM16.516 6.484v-.678h1.215l-.288.577a.225.225 0 000 .202l.288.576h-2.57V6.71h1.13a.226.226 0 00.225-.226zm-3.161-1.58h2.71v1.354h-2.71V4.903zm-.73 4.675l.852-.511 1.477 3.377a.225.225 0 00.136.124l1.266.422 1.375 2.75h-2.423l-.844-1.897a.226.226 0 00-.144-.126l-1.466-.418-.836-2.508.606-1.213zM7.43 12.558l1.44-.205a.225.225 0 00.148-.089l1.3-1.734 1.076-.179 1.068 3.204c.024.07.08.125.152.146l1.48.422.719 1.619H6.436l.995-3.184zm-1.528 3.636h12.194v.451H5.903v-.451zm12.645 1.354H5.452v-.451h13.096v.451z" fill="#fff"/><path d="M5.903 12.58a.904.904 0 00.903-.903.89.89 0 00-.107-.417l1.873-1.31a.904.904 0 001.396-.756.892.892 0 00-.12-.44l1.228-1.052a.893.893 0 00.472.137.904.904 0 000-1.807.904.904 0 00-.903.903c0 .16.046.31.12.44L9.536 8.427a.893.893 0 00-.472-.137.904.904 0 00-.904.904c0 .15.041.291.107.417l-1.872 1.31a.904.904 0 10-.492 1.659zm5.645-6.096a.452.452 0 110 .904.452.452 0 010-.904zM9.065 8.742a.452.452 0 11-.001.904.452.452 0 010-.904zm-3.162 2.484a.452.452 0 110 .904.452.452 0 010-.904zm5.408.374a.226.226 0 00-.267-.142l-.903.226.11.438.705-.176.834 2.292c.02.054.06.099.11.125l.904.452.202-.404-.823-.411-.872-2.4z" fill="#fff"/></g><defs><clipPath id="clip0"><path fill="#fff" transform="translate(5 4)" d="M0 0h14v14H0z"/></clipPath></defs></svg>