<svg width="24" height="24" fill="none" xmlns="http://www.w3.org/2000/svg"><path d="M19.129 7.293h-16a2 2 0 00-2 2v5a2 2 0 002 2h16a2 2 0 002-2v-5a2 2 0 00-2-2z" fill="#8F6DFF"/><path d="M4.846 8.825h.414L3.484 14.44H3.07l1.776-5.614zm3.305 1.44c0 .2-.012.388-.037.563h.045c.13-.205.305-.36.525-.465.225-.105.467-.158.727-.158.49 0 .858.118 1.103.353.245.23.367.602.367 1.117v2.618h-.652V11.72c0-.645-.3-.967-.9-.967-.45 0-.76.127-.93.382-.165.25-.248.61-.248 1.08v2.078h-.66v-5.7h.66v1.672zm5.094 3.563c.1 0 .202-.008.307-.023.105-.02.19-.04.255-.06v.503a1.05 1.05 0 01-.3.082c-.13.025-.255.038-.375.038a1.6 1.6 0 01-.585-.105.924.924 0 01-.427-.383c-.11-.18-.165-.432-.165-.757v-2.34h-.57v-.315l.577-.263.263-.855h.39v.923h1.162v.51h-1.162v2.325c0 .245.057.427.172.547.12.115.273.173.458.173zm2.485 0c.1 0 .202-.008.307-.023.105-.02.19-.04.255-.06v.503a1.05 1.05 0 01-.3.082c-.13.025-.255.038-.375.038a1.6 1.6 0 01-.585-.105.924.924 0 01-.427-.383c-.11-.18-.165-.432-.165-.757v-2.34h-.57v-.315l.577-.263.263-.855h.39v.923h1.162v.51H15.1v2.325c0 .245.057.427.172.547.12.115.273.173.458.173zm3.055-3.63c.495 0 .892.172 1.192.517.305.345.458.865.458 1.56 0 .685-.153 1.205-.458 1.56-.3.355-.7.533-1.2.533-.31 0-.567-.058-.772-.173-.2-.12-.358-.257-.473-.412h-.045c.01.085.02.192.03.322.01.13.015.243.015.338v1.65h-.66v-5.82h.54l.09.547h.03c.12-.175.278-.322.473-.442.195-.12.455-.18.78-.18zm-.12.555c-.41 0-.7.115-.87.345-.165.23-.253.58-.263 1.05v.127c0 .495.08.878.24 1.148.165.265.468.397.908.397.245 0 .445-.067.6-.202.16-.135.277-.318.352-.548.08-.235.12-.502.12-.802 0-.46-.09-.828-.27-1.103-.175-.275-.447-.412-.817-.412z" fill="#F2F4F9"/><path d="M11.863 1.278A11 11 0 116.43 2.714" stroke="#fff"/><path d="M6.383 3.322l-.5-.868.434-.25a.5.5 0 01.5.867l-.434.25zM11.864.779v1h-.503a.5.5 0 010-1h.503z" fill="#fff"/></svg>