<svg width="24" height="24" fill="none" xmlns="http://www.w3.org/2000/svg"><path d="M23 12a11 11 0 11-1.436-5.434" stroke="#fff"/><path d="M20.957 6.521l.867-.5.25.435a.5.5 0 01-.866.5l-.251-.435zm2.543 5.48h-1v-.502a.5.5 0 011 0v.502z" fill="#fff"/><path d="M11 7.5H5a.5.5 0 00-.5.5v8a.5.5 0 00.5.5h6a.5.5 0 00.5-.5V8a.5.5 0 00-.5-.5z" stroke="#fff"/><path d="M20.75 17V7a.75.75 0 00-.75-.75H4a.75.75 0 00-.75.75v10c0 .414.336.75.75.75h16a.75.75 0 00.75-.75z" stroke="#fff" stroke-width=".5"/><path d="M10 16a2 2 0 00-4 0" stroke="#fff"/><path d="M8 12.5a1.5 1.5 0 100-3 1.5 1.5 0 000 3z" fill="#8F6DFF" stroke="#fff"/><path d="M19.5 8h-6a.5.5 0 000 1h6a.5.5 0 000-1z" fill="#A2A2A2"/><path d="M19.5 10h-6a.5.5 0 000 1h6a.5.5 0 000-1z" fill="#fff"/><path d="M19.5 12h-6a.5.5 0 000 1h6a.5.5 0 000-1z" fill="#A2A2A2"/><path d="M19.5 14h-6a.5.5 0 000 1h6a.5.5 0 000-1z" fill="#fff"/></svg>