<svg width="24" height="24" fill="none" xmlns="http://www.w3.org/2000/svg"><path d="M11.735.982A11 11 0 116.3 2.42" stroke="#fff"/><path d="M6.254 3.026l-.5-.867.435-.251a.5.5 0 01.5.867l-.435.25zM11.735.483v1h-.502a.5.5 0 010-1h.502z" fill="#fff"/><path d="M8 15a2 2 0 00-4 0" stroke="#fff"/><path d="M6 11.5a1.5 1.5 0 100-3 1.5 1.5 0 000 3z" fill="#8F6DFF" stroke="#fff"/><path d="M8 14H4v1h4v-1z" fill="#fff"/><path d="M14 15a2 2 0 10-4 0" stroke="#fff"/><path d="M12 11.5a1.5 1.5 0 100-3 1.5 1.5 0 000 3z" fill="#8F6DFF" stroke="#fff"/><path d="M14 14h-4v1h4v-1z" fill="#fff"/><path d="M20 15a2 2 0 10-4 0" stroke="#fff"/><path d="M18 11.5a1.5 1.5 0 100-3 1.5 1.5 0 000 3z" fill="#8F6DFF" stroke="#fff"/><path d="M20 14h-4v1h4v-1zm-.5 2h-15a.5.5 0 000 1h15a.5.5 0 000-1z" fill="#fff"/></svg>