<svg width="24" height="24" fill="none" xmlns="http://www.w3.org/2000/svg"><path d="M11.735.983A11 11 0 116.3 2.42" stroke="#fff"/><path d="M6.254 3.027l-.5-.868.435-.25a.5.5 0 01.5.867l-.435.25zM11.735.484v1h-.502a.5.5 0 010-1h.502z" fill="#fff"/><path d="M19.135 11.933L19 11.665l-.134.268-1 2-.108.217h2.485l-.108-.217-1-2z" fill="#8F6DFF" stroke="#fff" stroke-width=".3"/><path d="M7 9h8v4.81c0 2.92-8 2.92-8 0V9z" fill="#C4C4C4"/><path d="M11 7l-8 3 7 4 9-4-8-3z" fill="#fff"/><path d="M8 18.349a7.963 7.963 0 004 1.07c1.457 0 2.823-.39 4-1.07M16 5.07A7.963 7.963 0 0012 4c-1.457 0-2.823.39-4 1.07" stroke="#8F6DFF"/></svg>