<svg width="24" height="24" fill="none" xmlns="http://www.w3.org/2000/svg"><path d="M17.613 11a5 5 0 11-10 0 5 5 0 0110 0z" fill="#8F6DFF"/><path d="M9.113 8.5l2.5 1.5 1-1 1 .5 2-1.5" stroke="#FCFCFC" stroke-width=".5"/><path d="M8.544 13.94a.483.483 0 01.691.084l.129.168a.518.518 0 01-.043.673l-4.633 4.736a.483.483 0 01-.725-.03l-.622-.76a.517.517 0 01.076-.726l5.127-4.145z" fill="#DCDCDC"/><path d="M11.73.983A11 11 0 116.297 2.42" stroke="#fff"/><path d="M6.25 3.027l-.5-.868.435-.25a.5.5 0 01.5.867l-.435.25zM11.73.484v1h-.501a.5.5 0 010-1h.502z" fill="#fff"/><path d="M15.613 9l-.996.75V16l1-.43L15.613 9zm-7 0l1 .727V16l-1-.857V9zm4 .816l1 .471V16h-1V9.816zm-1 1.041l-1-.591V16h1v-5.143z" fill="#C4C4C4"/><path d="M7.866 13.63A5.33 5.33 0 1017.1 8.298a5.33 5.33 0 00-9.233 5.33z" stroke="#fff"/></svg>