<svg width="24" height="24" fill="none" xmlns="http://www.w3.org/2000/svg"><path d="M11.735.983A11 11 0 116.3 2.42" stroke="#fff"/><path d="M6.254 3.027l-.5-.868.435-.25a.5.5 0 01.5.867l-.435.25zM11.735.484v1h-.502a.5.5 0 010-1h.502z" fill="#fff"/><path d="M15 6.5H5a.5.5 0 00-.5.5v10a.5.5 0 00.5.5h10a.5.5 0 00.5-.5V7a.5.5 0 00-.5-.5z" fill="#fff" stroke="#fff"/><path d="M14 8H6v1h8V8zm0 4H6v1h8v-1zm-5-2H6v1h3v-1zm5 0h-4v1h4v-1zm-3 5h3v-1h-3v1zm-5 0h4v-1H6v1z" fill="#8F6DFF"/><path d="M17 7.818L18 6l1 1.818V16h-2V7.818zM17 17h2v.5a.5.5 0 01-.5.5h-1a.5.5 0 01-.5-.5V17z" fill="#fff"/><path d="M19 16h-2v1h2v-1z" fill="#8F6DFF"/></svg>