<svg width="25" height="24" fill="none" xmlns="http://www.w3.org/2000/svg"><path d="M1.742 11.763a11 11 0 111.316 5.464" stroke="#fff"/><path d="M3.66 17.284l-.873.479-.241-.44a.498.498 0 01.874-.479l.24.44zm-2.418-5.533l1 .023-.012.501a.5.5 0 01-1-.023l.012-.501z" fill="#fff"/><path d="M18 5.5H7a.5.5 0 00-.5.5v11a.5.5 0 00.5.5h11a.5.5 0 00.5-.5V6a.5.5 0 00-.5-.5z" fill="#8F6DFF" stroke="#fff"/><path d="M9.87 9.06l-.932-.933a.443.443 0 10-.626.626l.932.932a.443.443 0 10.626-.626z" fill="#fff"/><path d="M9.865 9.686l1.748-1.748a.443.443 0 00-.626-.626L9.239 9.06a.443.443 0 00.626.626zM13 8.5a.5.5 0 01.5-.5h3a.5.5 0 010 1h-3a.5.5 0 01-.5-.5zm-3.13 3.56l-.932-.932a.443.443 0 00-.626.626l.932.932a.443.443 0 00.626-.626z" fill="#fff"/><path d="M9.865 12.687l1.748-1.748a.443.443 0 10-.626-.626l-1.748 1.748a.443.443 0 10.626.626zM13 11.5a.5.5 0 01.5-.5h3a.5.5 0 010 1h-3a.5.5 0 01-.5-.5zm-3.13 3.56l-.932-.932a.443.443 0 00-.626.626l.932.932a.443.443 0 00.626-.626z" fill="#fff"/><path d="M9.865 15.687l1.748-1.748a.443.443 0 10-.626-.626l-1.748 1.748a.443.443 0 10.626.626zM13 14.5a.5.5 0 01.5-.5h3a.5.5 0 010 1h-3a.5.5 0 01-.5-.5zm-4 5a.5.5 0 01.5-.5h6a.5.5 0 010 1h-6a.5.5 0 01-.5-.5z" fill="#fff"/></svg>