<svg width="24" height="24" fill="none" xmlns="http://www.w3.org/2000/svg"><path d="M11.73.984A11 11 0 116.297 2.42" stroke="#fff"/><path d="M6.25 3.028l-.5-.868.435-.25a.5.5 0 01.5.867l-.435.25zM11.73.485v1h-.501a.5.5 0 010-1h.502z" fill="#fff"/><path d="M14 10a2 2 0 10-4 0" stroke="#fff"/><path d="M12 6.5a1.5 1.5 0 100-3 1.5 1.5 0 000 3z" fill="#8F6DFF" stroke="#fff"/><path d="M14 9h-4v1h4V9z" fill="#fff"/><path d="M19 18a2 2 0 10-4 0" stroke="#fff"/><path d="M17 14.5a1.5 1.5 0 100-3 1.5 1.5 0 000 3z" fill="#8F6DFF" stroke="#fff"/><path d="M19 17h-4v1h4v-1z" fill="#fff"/><path d="M9 18a2 2 0 00-4 0" stroke="#fff"/><path d="M7 14.5a1.5 1.5 0 100-3 1.5 1.5 0 000 3z" fill="#8F6DFF" stroke="#fff"/><path d="M9 17H5v1h4v-1z" fill="#fff"/><path d="M8 18.93A7.963 7.963 0 0012 20c1.457 0 2.823-.39 4-1.07M20 12a8.008 8.008 0 00-5-7.418l5 7.417zM4 12a8.009 8.009 0 015-7.418l-5 7.417z" stroke="#828282"/></svg>