<svg width="24" height="24" fill="none" xmlns="http://www.w3.org/2000/svg"><path d="M23 12a11 11 0 11-1.436-5.434" stroke="#fff"/><path d="M20.957 6.521l.867-.5.25.435a.5.5 0 01-.866.5l-.251-.435zm2.543 5.48h-1v-.502a.5.5 0 011 0v.502zM5 7.182L6 5l1 2.182V17H5V7.182zM5 18h2v.5a.5.5 0 01-.5.5h-1a.5.5 0 01-.5-.5V18z" fill="#fff"/><path d="M17 5.5H9a.5.5 0 00-.5.5v12a.5.5 0 00.5.5h8a.5.5 0 00.5-.5V6a.5.5 0 00-.5-.5z" stroke="#B5B5B5"/><path d="M18.5 6h-2a.5.5 0 000 1h2a.5.5 0 000-1zm0 2h-2a.5.5 0 000 1h2a.5.5 0 000-1zm0 2h-2a.5.5 0 000 1h2a.5.5 0 000-1zm0 2h-2a.5.5 0 000 1h2a.5.5 0 000-1zm0 2h-2a.5.5 0 000 1h2a.5.5 0 000-1zm0 2h-2a.5.5 0 000 1h2a.5.5 0 000-1z" fill="#fff"/><path d="M7 17H5v1h2v-1z" fill="#8F6DFF"/><path d="M14.5 9h-1a.5.5 0 000 1h1a.5.5 0 000-1zm-3 0h-1a.5.5 0 000 1h1a.5.5 0 000-1zm3 4h-1a.5.5 0 000 1h1a.5.5 0 000-1zm-3 0h-1a.5.5 0 000 1h1a.5.5 0 000-1zm3-6h-4a.5.5 0 000 1h4a.5.5 0 000-1zm0 4h-4a.5.5 0 000 1h4a.5.5 0 000-1zm0 4h-4a.5.5 0 000 1h4a.5.5 0 000-1z" fill="#fff"/></svg>