<svg width="25" height="24" fill="none" xmlns="http://www.w3.org/2000/svg"><path d="M11 3H6v3h5V3z" fill="#fff"/><path d="M12 3h5v3h-5V3zm0-2l5 1h-5V1zm6 1.5l1 .5 3 3h-4V2.5zM11 7H6v3h5V7zm6 4h-5v3h5v-3zm0 4h-5v3h5v-3zM6 19h5v4l-5-2v-2zm-2 0h1v.5h-.5L4 19zm14-4h5l-.5 3H18v-3zm0 4h3.5L20 20.5 18 22v-3zm0-12h5l.5 3H18V7zm-7 4H6v3h5v-3z" fill="#8F6DFF"/><path d="M11 7H6v3h5V7z" fill="#8F6DFF"/><path d="M11 7H6v3h5V7zM4 5l1-1v2H3.5L4 5zm5.667-4H11v1H9l.667-1z" fill="#8F6DFF"/><path d="M17 7h-5v3h5V7zm7 4h-6v3h6v-3zm-13 4H6v3h5v-3zM3 7h2v3H2l1-3zm9 12h5v3l-5 1v-4z" fill="#fff"/><path d="M1.742 11.763a11 11 0 111.316 5.464" stroke="#fff"/><path d="M3.66 17.284l-.873.479-.241-.44a.498.498 0 01.874-.479l.24.44zm-2.418-5.533l1 .023-.012.501a.5.5 0 01-1-.023l.012-.501z" fill="#fff"/></svg>