<svg width="24" height="24" fill="none" xmlns="http://www.w3.org/2000/svg"><path d="M12 .501a11 11 0 11-5.434 1.436" stroke="#fff"/><path d="M6.52 2.544l-.5-.867.434-.25a.5.5 0 01.5.867l-.435.25zM12 .001v1h-.502a.5.5 0 010-1H12z" fill="#fff"/><path d="M8.137 11.223a2 2 0 10-4 0" stroke="#fff"/><path d="M6.137 7.723a1.5 1.5 0 100-3 1.5 1.5 0 000 3z" fill="#8F6DFF" stroke="#fff"/><path d="M8.137 10.223h-4v1h4v-1z" fill="#fff"/><path d="M14.137 11.223a2 2 0 10-4 0" stroke="#fff"/><path d="M12.137 7.723a1.5 1.5 0 100-3 1.5 1.5 0 000 3z" fill="#8F6DFF" stroke="#fff"/><path d="M14.137 10.223h-4v1h4v-1z" fill="#fff"/><path d="M20.137 11.223a2 2 0 10-4 0" stroke="#fff"/><path d="M18.137 7.723a1.5 1.5 0 100-3 1.5 1.5 0 000 3z" fill="#8F6DFF" stroke="#fff"/><path d="M20.137 10.223h-4v1h4v-1z" fill="#fff"/><path d="M8.137 19.223a2 2 0 10-4 0" stroke="#fff"/><path d="M6.137 15.723a1.5 1.5 0 100-3 1.5 1.5 0 000 3z" fill="#8F6DFF" stroke="#fff"/><path d="M8.137 18.223h-4v1h4v-1z" fill="#fff"/><path d="M14.137 19.223a2 2 0 10-4 0" stroke="#fff"/><path d="M12.137 15.723a1.5 1.5 0 100-3 1.5 1.5 0 000 3z" fill="#8F6DFF" stroke="#fff"/><path d="M14.137 18.223h-4v1h4v-1z" fill="#fff"/><path d="M20.137 19.223a2 2 0 10-4 0" stroke="#fff"/><path d="M18.137 15.723a1.5 1.5 0 100-3 1.5 1.5 0 000 3z" fill="#8F6DFF" stroke="#fff"/><path d="M20.137 18.223h-4v1h4v-1z" fill="#fff"/></svg>