<svg width="33" height="33" fill="none" xmlns="http://www.w3.org/2000/svg"><g clip-path="url(#clip0)"><path d="M15.53 1.39L5.528 5.918l4.312 4.824 6.773-3.015-1.085-6.335z" fill="#FDBF00"/><path d="M16.614 2.019l.595 5.98 5.782 2.743 4.62-4.89-6.206-2.908-4.79-.925z" fill="#FF8856"/><path d="M27.915 6.545l-4.163 4.758L25.7 18.05l6.608-.371-4.394-11.135z" fill="#FF435B"/><path d="M4.637 7.041l-2.362 5.37L.92 18.05h6.294l2.925-7.991L4.637 7.04z" fill="#BEE75E"/><path d="M8.735 32.245a.97.97 0 01-.97-.97v-6.13c0-2.264 1.828-4.105 4.076-4.105h9.318c2.248 0 4.076 1.841 4.076 4.104v6.13a.97.97 0 01-.97.97l-15.53.001z" fill="#FFF4F4"/><path d="M21.159 21.04H16.5v11.205h7.765a.97.97 0 00.97-.97v-6.13c0-2.264-1.828-4.105-4.076-4.105z" fill="#F6EFEA"/><path d="M16.5 31.066a.97.97 0 01-.768-.377l-1.97-2.553a.97.97 0 01-.136-.947l1.97-5.035a.97.97 0 011.808 0l1.97 5.035a.97.97 0 01-.136.947l-1.97 2.553a.97.97 0 01-.768.377z" fill="#7DD5F4"/><path d="M28.167 5.588A16.392 16.392 0 0016.5.755 16.39 16.39 0 004.833 5.588 16.392 16.392 0 000 17.255c0 .396.015.803.044 1.208.037.508.46.9.968.9h6.671a.97.97 0 00.963-1.093 8.034 8.034 0 01-.065-1.015c0-4.366 3.553-7.919 7.92-7.919 4.365 0 7.918 3.553 7.918 7.919 0 .34-.022.68-.065 1.015a.97.97 0 00.963 1.094h6.67a.97.97 0 00.969-.901c.03-.405.044-.812.044-1.208a16.39 16.39 0 00-4.833-11.667zM6.64 17.255c0 .056 0 .112.002.167h-4.7v-.167c0-3.64 1.342-6.973 3.56-9.529l3.333 3.334a9.813 9.813 0 00-2.195 6.195zm3.558-7.577l-3.33-3.33a14.5 14.5 0 018.662-3.619v4.714a9.816 9.816 0 00-5.332 2.235zm7.273-2.235V2.729a14.5 14.5 0 018.66 3.619l-3.33 3.33a9.816 9.816 0 00-5.33-2.235zm13.587 9.98h-4.7l.002-.168c0-2.345-.823-4.5-2.195-6.195l3.334-3.334a14.497 14.497 0 013.559 9.696z" fill="#FFF4F4"/><path d="M28.167 5.588A16.392 16.392 0 0016.5.755v8.581c4.366 0 7.919 3.553 7.919 7.919 0 .34-.022.68-.065 1.015a.97.97 0 00.963 1.094h6.67a.97.97 0 00.969-.901c.03-.405.044-.812.044-1.208a16.39 16.39 0 00-4.833-11.667zM17.471 7.443V2.729a14.5 14.5 0 018.66 3.619l-3.33 3.33a9.816 9.816 0 00-5.33-2.235zm13.587 9.98h-4.7l.002-.168c0-2.345-.823-4.5-2.195-6.195l3.334-3.334a14.497 14.497 0 013.559 9.696z" fill="#F6EFEA"/><path d="M19.374 27.19l-1.97-5.036a.97.97 0 00-.904-.617v9.53c.3 0 .585-.14.768-.378l1.97-2.553a.97.97 0 00.136-.947z" fill="#4793FF"/><path d="M16.5 22.407a5.445 5.445 0 01-5.439-5.44 5.445 5.445 0 015.44-5.439 5.445 5.445 0 015.438 5.44 5.445 5.445 0 01-5.439 5.439z" fill="#FFE4C1"/><path d="M16.5 11.528v10.879c3 0 5.44-2.44 5.44-5.44a5.445 5.445 0 00-5.44-5.439z" fill="#FDD1A3"/></g><defs><clipPath id="clip0"><path fill="#fff" d="M0 0h33v33H0z"/></clipPath></defs></svg>