<svg width="84" height="82" fill="none" xmlns="http://www.w3.org/2000/svg"><path d="M2 4a2 2 0 012-2h48a2 2 0 012 2v63a2 2 0 01-2 2H4a2 2 0 01-2-2V4z" stroke="#22272F" stroke-width="4"/><path d="M10 14.8l4.125 4.2L21 12" stroke="#8F6DFF" stroke-width="3"/><rect x="25" y="14" width="21" height="3" rx="1.5" fill="#22272F"/><path d="M10 27.8l4.125 4.2L21 25" stroke="#8F6DFF" stroke-width="3"/><rect x="25" y="27" width="21" height="3" rx="1.5" fill="#22272F"/><path d="M10 40.8l4.125 4.2L21 38" stroke="#8F6DFF" stroke-width="3"/><rect x="25" y="40" width="21" height="3" rx="1.5" fill="#22272F"/><path d="M10 53.8l4.125 4.2L21 51" stroke="#8F6DFF" stroke-width="3"/><rect x="25" y="53" width="21" height="3" rx="1.5" fill="#22272F"/><circle cx="58.5" cy="56.5" r="25.5" fill="#8F6DFF"/><rect x="75.893" y="48.142" width="28.444" height="7.191" rx="3.343" transform="rotate(135 75.893 48.142)" fill="#fff"/><rect x="47.991" y="50.324" width="18.166" height="7.191" rx="3.343" transform="rotate(45 47.99 50.324)" fill="#fff"/><circle cx="58.5" cy="56.5" r="25.5" fill="#8F6DFF"/><rect x="75.893" y="48.142" width="28.444" height="7.191" rx="3.343" transform="rotate(135 75.893 48.142)" fill="#fff"/><rect x="47.991" y="50.324" width="18.166" height="7.191" rx="3.343" transform="rotate(45 47.99 50.324)" fill="#fff"/></svg>