<svg width="91" height="77" fill="none" xmlns="http://www.w3.org/2000/svg"><rect y="8" width="71" height="55" rx="3" fill="#22272F"/><path fill="#8F6DFF" d="M4 20h11v12H4z"/><path fill="#fff" d="M17 20h11v12H17zm13 0h11v12H30zm13 0h11v12H43zm13 0h11v12H56zM4 34h11v12H4zm13 0h11v12H17zm13 0h11v12H30z"/><path fill="#8F6DFF" d="M43 34h11v12H43z"/><path fill="#fff" d="M56 34h11v12H56zM4 48h11v12H4z"/><path fill="#8F6DFF" d="M17 48h11v12H17z"/><path fill="#fff" d="M30 48h11v12H30zm13 0h11v12H43zm13 0h11v12H56z"/><rect x="4.5" y=".5" width="8" height="15" rx="4" fill="#22272F" stroke="#fff"/><rect x="58.5" y=".5" width="8" height="15" rx="4" fill="#22272F" stroke="#fff"/><circle cx="66" cy="52" r="24.5" fill="#8F6DFF" stroke="#fff"/><circle cx="66" cy="52" r="21.5" fill="#fff" stroke="#22272F" stroke-width="3"/><rect x="45" y="51" width="4" height="2" rx="1" fill="#8F6DFF"/><rect x="67" y="69" width="4" height="2" rx="1" transform="rotate(90 67 69)" fill="#8F6DFF"/><rect x="55.242" y="65.414" width="4" height="2" rx="1" transform="rotate(135 55.242 65.414)" fill="#8F6DFF"/><rect x="53.828" y="40.242" width="4" height="2" rx="1" transform="rotate(-135 53.828 40.242)" fill="#8F6DFF"/><rect x="87.242" y="53" width="4" height="2" rx="1" transform="rotate(-180 87.242 53)" fill="#8F6DFF"/><rect x="77" y="38.828" width="4" height="2" rx="1" transform="rotate(-45 77 38.828)" fill="#8F6DFF"/><rect x="78.414" y="64" width="4" height="2" rx="1" transform="rotate(45 78.414 64)" fill="#8F6DFF"/><rect x="65" y="35" width="4" height="2" rx="1" transform="rotate(-90 65 35)" fill="#8F6DFF"/><circle cx="66" cy="52" r="21.5" stroke="#22272F" stroke-width="3"/><rect x="65" y="53" width="10" height="2" rx="1" transform="rotate(-90 65 53)" fill="#22272F"/><rect x="65" y="51" width="16" height="2" rx="1" fill="#22272F"/></svg>