<svg width="78" height="83" fill="none" xmlns="http://www.w3.org/2000/svg"><rect x="17" y="55" width="32" height="3" rx="1.5" fill="#22272F"/><rect x="17" y="67" width="44" height="3" rx="1.5" fill="#22272F"/><rect width="10" height="3" rx="1.5" transform="matrix(-1 0 0 1 61 55)" fill="#22272F"/><rect x="61" y="64" width="32" height="3" rx="1.5" transform="rotate(-180 61 64)" fill="#22272F"/><rect width="10" height="3" rx="1.5" transform="matrix(1 0 0 -1 17 64)" fill="#22272F"/><path d="M7 10a3 3 0 013-3h58a3 3 0 013 3v63a3 3 0 01-3 3H10a3 3 0 01-3-3V10z" stroke="#8F6DFF" stroke-width="2"/><circle cx="39" cy="32" r="18" fill="#8F6DFF"/><rect x="36" y="37" width="6" height="5" rx="2.5" fill="#8F6DFF"/><path d="M40.714 35c-1.35-.248-2.072-.335-3.428 0L35 22.982c3.073-1.325 4.826-1.293 8 0L40.714 35z" fill="#8F6DFF"/><path d="M2 4a2 2 0 012-2h70a2 2 0 012 2v75a2 2 0 01-2 2H4a2 2 0 01-2-2V4z" stroke="#22272F" stroke-width="4"/><circle cx="39" cy="32" r="18" fill="#8F6DFF"/><rect x="36" y="37" width="6" height="5" rx="2.5" fill="#fff"/><path d="M40.714 35c-1.35-.248-2.072-.335-3.428 0L35 22.982c3.073-1.325 4.826-1.293 8 0L40.714 35z" fill="#fff"/></svg>