<svg width="100" height="72" fill="none" xmlns="http://www.w3.org/2000/svg"><rect x="6" width="84" height="72" rx="10" fill="#22272F"/><rect x="10" y="4" width="76" height="64" rx="6" fill="#fff"/><ellipse cx="16" cy="14" rx="5" ry="4" fill="#22272F"/><ellipse cx="16" cy="25" rx="5" ry="4" fill="#22272F"/><ellipse cx="16" cy="36" rx="5" ry="4" fill="#22272F"/><ellipse cx="16" cy="47" rx="5" ry="4" fill="#22272F"/><ellipse cx="16" cy="58" rx="5" ry="4" fill="#22272F"/><rect x=".5" y="11.5" width="17" height="5" rx="2.5" fill="#8F6DFF" stroke="#fff"/><rect x=".5" y="22.5" width="17" height="5" rx="2.5" fill="#8F6DFF" stroke="#fff"/><rect x=".5" y="33.5" width="17" height="5" rx="2.5" fill="#8F6DFF" stroke="#fff"/><rect x=".5" y="44.5" width="17" height="5" rx="2.5" fill="#8F6DFF" stroke="#fff"/><rect x=".5" y="55.5" width="17" height="5" rx="2.5" fill="#8F6DFF" stroke="#fff"/><rect x="26" y="12" width="54" height="3" rx="1.5" fill="#22272F"/><rect x="26" y="21" width="54" height="3" rx="1.5" fill="#22272F"/><rect x="26" y="30" width="54" height="3" rx="1.5" fill="#22272F"/><rect x="26" y="39" width="54" height="3" rx="1.5" fill="#22272F"/><rect x="30.5" y="49.5" width="12" height="12" rx="2.5" stroke="#000"/><path d="M31 53.8l4.125 4.2L42 51" stroke="#8F6DFF" stroke-width="3"/><rect x="47.5" y="49.5" width="12" height="12" rx="2.5" stroke="#000"/><rect x="64.5" y="49.5" width="12" height="12" rx="2.5" stroke="#000"/><path d="M48 53.8l4.125 4.2L59 51" stroke="#8F6DFF" stroke-width="3"/><path fill="#8F6DFF" d="M92.727 19.96l7.098 5.046L80.773 51.8l-7.098-5.046zM72.89 55.303l.55-7.905 6.736 4.79-7.286 3.115z"/></svg>