<svg width="92" height="67" fill="none" xmlns="http://www.w3.org/2000/svg"><rect x="1.5" y="10.5" width="89" height="55" rx="4.5" fill="#fff" stroke="#22272F" stroke-width="3"/><path fill="#22272F" stroke="#fff" stroke-width="2" d="M28 5h37v14H28z"/><rect x="34.5" y="1.5" width="24" height="11" rx="4.5" stroke="#22272F" stroke-width="3"/><rect x="44" y="23" width="35" height="3" rx="1.5" fill="#22272F"/><rect x="44" y="40" width="35" height="3" rx="1.5" fill="#22272F"/><rect x="44" y="31" width="10" height="3" rx="1.5" fill="#22272F"/><rect x="57" y="31" width="22" height="3" rx="1.5" fill="#22272F"/><path d="M23.936 22c-5.142 0-5.538 3.636-5.538 3.636s-.896 4.126 0 6.546C19.457 35.04 20.376 38 23.936 38c3.559 0 4.35-2.545 5.537-5.818 1.186-3.273 0-6.546 0-6.546S29.077 22 23.936 22zM24 52c-2.997-3.833-4.02-7.987-4.875-13 0 0-3.242.513-4.875 1.817C10.984 43.426 11 51.719 11 51.719c10.154 3.006 15.846 3.076 26 0 0 0 .016-8.293-3.25-10.902C32.117 39.513 28.875 39 28.875 39c-1.078 5.135-2.1 9.261-4.875 13z" fill="#8F6DFF"/><rect x="22" y="39" width="4" height="2" rx="1" fill="#22272F"/><path d="M25 42h-2l-1 4.375L24 49l2-2.625L25 42z" fill="#22272F"/><path d="M49 47l1.123 3.455h3.632l-2.939 2.135 1.123 3.455L49 53.91l-2.939 2.135 1.123-3.455-2.94-2.135h3.633L49 47zm12 0l1.123 3.455h3.632l-2.939 2.135 1.123 3.455L61 53.91l-2.939 2.135 1.123-3.455-2.94-2.135h3.633L61 47zm12 0l1.123 3.455h3.632l-2.939 2.135 1.123 3.455L73 53.91l-2.939 2.135 1.123-3.455-2.94-2.135h3.633L73 47z" fill="#8F6DFF"/></svg>