<svg width="69" height="69" fill="none" xmlns="http://www.w3.org/2000/svg"><circle cx="34.5" cy="34.5" r="34.5" fill="#FA8369"/><path d="M17.5 64.5c3.354-3.613 9.636-9.513 17-9.495 7.692-.125 11.631 2.865 17 9.495m5.995-46c-.266 12.195-10.236 22-22.495 22-12.26 0-22.229-9.805-22.495-22h44.99zm-29.4 20.529l2.3 16.1M40 40l-2.704 15.272" stroke="#fff"/><path d="M18.092 32v-9.1h4.225c1.049 0 1.842.269 2.379.806.416.416.624.94.624 1.573 0 .858-.399 1.512-1.196 1.963.563.217.988.503 1.274.858.286.347.429.815.429 1.404 0 .815-.303 1.434-.91 1.859-.607.425-1.439.637-2.496.637h-4.329zm1.95-5.421h1.846c.962 0 1.443-.33 1.443-.988 0-.303-.113-.533-.338-.689-.225-.165-.55-.247-.975-.247h-1.976v1.924zm0 3.666h2.379c.945 0 1.417-.338 1.417-1.014 0-.659-.494-.988-1.482-.988h-2.314v2.002zM27.474 32v-9.1h6.864v1.781h-4.875v1.846h4.29v1.781h-4.29v1.911h4.94V32h-6.93zm11.946.13c-1.49 0-2.778-.485-3.861-1.456l1.183-1.417c.893.737 1.798 1.105 2.717 1.105.407 0 .728-.078.962-.234a.74.74 0 00.35-.65c0-.26-.12-.468-.363-.624-.243-.165-.733-.342-1.47-.533-.52-.13-.94-.256-1.26-.377a4.588 4.588 0 01-.923-.507 1.913 1.913 0 01-.637-.78c-.13-.32-.195-.702-.195-1.144 0-.823.294-1.486.884-1.989.598-.503 1.365-.754 2.3-.754 1.292 0 2.419.386 3.38 1.157l-1.04 1.508c-.857-.598-1.646-.897-2.365-.897-.373 0-.663.078-.871.234a.693.693 0 00-.3.585.72.72 0 00.378.663c.251.147.78.325 1.586.533.988.26 1.716.594 2.184 1.001.468.407.702.992.702 1.755 0 .884-.308 1.577-.923 2.08-.607.494-1.413.741-2.418.741zm7.007-.13v-7.254h-2.77V22.9h7.54v1.846H48.43V32h-2.002z" fill="#fff"/></svg>