<svg width="16" height="15" fill="none" xmlns="http://www.w3.org/2000/svg"><path d="M12.98 7.5c0-.716-.145-1.424-.428-2.082h1.286a1.592 1.592 0 00.08-3.182 1.593 1.593 0 00-3.107.033c-.32.069-.611.235-.834.475a5.271 5.271 0 00-7.453 5.64A1.596 1.596 0 001.26 9.616a1.592 1.592 0 00.333 3.149h2.694a1.587 1.587 0 001.166-.51 5.27 5.27 0 002.262.51A5.271 5.271 0 0012.98 7.5zm-1.836-4.531a.367.367 0 00.367-.367.857.857 0 111.714-.002.37.37 0 00.44.386.857.857 0 11.173 1.697h-2.694a.857.857 0 010-1.714zM4.287 12.03H1.593a.857.857 0 010-1.714.367.367 0 00.367-.367.857.857 0 011.714-.002.37.37 0 00.44.386.856.856 0 11.173 1.697zm.08-2.447A1.598 1.598 0 003.28 8.425a4.536 4.536 0 016.334-5.04 1.591 1.591 0 001.53 2.033h.596a4.53 4.53 0 01-5.924 6.196 1.59 1.59 0 00-1.45-2.03zM7.715 1.5a.367.367 0 00.368-.367V.367a.367.367 0 10-.735 0v.766a.367.367 0 00.367.367z" fill="#8F6DFF"/><path d="M4.213 2.17a.367.367 0 10.637-.368l-.383-.662a.367.367 0 00-.636.367l.382.663zM1.354 4.252l.663.383a.367.367 0 00.368-.636l-.663-.383a.367.367 0 10-.368.636zM.582 7.868h.766a.367.367 0 000-.735H.582a.367.367 0 000 .735zM7.715 13.5a.367.367 0 00-.367.367v.766a.367.367 0 00.735 0v-.766a.367.367 0 00-.368-.367zm3.502-.67a.367.367 0 10-.636.368l.382.662a.367.367 0 00.637-.367l-.383-.663zm2.859-2.082l-.663-.383a.367.367 0 00-.367.637l.663.382a.367.367 0 10.367-.636zm.772-3.615h-.766a.368.368 0 000 .735h.766a.368.368 0 000-.735z" fill="#8F6DFF"/></svg>