<svg width="14" height="14" fill="none" xmlns="http://www.w3.org/2000/svg"><path d="M7.159 3.848l.242.681c.01.03.03.053.057.064l.605.273c.086.039.086.175 0 .213l-.605.273a.11.11 0 00-.057.064l-.242.682c-.035.096-.156.096-.19 0l-.242-.682a.11.11 0 00-.057-.064l-.606-.273c-.085-.038-.085-.174 0-.213l.606-.273a.11.11 0 00.057-.064l.242-.681c.034-.097.155-.097.19 0zM1.626 1.059a.53.53 0 100-1.059.53.53 0 000 1.059zm8.871 3.044a.228.228 0 10-.444-.106.228.228 0 00.444.106zM9.86 7.829l.18.506a.081.081 0 00.041.047l.45.202c.063.029.063.13 0 .159l-.45.202a.08.08 0 00-.042.048l-.18.505c-.025.072-.115.072-.14 0l-.18-.505a.081.081 0 00-.042-.048l-.45-.202c-.063-.029-.063-.13 0-.159l.45-.202a.081.081 0 00.042-.047l.18-.506c.025-.071.115-.071.14 0z" fill="#8F6DFF"/><path d="M6.585 13.775a6.542 6.542 0 01-4.66-1.932A6.542 6.542 0 010 7.181a6.536 6.536 0 011.958-4.667A6.538 6.538 0 016.646.604a6.56 6.56 0 012.235.412.337.337 0 01-.118.654 4.266 4.266 0 00-4.254 4.205 4.218 4.218 0 001.238 3.029c.81.819 1.88 1.27 3.014 1.27a4.263 4.263 0 003.7-2.156.337.337 0 01.626.22 6.588 6.588 0 01-6.502 5.537zm0-12.58a5.952 5.952 0 00-4.212 1.739A5.95 5.95 0 00.59 7.182a5.956 5.956 0 001.753 4.244 5.956 5.956 0 004.242 1.759 5.964 5.964 0 005.6-3.84 4.853 4.853 0 01-3.424 1.419 4.802 4.802 0 01-3.434-1.445 4.804 4.804 0 01-1.408-3.45A4.812 4.812 0 015.355 2.48a4.817 4.817 0 012.1-1.224 6.038 6.038 0 00-.87-.062zm2.176-.115z" fill="#8F6DFF"/><path d="M2.27 9.103c-.438 0-.855-.336-.988-.833a1.165 1.165 0 01.066-.804.9.9 0 01.578-.496c.51-.136 1.052.224 1.208.804.074.276.05.562-.066.804a.9.9 0 01-.578.496.85.85 0 01-.22.029zm-.122-1.808a.502.502 0 00-.13.017.55.55 0 00-.351.307.81.81 0 00-.043.56c.105.39.452.639.774.553a.55.55 0 00.35-.307.81.81 0 00.044-.56c-.091-.338-.364-.57-.644-.57zm2.47 4.088a.86.86 0 01-.646-.31.876.876 0 01-.216-.566c0-.214.084-.403.236-.533a.688.688 0 01.562-.151c.2.03.388.138.528.3.295.345.286.839-.02 1.1a.676.676 0 01-.444.16zm-.181-1.215a.325.325 0 00-.215.075.34.34 0 00-.112.264c0 .118.046.238.131.337.168.196.433.246.59.11.158-.134.15-.404-.018-.6a.522.522 0 00-.376-.186zM1.758 5.81a.295.295 0 01-.288-.36 3.31 3.31 0 01.649-1.336.295.295 0 01.445.387 2.757 2.757 0 00-.518 1.079.295.295 0 01-.288.23z" fill="#8F6DFF"/></svg>