<svg width="101" height="62" fill="none" xmlns="http://www.w3.org/2000/svg"><g clip-path="url(#clip0)"><circle cx="82.363" cy="29.459" r="9.923" fill="#fff" stroke="#000" stroke-width="3"/><mask id="path-2-inside-1" fill="#fff"><path d="M101 61.922c0-5.261-1.963-10.308-5.458-14.028-3.495-3.72-8.236-5.811-13.178-5.811-4.943 0-9.684 2.09-13.179 5.81-3.495 3.721-5.458 8.768-5.458 14.03H101z"/></mask><path d="M101 61.922c0-5.261-1.963-10.308-5.458-14.028-3.495-3.72-8.236-5.811-13.178-5.811-4.943 0-9.684 2.09-13.179 5.81-3.495 3.721-5.458 8.768-5.458 14.03H101z" fill="#fff" stroke="#000" stroke-width="6" mask="url(#path-2-inside-1)"/><circle cx="18.637" cy="29.459" r="9.923" fill="#fff" stroke="#000" stroke-width="3"/><mask id="path-4-inside-2" fill="#fff"><path d="M37.274 61.922c0-5.261-1.964-10.308-5.459-14.028-3.495-3.72-8.235-5.811-13.178-5.811-4.943 0-9.683 2.09-13.178 5.81C1.964 51.615 0 56.662 0 61.924h37.274z"/></mask><path d="M37.274 61.922c0-5.261-1.964-10.308-5.459-14.028-3.495-3.72-8.235-5.811-13.178-5.811-4.943 0-9.683 2.09-13.178 5.81C1.964 51.615 0 56.662 0 61.924h37.274z" fill="#fff" stroke="#000" stroke-width="6" mask="url(#path-4-inside-2)"/><circle cx="49.899" cy="16.232" r="14.732" fill="#fff" stroke="#000" stroke-width="3"/><mask id="path-6-inside-3" fill="#fff"><path d="M76.953 61.923c0-7.494-2.85-14.681-7.924-19.98-5.073-5.299-11.955-8.276-19.13-8.276-7.175 0-14.056 2.977-19.13 8.276-5.073 5.299-7.923 12.486-7.923 19.98h54.107z"/></mask><path d="M76.953 61.923c0-7.494-2.85-14.681-7.924-19.98-5.073-5.299-11.955-8.276-19.13-8.276-7.175 0-14.056 2.977-19.13 8.276-5.073 5.299-7.923 12.486-7.923 19.98h54.107z" fill="#fff" stroke="#000" stroke-width="6" mask="url(#path-6-inside-3)"/><path d="M81.247 47.54l1.717-1.85 1.718 1.85-1.374 1.85 2.061 5.55-2.405 2.774-2.404-2.774 2.06-5.55-1.373-1.85zm-64.929 0l1.718-1.85 1.717 1.85-1.374 1.85 2.061 5.55-2.404 2.774-2.405-2.774 2.061-5.55-1.374-1.85zm30.575-7.122l3.006-3.145 3.006 3.145-2.405 3.145 3.607 9.434-4.208 4.717-4.209-4.717 3.608-9.434-2.405-3.145z" fill="#8F6DFF"/></g><defs><clipPath id="clip0"><path fill="#fff" d="M0 0h101v62H0z"/></clipPath></defs></svg>