<svg width="98" height="75" fill="none" xmlns="http://www.w3.org/2000/svg"><rect x="1.5" y="1.5" width="46" height="34" rx="3.5" fill="#fff" stroke="#000" stroke-width="3"/><rect x="51.5" y="39.5" width="45" height="34" rx="3.5" fill="#fff" stroke="#000" stroke-width="3"/><rect x="51.5" y="12.5" width="37" height="23" rx="2.5" fill="#fff" stroke="#000" stroke-width="3"/><rect x="9.5" y="39.5" width="38" height="26" rx="2.5" fill="#fff" stroke="#000" stroke-width="3"/><circle cx="6.5" cy="6.5" r="1.5" fill="#8F6DFF"/><circle cx="10.5" cy="6.5" r="1.5" fill="#8F6DFF"/><circle cx="14.5" cy="6.5" r="1.5" fill="#8F6DFF"/><circle cx="83.5" cy="44.5" r="1.5" fill="#8F6DFF"/><circle cx="87.5" cy="44.5" r="1.5" fill="#8F6DFF"/><circle cx="91.5" cy="44.5" r="1.5" fill="#8F6DFF"/><rect x="55" y="17" width="31" height="2" rx="1" fill="#8F6DFF"/><rect x="55" y="21" width="31" height="2" rx="1" fill="#8F6DFF"/><rect x="55" y="25" width="31" height="2" rx="1" fill="#8F6DFF"/><rect x="55" y="29" width="31" height="2" rx="1" fill="#8F6DFF"/><rect x="12" y="42" width="16" height="10" rx="1" fill="#8F6DFF"/><rect x="29" y="42" width="16" height="10" rx="1" fill="#8F6DFF"/><rect x="12" y="53" width="16" height="10" rx="1" fill="#8F6DFF"/><rect x="29" y="53" width="16" height="10" rx="1" fill="#8F6DFF"/></svg>