<svg width="97" height="97" fill="none" xmlns="http://www.w3.org/2000/svg"><g clip-path="url(#clip0)"><path d="M27.44 82.324h-3.43L10.977 67.231 6.174 52.14l1.372-14.407 7.546-15.779c3.88-3.831 5.98-6.169 10.29-8.918l10.291-4.803L47.336 6.86v6.175h-5.488L30.87 17.15 17.151 29.5l-5.489 18.522 4.802 16.465 12.349 14.407-1.372 3.43zM69.29 13.72h3.43l13.034 15.094 4.803 15.092-1.372 14.407-7.547 15.779c-3.88 3.831-5.98 6.169-10.29 8.918l-10.29 4.802-11.663 1.373V83.01h5.488l10.976-4.116L79.58 66.545l5.488-18.523-4.802-16.464L67.917 17.15l1.373-3.43z" fill="#fff"/><path d="M47.337 18.523V1.373l13.035 8.231-13.035 8.919zm1.371 59.686v17.15l-13.035-8.232 13.035-8.918z" fill="#8F6DFF"/><path d="M28.21 75.925A34.042 34.042 0 0113.752 48.11c0-18.072 14.321-33 32.207-33.925v3.012c0 1.926 2.166 3.08 3.765 1.986l10.81-7.395a2.407 2.407 0 000-3.972L49.724.422A2.393 2.393 0 0048.368 0a2.411 2.411 0 00-2.41 2.408v3.065a42.542 42.542 0 00-21.022 6.553 1.41 1.41 0 001.506 2.38 39.723 39.723 0 0119.515-6.113v3.069c-19.517.918-35.022 17.013-35.022 36.75 0 11.967 5.852 23.226 15.655 30.117 1.686 1.186-.157 3.637-1.741 2.524C3.517 65.772 1.976 34.545 22.056 17.62a1.409 1.409 0 00-1.815-2.154C-1.271 33.596.409 67.032 23.229 83.058c1.517 1.066 3.607 1.066 5.19-.188 2.283-1.796 2.166-5.275-.209-6.945zM48.776 3.188l9.671 6.615-9.67 6.615V3.188z" fill="#000"/><path d="M29.5 45.278l-1.372 4.116 9.604 13.72h5.489L67.23 43.22l1.373-3.43-2.744-4.117-4.116-.686-20.581 17.151-4.117-5.488-3.43-2.058-4.116.686z" fill="#8F6DFF"/><path d="M73.03 12.985c-2.903-2.038-6.928.167-6.834 3.69a4.319 4.319 0 001.853 3.444 34.04 34.04 0 0114.458 27.813c0 18.072-14.321 33-32.207 33.925v-3.012c0-1.925-2.166-3.079-3.765-1.986l-10.81 7.395c-1.397.954-1.396 3.017 0 3.972 11.81 8.078 11.154 7.817 12.166 7.817 1.328 0 2.41-1.08 2.41-2.408v-3.067c22.75-.923 40.905-19.632 40.905-42.636 0-13.89-6.795-26.954-18.177-34.947zm-25.547 79.87l-9.671-6.615 9.67-6.615v13.23zm2.82-5.105v-3.069c19.515-.918 35.021-17.013 35.021-36.749 0-11.967-5.852-23.226-15.655-30.118a1.523 1.523 0 01-.656-1.216c-.034-1.226 1.403-2.007 2.397-1.308 10.632 7.467 16.98 19.67 16.98 32.642-.001 21.314-16.959 38.886-38.087 39.819z" fill="#000"/><path d="M41.419 50.189l-3.76-5.014c-3.263-4.35-10.162-2.547-10.927 2.8a6.065 6.065 0 001.16 4.526l6.884 9.18c2.48 3.306 7.24 3.875 10.43 1.23L67.38 44.52a6.101 6.101 0 00.803-8.595 6.113 6.113 0 00-8.596-.803L41.42 50.19zm24.595-12.465a3.286 3.286 0 01-.432 4.629L43.407 60.74a4.44 4.44 0 01-6.377-.751l-6.885-9.18a3.264 3.264 0 01-.624-2.437c.414-2.9 4.134-3.839 5.883-1.507l4.648 6.197a1.41 1.41 0 002.027.24l19.306-16.01a3.291 3.291 0 014.63.43z" fill="#000"/></g><defs><clipPath id="clip0"><path fill="#fff" d="M0 0h96.045v96.045H0z"/></clipPath></defs></svg>