<svg width="49" height="49" fill="none" xmlns="http://www.w3.org/2000/svg"><path d="M1 36.852C1 35.829 1.765 35 2.71 35h43.58c.945 0 1.71.83 1.71 1.852v1.296C48 39.171 47.235 40 46.29 40H2.71C1.764 40 1 39.17 1 38.148v-1.296z" fill="#8F6DFF"/><path fill-rule="evenodd" clip-rule="evenodd" d="M46.24 7.373H2.76c-.762 0-1.38.614-1.38 1.372v29.51c0 .758.618 1.372 1.38 1.372h43.48c.762 0 1.38-.614 1.38-1.372V8.745c0-.758-.618-1.372-1.38-1.372zM2.76 6A2.753 2.753 0 000 8.745v29.51A2.753 2.753 0 002.76 41h43.48A2.753 2.753 0 0049 38.255V8.745A2.753 2.753 0 0046.24 6H2.76z" fill="#50399B"/><path d="M10 47c0-1.105.867-2 1.937-2h24.126c1.07 0 1.937.895 1.937 2s-.867 2-1.937 2H11.937C10.867 49 10 48.105 10 47z" fill="#8F6DFF"/><path fill-rule="evenodd" clip-rule="evenodd" d="M36.063 46.455H11.937a.537.537 0 00-.528.545c0 .301.236.545.528.545h24.126A.537.537 0 0036.59 47a.537.537 0 00-.528-.545zM11.937 45c-1.07 0-1.937.895-1.937 2s.867 2 1.937 2h24.126c1.07 0 1.937-.895 1.937-2s-.867-2-1.937-2H11.937z" fill="#50399B"/><path d="M32 15h-4v5l4-5z" fill="#8F6DFF"/><path d="M23 2.723C23 1.22 24.258 0 25.81 0h17.38C44.743 0 46 1.22 46 2.723v10.554C46 14.78 44.742 16 43.19 16H25.81C24.257 16 23 14.78 23 13.277V2.723z" fill="#8F6DFF"/><path d="M3 17.823A2.824 2.824 0 015.824 15h15.353A2.823 2.823 0 0124 17.823v9.354A2.823 2.823 0 0121.177 30H5.824A2.824 2.824 0 013 27.177v-9.354z" fill="#CBCBCB"/><path d="M20 34v-5h-4l4 5z" fill="#CBCBCB"/><path fill-rule="evenodd" clip-rule="evenodd" d="M48 36H1v-1h47v1zm-30.07 4h11.82L32 46H16l1.93-6zm1.038 1.2l-1.157 3.6h12.295l-1.35-3.6h-9.788z" fill="#50399B"/><path d="M31 8.5a2.5 2.5 0 11-5 0 2.5 2.5 0 015 0zm6 0a2.5 2.5 0 11-5 0 2.5 2.5 0 015 0zm6 0a2.5 2.5 0 11-5 0 2.5 2.5 0 015 0z" fill="#fff"/><path d="M10 22.5a2.5 2.5 0 11-5 0 2.5 2.5 0 015 0zm6 0a2.5 2.5 0 11-5 0 2.5 2.5 0 015 0zm6 0a2.5 2.5 0 11-5 0 2.5 2.5 0 015 0z" fill="#8F6DFF"/></svg>