<svg width="57" height="49" fill="none" xmlns="http://www.w3.org/2000/svg"><path d="M0 5.446c0-.539.412-.975.92-.975h41.747c.509 0 .921.436.921.975V39.26c0 .539-.412.975-.92.975H.92c-.508 0-.92-.435-.92-.975V5.446z" fill="#50399B"/><path d="M2.235 12.294h6.706v7.823H2.235v-7.823z" fill="#8F6DFF"/><path d="M10.059 12.294h7.823v7.823H10.06v-7.823zm8.941 0h6.706v7.823H19v-7.823zm7.824 0h6.706v7.823h-6.706v-7.823zm7.823 0h6.706v7.823h-6.706v-7.823zM2.235 21.235h6.706v7.824H2.235v-7.824zm7.824 0h7.823v7.824H10.06v-7.824zm8.941 0h6.706v7.824H19v-7.824z" fill="#fff"/><path d="M26.824 21.235h6.706v7.824h-6.706v-7.824z" fill="#8F6DFF"/><path d="M34.647 21.235h6.706v7.824h-6.706v-7.824zM2.235 30.177h6.706V38H2.235v-7.823z" fill="#fff"/><path d="M10.059 30.177h7.823V38H10.06v-7.823z" fill="#8F6DFF"/><path d="M19 30.177h6.706V38H19v-7.823zm7.824 0h6.706V38h-6.706v-7.823zm7.823 0h6.706V38h-6.706v-7.823z" fill="#fff"/><path d="M2.235 1.415C2.235.633 2.861 0 3.632 0h2.795c.771 0 1.397.633 1.397 1.415v7.23c0 .78-.626 1.414-1.397 1.414H3.632a1.406 1.406 0 01-1.397-1.415v-7.23z" fill="#8F6DFF"/><path fill-rule="evenodd" clip-rule="evenodd" d="M6.427.314H3.632c-.6 0-1.086.493-1.086 1.1v7.23c0 .608.486 1.1 1.086 1.1h2.795c.6 0 1.086-.492 1.086-1.1v-7.23c0-.607-.486-1.1-1.086-1.1zM3.632 0c-.771 0-1.397.633-1.397 1.415v7.23c0 .78.626 1.414 1.397 1.414h2.795c.771 0 1.397-.633 1.397-1.415v-7.23C7.824.635 7.198 0 6.427 0H3.632z" fill="#fff"/><path d="M35.765 1.415C35.765.633 36.39 0 37.162 0h2.794c.771 0 1.397.633 1.397 1.415v7.23c0 .78-.626 1.414-1.397 1.414h-2.794a1.406 1.406 0 01-1.397-1.415v-7.23z" fill="#8F6DFF"/><path fill-rule="evenodd" clip-rule="evenodd" d="M39.956.314h-2.794c-.6 0-1.087.493-1.087 1.1v7.23c0 .608.487 1.1 1.087 1.1h2.794c.6 0 1.086-.492 1.086-1.1v-7.23c0-.607-.486-1.1-1.086-1.1zM37.162 0c-.772 0-1.397.633-1.397 1.415v7.23c0 .78.625 1.414 1.397 1.414h2.794c.771 0 1.397-.633 1.397-1.415v-7.23c0-.78-.626-1.414-1.397-1.414h-2.794z" fill="#fff"/><path d="M57 32.412c0 8.641-7.005 15.647-15.647 15.647s-15.647-7.006-15.647-15.647c0-8.642 7.006-15.647 15.647-15.647C49.995 16.765 57 23.77 57 32.412z" fill="#8F6DFF"/><path fill-rule="evenodd" clip-rule="evenodd" d="M41.353 47.746c8.469 0 15.334-6.866 15.334-15.334 0-8.47-6.865-15.334-15.334-15.334S26.02 23.943 26.02 32.412c0 8.468 6.865 15.334 15.334 15.334zm0 .313C49.995 48.059 57 41.053 57 32.412c0-8.642-7.005-15.647-15.647-15.647S25.706 23.77 25.706 32.412c0 8.641 7.006 15.647 15.647 15.647z" fill="#fff"/><path d="M55.883 32.412c0 8.025-6.506 14.53-14.53 14.53s-14.53-6.505-14.53-14.53c0-8.024 6.506-14.53 14.53-14.53s14.53 6.506 14.53 14.53z" fill="#fff"/><path fill-rule="evenodd" clip-rule="evenodd" d="M41.353 45.994c7.501 0 13.582-6.08 13.582-13.582 0-7.5-6.08-13.582-13.582-13.582-7.5 0-13.582 6.081-13.582 13.582s6.081 13.582 13.582 13.582zm0 .948c8.024 0 14.53-6.505 14.53-14.53 0-8.024-6.506-14.53-14.53-14.53s-14.53 6.506-14.53 14.53c0 8.025 6.506 14.53 14.53 14.53z" fill="#22272F"/><path d="M27.941 31.854c0-.309.25-.56.56-.56h1.117a.559.559 0 010 1.119H28.5a.559.559 0 01-.559-.56zm12.853 11.735c.309 0 .559.25.559.559v1.117a.559.559 0 11-1.118 0v-1.117c0-.309.25-.56.56-.56zm-6.756-3.201a.624.624 0 010 .882l-.883.883a.624.624 0 01-.883-.883l.883-.882a.624.624 0 01.883 0zm0-15.712a.624.624 0 01-.883 0l-.882-.883a.624.624 0 11.882-.883l.883.883a.624.624 0 010 .883zm20.727 7.177c0 .309-.376.56-.839.56H52.25c-.463 0-.838-.251-.838-.56 0-.308.375-.559.838-.559h1.676c.463 0 .839.25.839.56zM48.5 24.677a.624.624 0 010-.883l.883-.883a.624.624 0 01.882.883l-.882.883a.624.624 0 01-.883 0zm0 15.71a.624.624 0 01.883 0l.882.882a.624.624 0 11-.882.883l-.883-.883a.624.624 0 010-.882zm-7.706-18.033c-.308 0-.559-.376-.559-.839V19.84c0-.463.25-.838.56-.838.308 0 .558.375.558.838v1.676c0 .463-.25.838-.559.838z" fill="#8F6DFF"/><path fill-rule="evenodd" clip-rule="evenodd" d="M41.353 45.994c7.501 0 13.582-6.08 13.582-13.582 0-7.5-6.08-13.582-13.582-13.582-7.5 0-13.582 6.081-13.582 13.582s6.081 13.582 13.582 13.582zm0 .948c8.024 0 14.53-6.505 14.53-14.53 0-8.024-6.506-14.53-14.53-14.53s-14.53 6.506-14.53 14.53c0 8.025 6.506 14.53 14.53 14.53z" fill="#22272F"/><path d="M40.794 32.412a.559.559 0 01-.559-.559v-4.47a.559.559 0 111.118 0v4.47a.56.56 0 01-.559.56z" fill="#22272F"/><path d="M40.235 31.854c0-.309.282-.56.629-.56h8.802c.347 0 .628.251.628.56 0 .308-.281.559-.628.559h-8.802c-.347 0-.629-.25-.629-.56z" fill="#22272F"/></svg>