<svg width="136" height="139" fill="none" xmlns="http://www.w3.org/2000/svg"><path d="M1 9.445v43.873C1.113 62.4 4.35 65.182 16.264 65.13v23.624L40.007 65.13h47.487c9.11-.017 12.009-2.305 11.872-11.812V9.445c-.132-7.359-3.424-8.542-11.872-8.437H12.872C3.836.868.975 2.512 1 9.445z" stroke="#D9DFE4" stroke-opacity=".35" stroke-width="2"/><path d="M121.423 41.505h-10.175v16.874c-.086 12.48-3.012 16.916-16.96 16.874H46.801l-13.568 13.5v6.749c-.312 11.579 3.85 13.143 13.568 13.499h47.487L121.423 136v-26.999c10.481.28 13.772-2.352 13.568-13.499V55.004c-.013-9.376-1.463-13.545-13.568-13.5z" stroke="#D9DFE4" stroke-opacity=".35" stroke-width="2"/></svg>