<svg width="217" height="217" fill="none" xmlns="http://www.w3.org/2000/svg"><path d="M169.512 89.07c-1.626.001-3.249.1-4.863.293-4.381-14.266-17.542-24.016-32.465-24.046a33.408 33.408 0 00-10.914 1.822c-8.69-18.792-29.286-29.005-49.504-24.548-20.22 4.458-34.61 22.382-34.596 43.085a43.437 43.437 0 001.322 10.609c-19.264 2.94-33.027 20.205-31.595 39.64 1.43 19.435 17.573 34.501 37.059 34.587h125.556c22.49 0 40.72-18.232 40.72-40.722 0-22.489-18.23-40.72-40.72-40.72zm0 74.655H43.956c-16.73.073-30.4-13.338-30.65-30.066-.248-16.728 13.015-30.538 29.74-30.964a3.392 3.392 0 003.102-4.53c-6.735-19.275 3.284-40.383 22.477-47.352 19.191-6.97 40.42 2.795 47.62 21.901a3.395 3.395 0 004.601 1.901 26.943 26.943 0 0111.338-2.512c12.911.024 24.029 9.118 26.608 21.769a3.392 3.392 0 003.998 2.657 34.415 34.415 0 016.722-.672c18.742 0 33.934 15.194 33.934 33.933 0 18.742-15.192 33.935-33.934 33.935z" fill="#F2F4F6"/></svg>