<svg width="754" height="663" fill="none" xmlns="http://www.w3.org/2000/svg"><path d="M385.891 72.73C548.076 28 755 28 755 28v504.122S735.051 580 682.426 580c-52.626 0-76.014-24.784-80.486-57.171-4.472-32.388 44.714-92.658 32.332-127.017-12.383-34.359-42.306-55.763-99.059-52.383-56.753 3.379-128.295 45.624-197.774 44.216-69.479-1.408-176.449-51.821-181.265-117.159-4.815-65.339 90.524-159.369 229.717-197.757z" fill="url(#paint0_linear)"/><circle cx="526.698" cy="584.698" r="4.698" fill="#F1F1F1" fill-opacity=".3"/><circle cx="542.361" cy="584.698" r="4.698" fill="#F1F1F1" fill-opacity=".3"/><circle cx="558.022" cy="584.698" r="4.698" fill="#F1F1F1" fill-opacity=".3"/><circle cx="573.683" cy="584.698" r="4.698" fill="#F1F1F1" fill-opacity=".3"/><circle cx="589.344" cy="584.698" r="4.698" fill="#F1F1F1" fill-opacity=".3"/><circle cx="605.005" cy="584.698" r="4.698" fill="#F1F1F1" fill-opacity=".3"/><circle cx="526.698" cy="599.317" r="4.698" fill="#F1F1F1" fill-opacity=".3"/><circle cx="542.361" cy="599.317" r="4.698" fill="#F1F1F1" fill-opacity=".3"/><circle cx="558.022" cy="599.317" r="4.698" fill="#F1F1F1" fill-opacity=".3"/><circle cx="573.683" cy="599.317" r="4.698" fill="#F1F1F1" fill-opacity=".3"/><circle cx="589.344" cy="599.317" r="4.698" fill="#F1F1F1" fill-opacity=".3"/><circle cx="605.005" cy="599.317" r="4.698" fill="#F1F1F1" fill-opacity=".3"/><circle cx="526.698" cy="613.934" r="4.698" fill="#F1F1F1" fill-opacity=".3"/><circle cx="542.361" cy="613.934" r="4.698" fill="#F1F1F1" fill-opacity=".3"/><circle cx="558.022" cy="613.934" r="4.698" fill="#F1F1F1" fill-opacity=".3"/><circle cx="573.683" cy="613.934" r="4.698" fill="#F1F1F1" fill-opacity=".3"/><circle cx="589.344" cy="613.934" r="4.698" fill="#F1F1F1" fill-opacity=".3"/><circle cx="605.005" cy="613.934" r="4.698" fill="#F1F1F1" fill-opacity=".3"/><circle cx="526.698" cy="628.55" r="4.698" fill="#F1F1F1" fill-opacity=".3"/><circle cx="542.36" cy="628.55" r="4.698" fill="#F1F1F1" fill-opacity=".3"/><circle cx="558.021" cy="628.55" r="4.698" fill="#F1F1F1" fill-opacity=".3"/><circle cx="573.682" cy="628.55" r="4.698" fill="#F1F1F1" fill-opacity=".3"/><circle cx="589.344" cy="628.55" r="4.698" fill="#F1F1F1" fill-opacity=".3"/><circle cx="605.005" cy="628.55" r="4.698" fill="#F1F1F1" fill-opacity=".3"/><circle cx="526.698" cy="643.167" r="4.698" fill="#F1F1F1" fill-opacity=".3"/><circle cx="542.36" cy="643.167" r="4.698" fill="#F1F1F1" fill-opacity=".3"/><circle cx="558.021" cy="643.167" r="4.698" fill="#F1F1F1" fill-opacity=".3"/><circle cx="573.682" cy="643.167" r="4.698" fill="#F1F1F1" fill-opacity=".3"/><circle cx="589.344" cy="643.167" r="4.698" fill="#F1F1F1" fill-opacity=".3"/><circle cx="605.005" cy="643.167" r="4.698" fill="#F1F1F1" fill-opacity=".3"/><circle cx="526.698" cy="657.784" r="4.698" fill="#F1F1F1" fill-opacity=".3"/><circle cx="542.36" cy="657.784" r="4.698" fill="#F1F1F1" fill-opacity=".3"/><circle cx="558.021" cy="657.784" r="4.698" fill="#F1F1F1" fill-opacity=".3"/><circle cx="573.682" cy="657.784" r="4.698" fill="#F1F1F1" fill-opacity=".3"/><circle cx="589.344" cy="657.784" r="4.698" fill="#F1F1F1" fill-opacity=".3"/><circle cx="605.005" cy="657.784" r="4.698" fill="#F1F1F1" fill-opacity=".3"/><path d="M5.603 442.194c-12.542 20.98-2.73 56.535 16.57 59.265 19.3 2.729 53.847-33.147 37.43-53.611-14.23-17.741-40.111-28.887-54-5.654z" fill="url(#paint1_linear)"/><path d="M23.343 525.827H20.81c-.125-28.637.983-43.298 7.603-63.943h1.754c-7.037 23.446-7.408 37.839-6.823 63.943z" fill="#8D6220"/><path d="M25.488 478.455v2.34c4.321-3.235 7.18-4.533 13.256-5.654l-.585-1.365c-5.798.738-8.518 1.832-12.671 4.679zm-1.755 5.654l-.78 2.534c-2.905-3.867-4.882-5.435-8.772-7.603v-1.17c4.113 1.963 6.387 3.107 9.552 6.239z" fill="#8D6220"/><circle cx="146.5" cy="298.926" r="60" stroke="#F6F6F6" stroke-width="3"/><circle cx="146" cy="298.426" r="56" fill="#F7F7F7"/><ellipse cx="154" cy="298.926" rx="50" ry="50.5" fill="#fff"/><path d="M587.036 165.057c-1.295.001-2.587.08-3.872.234-3.489-11.363-13.967-19.129-25.849-19.153a26.589 26.589 0 00-8.689 1.451c-6.92-14.968-23.318-23.102-39.415-19.552-16.099 3.551-27.557 17.827-27.545 34.317.001 2.85.356 5.689 1.052 8.45-15.337 2.343-26.295 16.094-25.155 31.573 1.138 15.481 13.991 27.48 29.506 27.549h99.967c17.906 0 32.421-14.522 32.421-32.435 0-17.913-14.515-32.434-32.421-32.434zm0 59.463h-99.967c-13.32.058-24.205-10.623-24.403-23.947-.198-13.324 10.362-24.324 23.679-24.663a2.698 2.698 0 002.152-1.175 2.693 2.693 0 00.317-2.433c-5.363-15.353 2.615-32.165 17.896-37.716 15.28-5.551 32.182 2.226 37.915 17.444a2.7 2.7 0 003.663 1.514 21.445 21.445 0 019.027-2.001c10.28.019 19.132 7.262 21.185 17.339a2.7 2.7 0 003.183 2.116 27.398 27.398 0 015.353-.534c14.921 0 27.018 12.102 27.018 27.027 0 14.928-12.097 27.029-27.018 27.029z" fill="#fff"/><path d="M485.926 150.518v22.519l-18.173 8.691-10.272 18.963 17.778 25.679 125.235-1.58 16.197-20.148-2.765-19.753-12.247-13.433-19.753-2.37-4.346-9.481-16.197-10.667-14.618 2.37-2.765-7.506-18.568-12.642-23.309 1.975-16.197 17.383zm128.621-47.726c-.543 0-1.085.033-1.625.098a11.368 11.368 0 00-10.843-8.035 11.157 11.157 0 00-3.646.608 14.722 14.722 0 00-16.534-8.202 14.73 14.73 0 00-11.556 14.397 14.5 14.5 0 00.441 3.544c-6.434.983-11.031 6.752-10.553 13.246.478 6.494 5.87 11.528 12.378 11.557h41.938c7.512 0 13.601-6.092 13.601-13.607s-6.089-13.606-13.601-13.606zm0 24.945h-41.938c-5.587.024-10.154-4.457-10.237-10.046-.083-5.59 4.347-10.204 9.934-10.347a1.133 1.133 0 001.036-1.513c-2.25-6.441 1.097-13.494 7.507-15.823 6.41-2.328 13.501.934 15.906 7.319a1.133 1.133 0 001.537.635 8.996 8.996 0 013.787-.84 9.088 9.088 0 018.887 7.274 1.133 1.133 0 001.335.888 11.514 11.514 0 012.246-.225c6.26 0 11.334 5.077 11.334 11.339 0 6.262-5.074 11.339-11.334 11.339z" fill="#fff"/><path d="M572.13 96.692v9.447l-7.624 3.646-4.309 7.955 7.458 10.773 52.538-.663 6.795-8.452-1.16-8.287-5.138-5.635-8.287-.994-1.823-3.978-6.795-4.475-6.132.995-1.16-3.15-7.79-5.303-9.778.829-6.795 7.292z" fill="#fff"/><path d="M108.151 169.641c-.544 0-1.087.033-1.627.098a11.385 11.385 0 00-10.858-8.046 11.192 11.192 0 00-3.65.61 14.744 14.744 0 00-28.128 6.202c0 1.198.15 2.39.442 3.55-6.443.984-11.046 6.761-10.567 13.263.478 6.503 5.877 11.544 12.394 11.573h41.994c7.522 0 13.619-6.101 13.619-13.625 0-7.525-6.097-13.625-13.619-13.625zm0 24.979H66.157c-5.595.024-10.167-4.463-10.25-10.06-.084-5.597 4.352-10.218 9.946-10.36a1.133 1.133 0 001.038-1.516c-2.253-6.449 1.098-13.512 7.517-15.843 6.419-2.332 13.52.935 15.927 7.328a1.137 1.137 0 001.539.636 9.004 9.004 0 013.792-.841 9.101 9.101 0 018.9 7.284 1.134 1.134 0 001.337.889c.74-.149 1.492-.224 2.248-.225 6.268 0 11.35 5.084 11.35 11.354s-5.082 11.354-11.35 11.354z" fill="#F9F9F9"/><path d="M65.677 163.534v9.46l-7.634 3.651-4.315 7.966 7.468 10.787 52.608-.664 6.805-8.464-1.162-8.298-5.145-5.642-8.297-.996-1.826-3.983-6.804-4.481-6.14.996-1.162-3.153-7.8-5.311-9.791.83-6.805 7.302zm145.917-95.402c-.694 0-1.386.042-2.074.125a14.51 14.51 0 00-13.84-10.256 14.233 14.233 0 00-4.653.778 18.793 18.793 0 00-35.855 7.906c.001 1.526.191 3.046.564 4.524-8.213 1.254-14.08 8.618-13.47 16.906.61 8.29 7.492 14.715 15.799 14.752h53.529c9.588 0 17.36-7.776 17.36-17.368 0-9.592-7.772-17.367-17.36-17.367zm0 31.84h-53.529c-7.132.031-12.96-5.688-13.066-12.823-.106-7.135 5.548-13.024 12.679-13.206a1.444 1.444 0 001.152-.629c.263-.382.326-.866.17-1.303-2.871-8.22 1.4-17.223 9.583-20.195 8.181-2.973 17.232 1.192 20.302 9.34a1.445 1.445 0 001.961.811 11.483 11.483 0 014.834-1.071 11.599 11.599 0 0111.343 9.284 1.447 1.447 0 001.705 1.133 14.67 14.67 0 012.866-.286c7.99 0 14.467 6.48 14.467 14.472 0 7.993-6.477 14.473-14.467 14.473z" fill="#F9F9F9"/><path d="M157.454 60.348v12.058l-9.731 4.653-5.5 10.154 9.519 13.75 67.058-.846 8.673-10.788-1.481-10.577-6.557-7.192-10.577-1.27-2.327-5.077-8.673-5.711-7.827 1.269-1.481-4.02-9.943-6.769-12.48 1.058-8.673 9.308z" fill="#F9F9F9"/><path d="M462 140l-30.429-29.574h-1.964L397 140.5l2.357.538 31.429-29.45L460 141.5l2-1.5z" fill="#212233"/><rect x="395.062" y="190.879" width="69.531" height="16.593" rx="6" fill="#545454"/><rect x="395.062" y="173.496" width="69.531" height="16.593" rx="6" fill="#545454"/><rect x="395.062" y="156.113" width="69.531" height="16.593" rx="6" fill="#545454"/><rect x="395.062" y="138.73" width="69.531" height="16.593" rx="6" fill="#545454"/><rect x="395.062" y="196.409" width="69.531" height="10.871" rx="5.436" fill="#3E3E3E"/><rect x="395.062" y="179.026" width="69.531" height="10.871" rx="5.436" fill="#3E3E3E"/><rect x="395.062" y="161.644" width="69.531" height="10.871" rx="5.436" fill="#3E3E3E"/><rect x="395.062" y="144.261" width="69.531" height="10.871" rx="5.436" fill="#3E3E3E"/><rect x="120" y="207.426" width="376" height="232" rx="11" fill="#242955"/><path fill="#8876C7" d="M126 213.426h365v221H126z"/><rect x="131" y="219.426" width="355" height="209" rx="8" fill="#fff"/><path d="M131 227.426a8 8 0 018-8h339a8 8 0 018 8v4H131v-4z" fill="#B19BF9"/><path fill="#3A3C59" d="M407 130.426h3v77h-3z"/><path fill="#121428" d="M267 439.426h81v14h-81z"/><path d="M236 471.426c0-9.941 8.059-18 18-18h108c9.941 0 18 8.059 18 18H236z" fill="#242955"/><rect x="353" y="241.426" width="115" height="82" rx="6" fill="#ABBFF1"/><rect x="350" y="238.426" width="115" height="82" rx="6" fill="#7A5CDD"/><rect x="350.5" y="376.926" width="114" height="17" rx="6.5" stroke="#DED4FF"/><rect x="350.5" y="352.926" width="114" height="17" rx="6.5" stroke="#DED4FF"/><rect x="350.5" y="327.926" width="114" height="17" rx="6.5" stroke="#DED4FF"/><path d="M232 19.426h1v9h-1v-9z" fill="#2C2C2C"/><path d="M232.3 14.68l-1.58 3.161 4.74 2.766-1.58-5.531-1.58-.395z" fill="#FFFB99"/><path fill="#FFFB99" d="M234.67 20.337l7.04-1.921.208.762-7.04 1.921z"/><path fill="#FFFB99" d="M241.748 18.63l2.098 7.007-.757.226-2.098-7.005z"/><path fill="#FFFB99" d="M250.255 23.153l-7.427 2.555-.257-.747 7.427-2.555zm9.885 4.777l-7.83 2.695-.258-.747 7.832-2.695zm10.686 5.256l-9.035 3.109-.257-.747 9.035-3.109zm12.604 6.204l-10.578 3.64-.257-.747 10.578-3.64zm14.75 6.917l-12.684 4.365-.257-.748 12.684-4.364zm16.401 8.148l-14.073 4.842-.257-.747 14.073-4.842z"/><path fill="#FFFB99" d="M251.835 30.821l-2.153-8.034.763-.205 2.153 8.035zm9.73 5.669l-2.402-8.962.763-.205 2.402 8.962zm11.296 6.406l-2.636-9.839.763-.204 2.637 9.839zm12.939 7.431l-3.039-11.345.763-.204 3.04 11.345zm14.864 8.711l-3.574-13.337.763-.205 3.574 13.338zm16.875 9.747l-4.002-14.933.764-.204 4 14.933z"/><path fill="#FFFB99" d="M333.145 63.28l-15.255 5.249-.257-.748 15.255-5.248zm20.075 9.962l-17.66 6.077-.258-.747 17.66-6.077zm24.323 11.65l-20.147 6.932-.257-.747 20.147-6.932zm26.963 13.439l-22.616 7.782-.257-.747 22.616-7.782z"/><path fill="#FFFB99" d="M336.254 79.5l-4.512-16.839.763-.204 4.512 16.839zm21.34 12.453l-5.195-19.389.763-.204 5.195 19.389zm24.213 13.751l-5.704-21.288.763-.205 5.704 21.289zm28.52 16.666l-6.57-24.523.762-.204 6.571 24.523zm17.923-12.085l-7.901 16.593 1.58 1.58 9.481-18.173h-3.16z"/><path d="M446.818 126.878h-33.975l-4.346 2.37h41.086l-2.765-2.37z" fill="#DACB43"/><path d="M229.926 17.385l191.7 110.222-.79 1.369-190.91-110.222v-1.37zm3.954-3.099l197.824 95.947-.79 1.368L232.3 14.681l1.58-.395z" fill="#DACB43"/><circle cx="408.5" cy="122.926" r="8" fill="#6D4DAF" stroke="#BC9FEC"/><circle cx="408.5" cy="122.926" r="4" fill="#6D4DAF" stroke="#BC9FEC"/><rect x="155.289" y="329.94" width="178.568" height="61.229" rx="6" transform="rotate(10.061 155.289 329.94)" fill="#ABBFF1"/><rect x="152.919" y="325.021" width="178.568" height="61.229" rx="6" transform="rotate(10.061 152.919 325.021)" fill="#DCD6EE"/><rect x="173.6" y="355.768" width="20.543" height="22.914" rx="10.272" transform="rotate(9.853 173.6 355.768)" fill="silver"/><rect x="162.394" y="341.792" width="46.617" height="22.914" rx="3" transform="rotate(9.853 162.394 341.792)" fill="#fff"/><circle cx="181.015" cy="373.095" r="6.321" transform="rotate(9.853 181.015 373.095)" fill="#4F4F4F"/><rect x="189.779" y="364.191" width="3.951" height="12.642" rx="1.975" transform="rotate(9.853 189.779 364.191)" fill="#FFE4CC"/><path d="M188.428 371.977l3.892.676-.473 2.724a1.975 1.975 0 11-3.892-.676l.473-2.724z" fill="#AB1515"/><path fill="#C4C4C4" d="M181.179 349.064l7.784 1.352-1.081 6.228-7.785-1.352z"/><path fill="#656565" d="M171.567 348.999l25.69 4.462-.136.778-25.69-4.462z"/><rect x="191.265" y="360.223" width="2.514" height="4.309" rx="1.257" transform="rotate(-5.147 191.265 360.223)" fill="#656565"/><rect x="191.265" y="360.223" width="2.514" height="2.514" rx="1.257" transform="rotate(-5.147 191.265 360.223)" fill="gray"/><rect x="192.418" y="361.021" width=".359" height=".718" rx=".18" transform="rotate(-5.147 192.418 361.021)" fill="#C4C4C4"/><path d="M182.9 350.967l-1.721-1.903 7.784 1.353-2.261 1.211-3.802-.661z" fill="#979797"/><path fill="#656565" d="M170.233 356.456l17.335 3.01-.983 5.661-17.335-3.01z"/><path fill="#C4C4C4" d="M170.526 356.871l1.061.184-.154.885-1.06-.184zm1.415.246l1.061.184-.154.885-1.06-.184zm1.415.246l1.061.184-.154.885-1.06-.184zm-3.014.571l1.061.184-.154.885-1.06-.184zm1.415.245l1.061.184-.154.885-1.06-.184zm1.415.246l1.061.184-.154.885-1.06-.184zm-3.015.569l1.061.184-.154.885-1.06-.184zm1.415.246l1.061.184-.154.885-1.06-.184zm1.415.245l1.061.184-.154.885-1.06-.184zm1.784-1.876l1.061.184-.154.885-1.06-.184zm1.416.245l1.061.184-.154.885-1.06-.184zm1.415.247l1.061.184-.154.885-1.06-.184zm-3.015.569l1.061.184-.154.885-1.06-.184zm1.415.246l1.061.184-.154.885-1.06-.184zm1.415.246l1.061.184-.154.885-1.06-.184zm-3.015.569l1.061.184-.154.885-1.06-.184zm1.416.247l1.061.184-.154.885-1.06-.184zm1.415.246l1.061.184-.154.885-1.06-.184zm1.784-1.877l1.061.184-.154.885-1.06-.184zm1.415.245l1.061.184-.154.885-1.06-.184zm1.416.246l1.061.184-.154.885-1.06-.184zm-3.015.57l1.061.184-.154.885-1.06-.184zm1.415.246l1.061.184-.154.885-1.06-.184zm1.415.245l1.061.184-.154.885-1.06-.184zm-3.015.571l1.061.184-.154.885-1.06-.184zm1.415.245l1.061.184-.154.885-1.06-.184zm1.416.246l1.061.184-.154.885-1.06-.184zm1.784-1.877l1.061.184-.154.885-1.06-.184zm1.415.246l1.061.184-.154.885-1.06-.184zm1.415.245l1.061.184-.154.885-1.06-.184zm-3.015.571l1.061.184-.154.885-1.06-.184zm1.415.245l1.061.184-.154.885-1.06-.184zm1.415.246l1.061.184-.154.885-1.06-.184zm-3.013.569l1.061.184-.184 1.061-1.061-.184zm1.414.246l1.061.184-.154.885-1.06-.184zm1.416.246l1.061.184-.154.885-1.06-.184zm-15.752-1.642l1.061.184-.154.885-1.06-.184zm1.415.246l1.061.184-.154.885-1.06-.184zm1.416.246l1.061.184-.154.885-1.06-.184zm1.415.246l1.061.184-.154.885-1.06-.184zm1.415.245l1.061.184-.154.885-1.06-.184zm1.415.246l1.061.184-.154.885-1.06-.184zm1.416.245l1.061.184-.154.885-1.06-.184zm1.414.246l1.061.184-.154.885-1.06-.184zm1.416.245l1.415.246-.154.884-1.415-.245zm1.415.248l1.061.184-.154.885-1.06-.184zm1.414.245l1.061.184-.154.885-1.06-.184zm1.416.246l1.061.184-.154.885-1.06-.184zm-15.751-1.643l1.061.184-.154.885-1.06-.184zm1.415.246l1.061.184-.154.885-1.06-.184zm1.415.245l1.061.184-.154.885-1.06-.184zm1.415.246l5.307.922-.154.884-5.307-.921zm5.66.984l1.061.184-.154.885-1.06-.184zm1.416.246l1.061.184-.154.885-1.06-.184zm1.415.245l1.061.184-.154.885-1.06-.184zm1.415.246l1.061.184-.154.885-1.06-.184zm1.415.245l1.061.184-.154.885-1.06-.184z"/><rect x="171.874" y="361.081" width="3.951" height="12.642" rx="1.975" transform="rotate(9.853 171.874 361.081)" fill="#FFE4CC"/><path d="M170.522 368.866l3.893.676-.473 2.725a1.976 1.976 0 01-3.893-.676l.473-2.725z" fill="#AB1515"/><rect x="226.535" y="364.961" width="20.543" height="22.914" rx="10.272" transform="rotate(9.853 226.535 364.961)" fill="silver"/><rect x="215.329" y="350.985" width="46.617" height="22.914" rx="3" transform="rotate(9.853 215.329 350.985)" fill="#fff"/><circle cx="233.952" cy="382.288" r="6.321" transform="rotate(9.853 233.952 382.288)" fill="#563A1F"/><rect x="242.715" y="373.386" width="3.951" height="12.642" rx="1.975" transform="rotate(9.853 242.715 373.386)" fill="#FFE4CC"/><path d="M241.363 381.17l3.893.676-.474 2.725a1.976 1.976 0 01-3.892-.676l.473-2.725z" fill="#9D922F"/><path fill="#C4C4C4" d="M234.115 358.258l7.784 1.352-1.081 6.228-7.785-1.352z"/><path fill="#656565" d="M224.503 358.192l25.69 4.462-.136.778-25.69-4.462z"/><rect x="244.2" y="369.416" width="2.514" height="4.309" rx="1.257" transform="rotate(-5.147 244.2 369.416)" fill="#656565"/><rect x="244.2" y="369.416" width="2.514" height="2.514" rx="1.257" transform="rotate(-5.147 244.2 369.416)" fill="gray"/><rect x="245.354" y="370.214" width=".359" height=".718" rx=".18" transform="rotate(-5.147 245.354 370.214)" fill="#C4C4C4"/><path d="M235.836 360.161l-1.721-1.903 7.785 1.352-2.262 1.211-3.802-.66z" fill="#979797"/><path fill="#656565" d="M223.17 365.65l17.335 3.01-.983 5.661-17.335-3.01z"/><path fill="#C4C4C4" d="M223.462 366.065l1.061.184-.154.885-1.06-.184zm1.415.247l1.061.184-.154.885-1.06-.184zm1.415.245l1.061.184-.154.885-1.06-.184zm-3.015.57l1.061.184-.154.885-1.06-.184zm1.416.245l1.061.184-.154.885-1.06-.184zm1.415.246l1.061.184-.154.885-1.06-.184zm-3.014.57l1.061.184-.154.885-1.06-.184zm1.415.246l1.061.184-.154.885-1.06-.184zm1.415.246l1.061.184-.154.885-1.06-.184zm1.784-1.877l1.061.184-.154.885-1.06-.184zm1.415.245l1.061.184-.154.885-1.06-.184zm1.415.246l1.061.184-.154.885-1.06-.184zm-3.015.57l1.061.184-.154.885-1.06-.184zm1.415.246l1.061.184-.154.885-1.06-.184zm1.416.246l1.061.184-.154.885-1.06-.184zm-3.015.57l1.061.184-.154.885-1.06-.184zm1.415.245l1.061.184-.154.885-1.06-.184zm1.415.246l1.061.184-.154.885-1.06-.184zm1.784-1.877l1.061.184-.154.885-1.06-.184zm1.415.246l1.061.184-.154.885-1.06-.184zm1.415.246l1.061.184-.154.885-1.06-.184zm-3.014.57l1.061.184-.154.885-1.06-.184zm1.415.246l1.061.184-.154.885-1.06-.184zm1.415.245l1.061.184-.154.885-1.06-.184zm-3.015.57l1.061.184-.154.885-1.06-.184zm1.415.245l1.061.184-.154.885-1.06-.184zm1.415.246l1.061.184-.154.885-1.06-.184zm1.784-1.877l1.061.184-.154.885-1.06-.184zm1.415.246l1.061.184-.154.885-1.06-.184zm1.415.246l1.061.184-.154.885-1.06-.184zm-3.014.57l1.061.184-.154.885-1.06-.184zm1.415.245l1.061.184-.154.885-1.06-.184zm1.415.247l1.061.184-.154.885-1.06-.184zm-3.014.569l1.061.184-.184 1.061-1.061-.184zm1.414.246l1.061.184-.154.885-1.06-.184zm1.416.246l1.061.184-.154.885-1.06-.184zm-15.751-1.642l1.061.184-.154.885-1.06-.184zm1.415.245l1.061.184-.154.885-1.06-.184zm1.415.246l1.061.184-.154.885-1.06-.184zm1.415.246l1.061.184-.154.885-1.06-.184zm1.415.245l1.061.184-.154.885-1.06-.184zm1.415.247l1.061.184-.154.885-1.06-.184zm1.416.245l1.061.184-.154.885-1.06-.184zm1.414.247l1.061.184-.154.885-1.06-.184zm1.416.245l1.415.246-.154.884-1.415-.245zm1.416.246l1.061.184-.154.885-1.06-.184zm1.415.245l1.061.184-.154.885-1.06-.184zm1.416.246l1.061.184-.154.885-1.06-.184zm-15.752-1.642l1.061.184-.154.885-1.06-.184zm1.415.246l1.061.184-.154.885-1.06-.184zm1.415.245l1.061.184-.154.885-1.06-.184zm1.415.246l5.307.922-.154.884-5.307-.921zm5.661.983l1.061.184-.154.885-1.06-.184zm1.415.246l1.061.184-.154.885-1.06-.184zm1.415.245l1.061.184-.154.885-1.06-.184zm1.416.247l1.061.184-.154.885-1.06-.184zm1.415.246l1.061.184-.154.885-1.06-.184z"/><rect x="224.811" y="370.275" width="3.951" height="12.642" rx="1.975" transform="rotate(9.853 224.811 370.275)" fill="#FFE4CC"/><path d="M223.458 378.06l3.892.676-.473 2.724a1.975 1.975 0 11-3.892-.676l.473-2.724z" fill="#9D922F"/><rect x="279.472" y="374.155" width="20.543" height="22.914" rx="10.272" transform="rotate(9.853 279.472 374.155)" fill="silver"/><rect x="268.266" y="360.18" width="46.617" height="22.914" rx="3" transform="rotate(9.853 268.266 360.18)" fill="#fff"/><circle cx="286.887" cy="391.482" r="6.321" transform="rotate(9.853 286.887 391.482)" fill="#FDFFAC"/><rect x="295.651" y="382.58" width="3.951" height="12.642" rx="1.975" transform="rotate(9.853 295.651 382.58)" fill="#FFE4CC"/><path d="M294.3 390.364l3.892.676-.473 2.725a1.975 1.975 0 11-3.892-.676l.473-2.725z" fill="#796FE7"/><path fill="#C4C4C4" d="M287.051 367.452l7.784 1.352-1.081 6.228-7.785-1.352z"/><path fill="#656565" d="M277.439 367.387l25.69 4.462-.136.778-25.69-4.462z"/><rect x="297.137" y="378.61" width="2.514" height="4.309" rx="1.257" transform="rotate(-5.147 297.137 378.61)" fill="#656565"/><rect x="297.137" y="378.61" width="2.514" height="2.514" rx="1.257" transform="rotate(-5.147 297.137 378.61)" fill="gray"/><rect x="298.29" y="379.408" width=".359" height=".718" rx=".18" transform="rotate(-5.147 298.29 379.408)" fill="#C4C4C4"/><path d="M288.772 369.355l-1.721-1.903 7.784 1.352-2.261 1.211-3.802-.66z" fill="#979797"/><path fill="#656565" d="M276.105 374.845l17.335 3.01-.983 5.661-17.335-3.01z"/><path fill="#C4C4C4" d="M276.398 375.26l1.061.184-.154.885-1.06-.184zm1.415.246l1.061.184-.154.885-1.06-.184zm1.416.245l1.061.184-.154.885-1.06-.184zm-3.015.57l1.061.184-.154.885-1.06-.184zm1.415.245l1.061.184-.154.885-1.06-.184zm1.415.246l1.061.184-.154.885-1.06-.184zm-3.015.57l1.061.184-.154.885-1.06-.184zm1.415.247l1.061.184-.154.885-1.06-.184zm1.415.245l1.061.184-.154.885-1.06-.184zm1.785-1.877l1.061.184-.154.885-1.06-.184zm1.415.245l1.061.184-.154.885-1.06-.184zm1.415.247l1.061.184-.154.885-1.06-.184zm-3.015.57l1.061.184-.154.885-1.06-.184zm1.415.246l1.061.184-.154.885-1.06-.184zm1.415.246l1.061.184-.154.885-1.06-.184zm-3.015.569l1.061.184-.154.885-1.06-.184zm1.415.245l1.061.184-.154.885-1.06-.184zm1.415.246l1.061.184-.154.885-1.06-.184zm1.785-1.876l1.061.184-.154.885-1.06-.184zm1.415.245l1.061.184-.154.885-1.06-.184zm1.415.247l1.061.184-.154.885-1.06-.184zm-3.015.569l1.061.184-.154.885-1.06-.184zm1.415.246l1.061.184-.154.885-1.06-.184zm1.416.245l1.061.184-.154.885-1.06-.184zm-3.014.57l1.061.184-.154.885-1.06-.184zm1.415.246l1.061.184-.154.885-1.06-.184zm1.415.246l1.061.184-.154.885-1.06-.184zm1.783-1.877l1.061.184-.154.885-1.06-.184zm1.416.246l1.061.184-.154.885-1.06-.184zm1.415.245l1.061.184-.154.885-1.06-.184zm-3.015.57l1.061.184-.154.885-1.06-.184zm1.415.246l1.061.184-.154.885-1.06-.184zm1.415.246l1.061.184-.154.885-1.06-.184zm-3.013.57l1.061.184-.184 1.061-1.061-.184zm1.414.246l1.061.184-.154.885-1.06-.184zm1.416.245l1.061.184-.154.885-1.06-.184zm-15.752-1.642l1.061.184-.154.885-1.06-.184zm1.415.245l1.061.184-.154.885-1.06-.184zm1.415.247l1.061.184-.154.885-1.06-.184zm1.415.246l1.061.184-.154.885-1.06-.184zm1.416.245l1.061.184-.154.885-1.06-.184zm1.415.246l1.061.184-.154.885-1.06-.184zm1.415.246l1.061.184-.154.885-1.06-.184zm1.415.246l1.061.184-.154.885-1.06-.184zm1.416.245l1.415.246-.154.884-1.415-.245zm1.415.246l1.061.184-.154.885-1.06-.184zm1.414.245l1.061.184-.154.885-1.06-.184zm1.416.246l1.061.184-.154.885-1.06-.184zm-15.752-1.642l1.061.184-.154.885-1.06-.184zm1.415.246l1.061.184-.154.885-1.06-.184zm1.416.245l1.061.184-.154.885-1.06-.184zm1.415.246l5.307.922-.154.884-5.307-.921zm5.66.984l1.061.184-.154.885-1.06-.184zm1.416.246l1.061.184-.154.885-1.06-.184zm1.415.245l1.061.184-.154.885-1.06-.184zm1.415.246l1.061.184-.154.885-1.06-.184zm1.416.246l1.061.184-.154.885-1.06-.184z"/><rect x="277.746" y="379.47" width="3.951" height="12.642" rx="1.975" transform="rotate(9.853 277.746 379.47)" fill="#FFE4CC"/><path d="M276.395 387.254l3.892.676-.473 2.725a1.977 1.977 0 01-3.893-.676l.474-2.725z" fill="#796FE7"/><path d="M141 231.426h185v85a6 6 0 01-6 6H147a6 6 0 01-6-6v-85z" fill="#ABBFF1"/><path d="M137 231.426h185v81a6 6 0 01-6 6H143a6 6 0 01-6-6v-81z" fill="#DCD6EE"/><path fill-rule="evenodd" clip-rule="evenodd" d="M497.548 398.634c-.79-1.573-1.163-3.737-.249-4.653 1.097-1.099 2.42-1.107 4.092-.025-.041.166 3.884.038 4.06.02 1.517-.152 3.127.858 3.053 3.974.359.865.966 1.483 1.895 1.779 2.268.872 4.281 2.279 5.268 5.845.533 1.191 1.767 2.32 3.769 3.377 3.229 1.52 5.891 4.561 5.731 9.949-.446 5.5-2.208 9.978-8.437 10.992-3.971.675-7.165-2.278-10.224-5.857l-8.3-13.678c-.381-1.078-.481-2.181-.068-3.333-1.218-1.946-1.617-3.994-.588-6.218.207-.68.215-1.402-.002-2.172z" fill="#412424"/><circle cx="455" cy="410" r="8.5" stroke="#DED5FF"/><path fill-rule="evenodd" clip-rule="evenodd" d="M501.691 409.015l.003-4.3 3.43-1.224 1.444 5.555c1.714.007 3.482-.034 4.698.426l-7.571 8.946-8.225-7.576 2.12-1.759 4.101-.068z" fill="#FFE2D0"/><path fill-rule="evenodd" clip-rule="evenodd" d="M501.675 407.2v-1.685l3.541-1.636.449 1.684c-.733 1.413-3.003 2.218-3.379 2.103 0 0-.282-.048-.611-.466z" fill="#FCD1B7"/><path fill-rule="evenodd" clip-rule="evenodd" d="M495.987 457.907c1.014 7.563 2.358 15.214 4.548 23.092.323 2.431.825 4.594 1.542 6.431.684 4.798 1.772 9.614 2.815 14.427.806 4.807.153 7.154-1.428 7.939 1.363.961 2.868 1.202 4.572.427l-.57-52.046-11.479-.27z" fill="#FFD6BC"/><path fill-rule="evenodd" clip-rule="evenodd" d="M497.19 512.912c-.262.007-.17-.47-.057-.658.809-1.344 3.328-2.429 6.316-2.516 1.56.896 3.08.985 4.57.422.492.802.393 1.686.029 2.591l-10.858.161zm43.65-55.621l1.511-1.172c.429-.301.851-.139 1.168.388 1.426 2.718 2.839 5.574 4.469 8.462.426.755.049 1.025-.192 1.003-2.348-.218-4.527-2.742-5.294-4.685-.052-1.63-.073-3.295-1.662-3.996z" fill="#B78260"/><path fill-rule="evenodd" clip-rule="evenodd" d="M502.192 457.44l11.507-.308c-.31 3.572-.732 7.146-1.49 10.727 7.65-2.975 15.799-5.474 23.958-7.964 1.906-.692 3.415-1.625 4.739-2.669 1.536.71 2.067 2.076 1.64 4.069-.693-.27-1.444-.243-2.269.035-5.864 2.184-16.251 8.665-26.003 14.542-3.455 1.986-5.888 1.637-7.251-.882-2.499-5.541-3.901-11.463-4.831-17.55z" fill="#FFE2D0"/><path fill-rule="evenodd" clip-rule="evenodd" d="M467.164 412.176c1.964.097 3.893.708 5.753 2.326 3.304 1.701 6.634 2.983 10.006 3.59 2.563.437 5.073.64 7.409.084 1.961-.835 3.373-3.024 3.676-4.339.286-1.235.119-1.914.412-2.651.498-1.256 1.916-2.08 3.427-2.137l2.649 4.796c-.494 3.089-1.546 5.904-4.567 7.755-4.2 2.105-8.443 1.616-12.68 1.516a72.43 72.43 0 01-11.193-6.614c.022-2.003-3.301-3.955-4.892-4.326z" fill="#FFD6BC"/><path fill-rule="evenodd" clip-rule="evenodd" d="M498.189 409.082c1.153 3.17 1.015 6.933-.989 11.554 0 0 1.533 6.102 1.286 8.032-.107.833-9.688 7.965-8.466 30.806.276 1.203.953 1.911 2.207 1.803l23.791-.2c.956-.005 1.561-.856 1.744-2.407 1.073-8.486-2.453-24.247-7.933-29.531-.645-.622 1.931-6.072 1.946-11.754l-1.58-8.079-2.603-.257s-1.123 2.638-3.682 2.721c-2.983.097-4.117-2.72-4.117-2.72l-1.604.032z" fill="#EFB239"/><path fill-rule="evenodd" clip-rule="evenodd" d="M498.185 425.533c.14.898.243 1.69.261 2.332 0 0 4.584 1.517 7.525-.004 2.891-1.495 4.358-4.482 5.542-7.705.265-2.223.281-4.302.092-6.384l-5.089-.974c-2.358 2.352-5.019 3.754-8.049 3.774-.275 1.249-.694 2.48-1.188 3.702l.906 5.259z" fill="#DDA535"/><circle cx="466.568" cy="418.829" r="6.716" fill="#6DCAFF"/><path fill-rule="evenodd" clip-rule="evenodd" d="M465.022 426.294c-.636-.029-1.376-.608-1.19-.799.254-.262.748-.308 1.642-.247 1.107.05 2.438-.187 2.906-.379.239-.097.142-.668-.096-.769-.674-.285-1.54-.14-1.847-.281-.391-.181-.448-.428.02-.586.562-.19 2.161-.266 2.728-.225.835.059 1.55.238 2.343.205 3.739-.16 13.066-.329 20.092-1.164 6.683-1.63 12.103-4.327 14.893-9.241.164-1.786 1.046-2.993 2.823-3.48 2.6-.192 4.196.887 4.21 3.968-1.213 5.516-5.981 8.749-11.314 11.619-5.221 1.755-11.728 2.225-19.055 1.875-3.933-.159-10.308-1.616-11.879-1.442-1.231 1.18-3.724 1.114-6.276.946zm33.679-28.757c.003 3.556.141 6.935 3.175 9.185 2.592-.064 2.936-1.133 4.579-2.59 1.616-1.432 2.624-4.84 1.167-6.707-1.738-2.304-4.244-2.86-6.158-2.215-1.303.439-2.113 1.245-2.763 2.327z" fill="#FFE2D0"/><path fill-rule="evenodd" clip-rule="evenodd" d="M499.906 397.695s-3.304.161-2.993-2.507c.251-2.15 2.17-2.631 4.469-1.29.032.32 3.627-.017 4.05-.003 3.202.104 3.67 3.636 3.215 6.26-4.702.264-7.527-.609-8.741-2.46z" fill="#583B3B"/><path fill-rule="evenodd" clip-rule="evenodd" d="M383.95 111.742c2.46 3.562 6.591 8.2 10.023 9.334 3.433 1.134 6.426-.176 9.571-2.037l1.445 1.305c-2.52 3.247-5.536 5.091-10.488 5.053-7.524-.718-11.824-6.036-16.272-11.002l5.721-2.653z" fill="#F5D5C8"/><path fill-rule="evenodd" clip-rule="evenodd" d="M378.952 103.377c1.39-.375 2.999 6.098 5.842 9.096l-4.963 1.777-2.891-8.955 2.012-1.918z" fill="#84D65E"/><path fill-rule="evenodd" clip-rule="evenodd" d="M367.398 103.054c.768-1.608 1.253-3.38 1.449-5.322l4.728-.044c-.089 1.648-.143 3.306-.074 4.997.77.224 1.576.296 2.48.264-.825 1.48-2.51 2.584-4.244 3.431-2.548-.735-3.973-1.824-4.339-3.326z" fill="#FFE2D0"/><path fill-rule="evenodd" clip-rule="evenodd" d="M373.549 97.688l-.097 2.928s-.946.822-2.046.609c-1.275-.247-2.846-1.693-2.846-1.693l.269-1.818 4.72-.026z" fill="#F5D5C8"/><path fill-rule="evenodd" clip-rule="evenodd" d="M370.95 204.309c-.511 1.013-.654 2.036-.109 3.08 0 0 9.07.2 10.849-.019.511-.063.093-.694-.135-.888-.857-.732-2.424-1.576-6.043-2.289-1.832.592-3.276.496-4.562.116z" fill="#262E26"/><path fill-rule="evenodd" clip-rule="evenodd" d="M381.239 140.367a262.563 262.563 0 01-2.946 28.918c-1.025 9.094-1.887 24.768-3.297 34.245-.044.297.017.474.374.67-1.174.463-3.339.615-4.531.181-.848-18.53-.93-44.286-.4-63.143l10.8-.871z" fill="#D3BC44"/><path fill-rule="evenodd" clip-rule="evenodd" d="M350.557 199.836c-.093-.255-2.105 1.379-2.113 2.129 1.57 2.374 4.044 3.846 6.659 5.179 0 0 2.7.184 3.253.033.301-.082.602-.664.059-.935-2.109-1.054-3.929-2.6-4.839-3.982-1.079-.169-3.019-2.424-3.019-2.424z" fill="#262E26"/><path fill-rule="evenodd" clip-rule="evenodd" d="M360.703 140.739c-.185 8.131-.097 16.84.2 25.994-3.898 10.106-7.954 23.805-10.395 33.148.331.567 2.871 2.675 3.093 2.395.272-2.491 1.059-4.315 1.744-5.621 4.158-7.929 8.458-15.74 12.801-23.389 2.5-4.443 3.062-8.544 3.924-12.982 1.1-5.655 2.673-20.948 2.673-20.948l-14.04 1.403z" fill="#FCE156"/><path fill-rule="evenodd" clip-rule="evenodd" d="M360.527 141.995c-.336-4.541-.407-9.098.654-13.721.905-6.079.992-11.996 1.011-17.899-.378-3.027-.002-5.532 1.651-7.155 1.083-.411 2.277-.484 3.584-.22.67 1.497 1.89 2.494 4.048 2.568 1.765-.065 2.915-1.124 3.834-2.557.837-.201 1.789-.188 2.798-.069 1.543.348 2.338 1.345 2.324 3.043 2.064 11.845 1.552 23.397.857 34.859-5.164 1.983-12.624 1.875-20.761 1.151z" fill="#B6F0D1"/><path fill-rule="evenodd" clip-rule="evenodd" d="M369.99 109.163c4.974 5.045 13.168 7.768 32.218 7.616 1.334-.914 2.741-1.484 3.842-1.472 1.211.213 2.312 1.293 2.635 2.026.282.641.043 1.512-.194 1.819-.208.267-.851.483-.861-.225 0 0 .034-.616-.169-1.156-.191-.508-.763-.965-1.557-.954-1.104.015-2.172.721-2.173 1.543-.001 1.045.887 1.555.887 1.555l1.265.273c.479.137.327.377-.323.662-.378.166-1.151.163-1.963-.12-.624-.217-1.398-1.194-1.398-1.194-5.306 1.059-11.419 1.403-17.829 1.484-2.445-.156-4.807-.561-7.151-1.026-5.293-1.117-8.529-3.472-11.367-6.066l4.138-4.765z" fill="#FFE2D0"/><path fill-rule="evenodd" clip-rule="evenodd" d="M362.177 110.131c-.838-1.954-2.121-4.685-.298-6.372.861-.796 2.408-1.207 3.452-.675 1.743.889 3.502 4.478 3.502 4.478.681 1.217 1.818 2.305 3.136 3.342l-4.81 5.167s-4.102-3.888-4.982-5.94z" fill="#84D65E"/><path fill-rule="evenodd" clip-rule="evenodd" d="M375.365 94.074c1.402-.654 1.789-3.069 1.474-6.702l-8.007.059c-1.539.1-2.15 1.093-2.53 2.307-.133 1.242-.046 2.45.155 3.643-.153.682-.253 1.372-.184 2.082.208.917.805 1.312 1.497 1.579l7.595-2.968z" fill="#3F3F3F"/><path fill-rule="evenodd" clip-rule="evenodd" d="M366.591 95.169c-.702-.94-.596-2.255.057-2.572.459-.221 1.044.158 1.308 1.197l.625.246c.367-1.306.831-2.745 1.717-2.827 1.29-.12 2.873-.16 3.721.027.571.126 1.187.542 1.367 1.098.229.71.069 2.076.007 3.155-.268 2.29-.988 4.071-2.758 4.661-3.133.461-4.746-1.962-6.044-4.985z" fill="#FFE2D0"/><path fill-rule="evenodd" clip-rule="evenodd" d="M338.515 386.605c-2.344 4.019-3.017 3.051-5.409-1.232-1.729-3.094-5.008-16.466-5.008-16.466.722-3.513.366-5.895-.675-7.558-.256-.162-.456-.114-.591.182.198 1.246.442 3.386.072 3.975-.282.447-.695.348-.945-.223-.183-.417-.207-.633-.307-1.195-.178-1.01-.767-.374-.764.061-.024 2.069.264 4.011 1.022 5.759.229 5.228 3.015 23.728 7.864 23.466 7.338-1.042 6.342.584 10.475-4.463l-5.734-2.306z" fill="#F5D5C8"/><path fill-rule="evenodd" clip-rule="evenodd" d="M343.011 378.288c-1.379-.303-2.663 6.086-5.312 9.141l4.942 1.508 2.427-8.868-2.057-1.781z" fill="#FF5F55"/><path fill-rule="evenodd" clip-rule="evenodd" d="M354.365 377.396c-.825-1.533-1.38-3.242-1.66-5.126l-4.633.171c.161 1.604.289 3.219.298 4.873-.744.253-1.531.36-2.417.37.874 1.406 2.575 2.407 4.312 3.155 2.463-.833 3.81-1.96 4.1-3.443z" fill="#FFE2D0"/><path fill-rule="evenodd" clip-rule="evenodd" d="M348.146 372.436l.227 2.854s.964.759 2.032.501c1.237-.299 2.712-1.781 2.712-1.781l-.346-1.762-4.625.188z" fill="#F5D5C8"/><path fill-rule="evenodd" clip-rule="evenodd" d="M355.501 476.392c.546.964.732 1.956.246 3 0 0-8.877.606-10.629.473-.503-.038-.122-.672.092-.872.807-.754 2.304-1.648 5.817-2.507 1.821.494 3.232.335 4.474-.094z" fill="#B2CEB2"/><path fill-rule="evenodd" clip-rule="evenodd" d="M342.424 414.484a255.678 255.678 0 004.194 28.082c1.415 8.827 2.968 24.082 4.778 33.265.057.288.005.463-.336.671 1.171.398 3.299.448 4.447-.03-.008-18.119-1.091-43.253-2.464-61.629l-10.619-.359z" fill="#6596EE"/><path fill-rule="evenodd" clip-rule="evenodd" d="M375.206 471.159c.08-.253 2.124 1.25 2.166 1.981-1.43 2.388-3.788 3.937-6.289 5.356 0 0-2.637.302-3.185.18-.299-.066-.62-.621-.1-.91 2.018-1.124 3.731-2.715 4.56-4.105 1.049-.214 2.848-2.502 2.848-2.502z" fill="#B2CEB2"/><path fill-rule="evenodd" clip-rule="evenodd" d="M362.573 413.967c.549 7.925.856 16.426.979 25.372 4.276 9.684 8.869 22.866 11.683 31.872-.299.569-2.692 2.741-2.922 2.478-.379-2.419-1.233-4.163-1.963-5.406-4.432-7.548-8.998-14.974-13.598-22.24-2.65-4.222-3.385-8.199-4.431-12.489-1.333-5.469-3.566-20.319-3.566-20.319l13.818.732z" fill="#8EB6FF"/><path fill-rule="evenodd" clip-rule="evenodd" d="M362.859 415.089c.123-4.445-.013-8.895-1.261-13.358-1.162-5.891-1.514-11.66-1.8-17.419.233-2.971-.248-5.398-1.941-6.906-1.079-.352-2.252-.37-3.52-.053-.589 1.492-1.739 2.52-3.85 2.69-1.732.017-2.907-.964-3.872-2.321-.829-.158-1.761-.102-2.744.059-1.496.41-2.23 1.42-2.139 3.075-1.486 11.652-.462 22.9.737 34.052 5.148 1.701 12.451 1.257 20.39.181z" fill="#F57482"/><path fill-rule="evenodd" clip-rule="evenodd" d="M352.084 383.432c-2.635 2.92-5.18 7.564-11.336 9.171-4.642 1.211-17.962-1.289-17.952-1.972.047-3.141-1.945-6.459-2.755-6.97-.266-.168-.413-.081-.383.327.067.894 1.808 3.627 1.085 4.884-.83.753-.569-1.413-1.583-2.121-1.129-.788.677 5.414 2.428 6.523.604.383 10.201 4.433 16.484 4.221 2.388-.263 5.727-.803 8.118-1.887 4.955-2.249 7.797-4.988 10.163-7.714l-4.269-4.462z" fill="#FFE2D0"/><path fill-rule="evenodd" clip-rule="evenodd" d="M359.752 384.075c.733-1.944 1.867-4.667.004-6.23-.879-.738-2.413-1.069-3.412-.502-1.667.946-3.228 4.528-3.228 4.528-.612 1.218-1.851 2.224-3.095 3.296l5.119 4.93s3.843-3.98 4.612-6.022z" fill="#FF5F55"/><path fill-rule="evenodd" clip-rule="evenodd" d="M346.106 368.94c-1.403-.574-2.693-5.284-1.747-6.472 1.986-2.493 7.847-.307 7.847-.307 1.512.028 2.155.969 2.583 2.136.186 1.206.156 2.39.012 3.562.181.659.31 1.328.275 2.023-.162.905-.729 1.317-1.395 1.609l-7.575-2.551z" fill="#303030"/><path fill-rule="evenodd" clip-rule="evenodd" d="M354.763 369.68c.646-.949.483-2.227-.172-2.506-.46-.196-1.015.201-1.227 1.227l-.601.268c-.419-1.258-.938-2.64-1.81-2.681-1.269-.058-2.822-.025-3.644.196-.553.149-1.139.583-1.289 1.134-.192.702.026 2.028.135 3.078.366 2.223 1.152 3.927 2.913 4.423 3.09.307 4.561-2.131 5.695-5.139z" fill="#FFE2D0"/><rect x="137.5" y="361.926" width="184" height="61" rx="2.5" stroke="#7C60DB"/><circle cx="405.5" cy="117.926" r="2.5" fill="#482A9E"/><path d="M321.185 400.26l25.988 97.875-1.526.409-26.247-97.953 1.785-.331z" fill="#5AB7C4"/><path fill="#5A7EC4" d="M341.333 478.483h36.346v1.58h-36.346zm3.161 11.852h36.346v1.58h-36.346zm-6.321-23.703h36.346v1.58h-36.346zm-3.16-11.853h36.346v1.58h-36.346zm-3.161-11.851h36.346v1.58h-36.346zm-3.161-11.852h36.346v1.58h-36.346zm-3.16-11.851h36.346v1.58h-36.346zm-3.161-11.853h36.346v1.58H322.37z"/><path d="M357.136 399.866l26.382 98.269-1.526.409-26.29-98.116 1.434-.562z" fill="#5A7EC4"/><path fill="#A5F4FF" d="M335.013 478.483h-35.556v1.58h35.556zm-3.161 11.852h-35.556v1.58h35.556zm6.321-23.703h-36.346v1.58h36.346zm3.95-11.853h-37.136v1.58h37.136zm3.161-11.851h-37.136v1.58h37.136zm2.37-11.852h-36.346v1.58h36.346zm3.16-11.851h-35.556v1.58h35.556zm3.162-11.853H317.63v1.58h36.346z"/><path d="M355.612 400.183l-26.198 97.953 1.523.409 26.199-98.679c-.748-.159-1.057-.058-1.524.317zm-36.235-.165l-26.242 98.116 1.524.409 26.526-98.282c-.514-.524-1.08-.698-1.808-.243z" fill="#A5F4FF"/><circle cx="377" cy="410" r="8.5" stroke="#DED5FF"/><circle cx="156.5" cy="225.5" r="2" stroke="#fff"/><rect x="145" y="225" width="7" height="1" rx=".5" fill="#fff"/><rect x="139.09" y="223.058" width="5.71" height="1.157" rx=".579" transform="rotate(45 139.09 223.058)" fill="#fff"/><rect x="143.127" y="223.875" width="5.71" height="1.157" rx=".579" transform="rotate(135 143.127 223.875)" fill="#fff"/><rect x="222" y="221" width="167" height="9" rx="4.5" fill="#7C60DB"/><rect x="469" y="221" width="11" height="2" rx="1" fill="#7C60DB"/><rect x="469" y="224" width="11" height="2" rx="1" fill="#7C60DB"/><rect x="469" y="227" width="11" height="2" rx="1" fill="#7C60DB"/><circle cx="377" cy="410" r="6" fill="#6DCAFF"/><circle cx="403" cy="410" r="8.5" stroke="#DED5FF"/><circle cx="403" cy="410" r="6" fill="#6DCAFF"/><circle cx="429" cy="410" r="8.5" stroke="#DED5FF"/><circle cx="429" cy="410" r="6" fill="#6DCAFF"/><path d="M137 113.916l126-32.49v126H137v-93.51z" fill="url(#paint2_linear)"/><path d="M263 81.426l59 32.49v93.51h-59v-126z" fill="url(#paint3_linear)"/><path d="M149.4 110.838L137 123.19v1.236l14-14-1.6.412zM241.5 87l21.481 10.103L278.5 90l3.5 2-19.019 7.426L237.5 88l4-1zm73.955 23.226l-1.455-.8 8 12v-1.6l-6.545-9.6zM146.5 111.5l-4.5 1.131 89.035-84.205H233L146.5 111.5z" fill="#212233"/><path d="M317.5 111.5L231 28.426h1.982l88.018 85-3.5-1.926z" fill="#212233"/><path d="M257 83l-26-54.574h2.013L261 82l-4 1z" fill="#3A3C59"/><path d="M288 104.527l-15-8.101v24.709l15 7.291v-23.899zm0 55.054l-15-3.155v28h15v-24.845z" fill="#fff"/><path d="M273 207.426h15v-20l-15 .8v19.2z" fill="#242955"/><path d="M304 113.768l-13-7.342v22.649l13 6.351v-21.658z" fill="#fff"/><path d="M304 138.097l-13-5.671v24.455l13 3.545v-22.329z" fill="#242955"/><path d="M304 163.063l-13-2.637v24l13-.394v-20.969zm-13 44.363h13v-21l-13 1.166v19.834zm27-85.264l-11-6.736v21.13l11 5.87v-20.264zm0 21.694l-11-5.43v22.75l11 3.25v-20.57z" fill="#fff"/><path d="M318 166.118l-11-2.692v20l11-.385v-16.923z" fill="#242955"/><rect x="166.716" y="249.348" width="20.543" height="22.914" rx="10.272" fill="silver"/><rect x="153.284" y="237.496" width="46.617" height="22.914" rx="3" fill="#fff"/><circle cx="176.988" cy="265.15" r="6.321" fill="#FEFFDF"/><path d="M179.358 273.052a2.37 2.37 0 11-4.741 0c0-1.309 0-2.37 2.371-2.37 2.37 0 2.37 1.061 2.37 2.37z" fill="#F2F5D0"/><rect x="183.309" y="254.879" width="3.951" height="12.642" rx="1.975" fill="#FFE4CC"/><path d="M183.309 262.78h3.95v2.766a1.975 1.975 0 11-3.95 0v-2.766z" fill="#C06FE7"/><path fill="#C4C4C4" d="M173.037 241.446h7.901v6.321h-7.901z"/><path fill="#656565" d="M163.556 243.027h26.074v.79h-26.074z"/><rect x="184.884" y="250.715" width="2.514" height="4.309" rx="1.257" transform="rotate(-15 184.884 250.715)" fill="#656565"/><rect x="184.884" y="250.715" width="2.514" height="2.514" rx="1.257" transform="rotate(-15 184.884 250.715)" fill="gray"/><rect x="186.156" y="251.304" width=".359" height=".718" rx=".18" transform="rotate(-15 186.156 251.304)" fill="#C4C4C4"/><path d="M175.058 243.027l-2.021-1.581h7.901l-2.021 1.581h-3.859z" fill="#979797"/><path fill="#656565" d="M163.518 250.603h17.595v5.745h-17.595z"/><path fill="#C4C4C4" d="M163.877 250.961h1.077v.898h-1.077zm1.436 0h1.077v.898h-1.077zm1.436 0h1.077v.898h-1.077zm-2.872 1.078h1.077v.898h-1.077zm1.436 0h1.077v.898h-1.077zm1.436 0h1.077v.898h-1.077zm-2.872 1.077h1.077v.898h-1.077zm1.436 0h1.077v.898h-1.077zm1.436 0h1.077v.898h-1.077zm1.437-2.155h1.077v.898h-1.077zm1.436 0h1.077v.898h-1.077zm1.437 0h1.077v.898h-1.077zm-2.873 1.078h1.077v.898h-1.077zm1.436 0h1.077v.898h-1.077zm1.437 0h1.077v.898h-1.077zm-2.873 1.077h1.077v.898h-1.077zm1.436 0h1.077v.898h-1.077zm1.437 0h1.077v.898h-1.077zm1.436-2.155h1.077v.898h-1.077zm1.437 0h1.077v.898h-1.077zm1.435 0h1.077v.898h-1.077zm-2.872 1.078h1.077v.898h-1.077zm1.437 0h1.077v.898h-1.077zm1.435 0h1.077v.898h-1.077zm-2.872 1.077h1.077v.898h-1.077zm1.437 0h1.077v.898h-1.077zm1.435 0h1.077v.898h-1.077zm1.437-2.155h1.077v.898h-1.077zm1.436 0h1.077v.898h-1.077zm1.437 0h1.077v.898h-1.077zm-2.873 1.078h1.077v.898h-1.077zm1.436 0h1.077v.898h-1.077zm1.437 0h1.077v.898h-1.077zm-2.873 1.077h1.077v1.077h-1.077zm1.436 0h1.077v.898h-1.077zm1.437 0h1.077v.898h-1.077zm-15.8 1.077h1.077v.898h-1.077zm1.436 0h1.077v.898h-1.077zm1.436 0h1.077v.898h-1.077zm1.437 0h1.077v.898h-1.077zm1.436 0h1.077v.898h-1.077zm1.437 0h1.077v.898h-1.077zm1.436 0h1.077v.898h-1.077zm1.437 0h1.077v.898h-1.077zm1.435 0h1.436v.898h-1.436zm1.437 0h1.077v.898h-1.077zm1.436 0h1.077v.898h-1.077zm1.437 0h1.077v.898h-1.077zm-15.8 1.078h1.077v.898h-1.077zm1.436 0h1.077v.898h-1.077zm1.436 0h1.077v.898h-1.077zm1.437 0h5.386v.898h-5.386zm5.746 0h1.077v.898h-1.077zm1.435 0h1.077v.898h-1.077zm1.437 0h1.077v.898h-1.077zm1.436 0h1.077v.898h-1.077zm1.437 0h1.077v.898h-1.077z"/><rect x="166.716" y="254.879" width="3.951" height="12.642" rx="1.975" fill="#FFE4CC"/><path d="M166.716 262.78h3.95v2.766a1.975 1.975 0 11-3.95 0v-2.766z" fill="#C06FE7"/><rect x="166.716" y="288.063" width="20.543" height="22.914" rx="10.272" fill="silver"/><rect x="153.284" y="276.212" width="46.617" height="22.914" rx="3" fill="#fff"/><circle cx="176.988" cy="303.866" r="6.321" fill="#4F4F4F"/><rect x="184.099" y="293.595" width="3.951" height="12.642" rx="1.975" fill="#FFE4CC"/><path d="M184.099 301.496h3.95v2.766a1.975 1.975 0 01-3.95 0v-2.766z" fill="#AB1515"/><path fill="#C4C4C4" d="M173.037 280.162h7.901v6.321h-7.901z"/><path fill="#656565" d="M163.556 281.743h26.074v.79h-26.074z"/><rect x="184.884" y="289.431" width="2.514" height="4.309" rx="1.257" transform="rotate(-15 184.884 289.431)" fill="#656565"/><rect x="184.884" y="289.431" width="2.514" height="2.514" rx="1.257" transform="rotate(-15 184.884 289.431)" fill="gray"/><rect x="186.156" y="290.02" width=".359" height=".718" rx=".18" transform="rotate(-15 186.156 290.02)" fill="#C4C4C4"/><path d="M175.058 281.742l-2.021-1.58h7.901l-2.021 1.58h-3.859z" fill="#979797"/><path fill="#656565" d="M163.518 289.318h17.595v5.745h-17.595z"/><path fill="#C4C4C4" d="M163.877 289.678h1.077v.898h-1.077zm1.436-.001h1.077v.898h-1.077zm1.436 0h1.077v.898h-1.077zm-2.872 1.078h1.077v.898h-1.077zm1.436 0h1.077v.898h-1.077zm1.436 0h1.077v.898h-1.077zm-2.872 1.077h1.077v.898h-1.077zm1.436 0h1.077v.898h-1.077zm1.436 0h1.077v.898h-1.077zm1.437-2.155h1.077v.898h-1.077zm1.436 0h1.077v.898h-1.077zm1.437 0h1.077v.898h-1.077zm-2.873 1.078h1.077v.898h-1.077zm1.436 0h1.077v.898h-1.077zm1.437 0h1.077v.898h-1.077zm-2.873 1.077h1.077v.898h-1.077zm1.436 0h1.077v.898h-1.077zm1.437 0h1.077v.898h-1.077zm1.436-2.155h1.077v.898h-1.077zm1.437 0h1.077v.898h-1.077zm1.435 0h1.077v.898h-1.077zm-2.872 1.078h1.077v.898h-1.077zm1.437 0h1.077v.898h-1.077zm1.435 0h1.077v.898h-1.077zm-2.872 1.077h1.077v.898h-1.077zm1.437 0h1.077v.898h-1.077zm1.435 0h1.077v.898h-1.077zm1.437-2.155h1.077v.898h-1.077zm1.436 0h1.077v.898h-1.077zm1.437 0h1.077v.898h-1.077zm-2.873 1.078h1.077v.898h-1.077zm1.436 0h1.077v.898h-1.077zm1.437 0h1.077v.898h-1.077zm-2.873 1.077h1.077v1.077h-1.077zm1.436 0h1.077v.898h-1.077zm1.437 0h1.077v.898h-1.077zm-15.8 1.077h1.077v.898h-1.077zm1.436 0h1.077v.898h-1.077zm1.436 0h1.077v.898h-1.077zm1.437 0h1.077v.898h-1.077zm1.436 0h1.077v.898h-1.077zm1.437 0h1.077v.898h-1.077zm1.436 0h1.077v.898h-1.077zm1.437 0h1.077v.898h-1.077zm1.435 0h1.436v.898h-1.436zm1.437 0h1.077v.898h-1.077zm1.436 0h1.077v.898h-1.077zm1.437 0h1.077v.898h-1.077zm-15.8 1.077h1.077v.898h-1.077zm1.436 0h1.077v.898h-1.077zm1.436 0h1.077v.898h-1.077zm1.437 0h5.386v.898h-5.386zm5.746 0h1.077v.898h-1.077zm1.435 0h1.077v.898h-1.077zm1.437 0h1.077v.898h-1.077zm1.436 0h1.077v.898h-1.077zm1.437 0h1.077v.898h-1.077z"/><rect x="165.926" y="293.595" width="3.951" height="12.642" rx="1.975" fill="#FFE4CC"/><path d="M165.926 301.496h3.95v2.766a1.975 1.975 0 01-3.95 0v-2.766z" fill="#AB1515"/><rect x="220.444" y="249.348" width="20.543" height="22.914" rx="10.272" fill="silver"/><rect x="207.013" y="237.496" width="46.617" height="22.914" rx="3" fill="#fff"/><circle cx="230.716" cy="265.15" r="6.321" fill="#23190F"/><rect x="237.827" y="254.879" width="3.951" height="12.642" rx="1.975" fill="#FFE4CC"/><path d="M237.827 262.78h3.951v2.766a1.976 1.976 0 01-3.951 0v-2.766z" fill="#80E76F"/><path fill="#C4C4C4" d="M226.766 241.446h7.901v6.321h-7.901z"/><path fill="#656565" d="M217.284 243.027h26.074v.79h-26.074z"/><rect x="238.612" y="250.715" width="2.514" height="4.309" rx="1.257" transform="rotate(-15 238.612 250.715)" fill="#656565"/><rect x="238.612" y="250.715" width="2.514" height="2.514" rx="1.257" transform="rotate(-15 238.612 250.715)" fill="gray"/><rect x="239.885" y="251.304" width=".359" height=".718" rx=".18" transform="rotate(-15 239.885 251.304)" fill="#C4C4C4"/><path d="M228.787 243.027l-2.021-1.581h7.901l-2.021 1.581h-3.859z" fill="#979797"/><path fill="#656565" d="M217.246 250.603h17.595v5.745h-17.595z"/><path fill="#C4C4C4" d="M217.604 250.961h1.077v.898h-1.077zm1.438 0h1.077v.898h-1.077zm1.436 0h1.077v.898h-1.077zm-2.874 1.078h1.077v.898h-1.077zm1.438 0h1.077v.898h-1.077zm1.436 0h1.077v.898h-1.077zm-2.874 1.077h1.077v.898h-1.077zm1.438 0h1.077v.898h-1.077zm1.436 0h1.077v.898h-1.077zm1.436-2.155h1.077v.898h-1.077zm1.437 0h1.077v.898h-1.077zm1.436 0h1.077v.898h-1.077zm-2.873 1.078h1.077v.898h-1.077zm1.437 0h1.077v.898h-1.077zm1.436 0h1.077v.898h-1.077zm-2.873 1.077h1.077v.898h-1.077zm1.437 0h1.077v.898h-1.077zm1.436 0h1.077v.898h-1.077zm1.437-2.155h1.077v.898h-1.077zm1.436 0h1.077v.898h-1.077zm1.436 0h1.077v.898h-1.077zm-2.872 1.078h1.077v.898h-1.077zm1.436 0h1.077v.898h-1.077zm1.436 0h1.077v.898h-1.077zm-2.872 1.077h1.077v.898h-1.077zm1.436 0h1.077v.898h-1.077zm1.436 0h1.077v.898h-1.077zm1.436-2.155h1.077v.898h-1.077zm1.437 0h1.077v.898h-1.077zm1.436 0h1.077v.898h-1.077zm-2.873 1.078h1.077v.898h-1.077zm1.437 0h1.077v.898h-1.077zm1.436 0h1.077v.898h-1.077zm-2.873 1.077h1.077v1.077h-1.077zm1.437 0h1.077v.898h-1.077zm1.436 0h1.077v.898h-1.077zm-15.801 1.077h1.077v.898h-1.077zm1.438 0h1.077v.898h-1.077zm1.436 0h1.077v.898h-1.077zm1.436 0h1.077v.898h-1.077zm1.437 0h1.077v.898h-1.077zm1.436 0h1.077v.898h-1.077zm1.437 0h1.077v.898h-1.077zm1.436 0h1.077v.898h-1.077zm1.436 0h1.436v.898h-1.436zm1.436 0h1.077v.898h-1.077zm1.437 0h1.077v.898h-1.077zm1.436 0h1.077v.898h-1.077zm-15.801 1.078h1.077v.898h-1.077zm1.438 0h1.077v.898h-1.077zm1.436 0h1.077v.898h-1.077zm1.436 0h5.386v.898h-5.386zm5.746 0h1.077v.898h-1.077zm1.436 0h1.077v.898h-1.077zm1.436 0h1.077v.898h-1.077zm1.437 0h1.077v.898h-1.077zm1.436 0h1.077v.898h-1.077z"/><rect x="219.654" y="254.879" width="3.951" height="12.642" rx="1.975" fill="#FFE4CC"/><path d="M219.654 262.78h3.951v2.766a1.975 1.975 0 11-3.951 0v-2.766z" fill="#80E76F"/><rect x="220.444" y="288.063" width="20.543" height="22.914" rx="10.272" fill="silver"/><rect x="207.013" y="276.212" width="46.617" height="22.914" rx="3" fill="#fff"/><circle cx="230.716" cy="303.866" r="6.321" fill="#563A1F"/><rect x="237.827" y="293.595" width="3.951" height="12.642" rx="1.975" fill="#FFE4CC"/><path d="M237.827 301.496h3.951v2.766a1.976 1.976 0 01-3.951 0v-2.766z" fill="#9D922F"/><path fill="#C4C4C4" d="M226.766 280.162h7.901v6.321h-7.901z"/><path fill="#656565" d="M217.284 281.743h26.074v.79h-26.074z"/><rect x="238.612" y="289.431" width="2.514" height="4.309" rx="1.257" transform="rotate(-15 238.612 289.431)" fill="#656565"/><rect x="238.612" y="289.431" width="2.514" height="2.514" rx="1.257" transform="rotate(-15 238.612 289.431)" fill="gray"/><rect x="239.885" y="290.02" width=".359" height=".718" rx=".18" transform="rotate(-15 239.885 290.02)" fill="#C4C4C4"/><path d="M228.787 281.742l-2.021-1.58h7.901l-2.021 1.58h-3.859z" fill="#979797"/><path fill="#656565" d="M217.246 289.318h17.595v5.745h-17.595z"/><path fill="#C4C4C4" d="M217.604 289.677h1.077v.898h-1.077zm1.438 0h1.077v.898h-1.077zm1.436 0h1.077v.898h-1.077zm-2.874 1.078h1.077v.898h-1.077zm1.438 0h1.077v.898h-1.077zm1.436 0h1.077v.898h-1.077zm-2.874 1.077h1.077v.898h-1.077zm1.438 0h1.077v.898h-1.077zm1.436 0h1.077v.898h-1.077zm1.436-2.155h1.077v.898h-1.077zm1.437 0h1.077v.898h-1.077zm1.436 0h1.077v.898h-1.077zm-2.873 1.078h1.077v.898h-1.077zm1.437 0h1.077v.898h-1.077zm1.436 0h1.077v.898h-1.077zm-2.873 1.077h1.077v.898h-1.077zm1.437 0h1.077v.898h-1.077zm1.436 0h1.077v.898h-1.077zm1.437-2.155h1.077v.898h-1.077zm1.436 0h1.077v.898h-1.077zm1.436 0h1.077v.898h-1.077zm-2.872 1.078h1.077v.898h-1.077zm1.436 0h1.077v.898h-1.077zm1.436 0h1.077v.898h-1.077zm-2.872 1.077h1.077v.898h-1.077zm1.436 0h1.077v.898h-1.077zm1.436 0h1.077v.898h-1.077zm1.436-2.155h1.077v.898h-1.077zm1.437 0h1.077v.898h-1.077zm1.436 0h1.077v.898h-1.077zm-2.873 1.078h1.077v.898h-1.077zm1.437 0h1.077v.898h-1.077zm1.436 0h1.077v.898h-1.077zm-2.873 1.077h1.077v1.077h-1.077zm1.437 0h1.077v.898h-1.077zm1.436 0h1.077v.898h-1.077zm-15.801 1.077h1.077v.898h-1.077zm1.438 0h1.077v.898h-1.077zm1.436 0h1.077v.898h-1.077zm1.436 0h1.077v.898h-1.077zm1.437 0h1.077v.898h-1.077zm1.436 0h1.077v.898h-1.077zm1.437 0h1.077v.898h-1.077zm1.436 0h1.077v.898h-1.077zm1.436 0h1.436v.898h-1.436zm1.436 0h1.077v.898h-1.077zm1.437 0h1.077v.898h-1.077zm1.436 0h1.077v.898h-1.077zm-15.801 1.077h1.077v.898h-1.077zm1.438 0h1.077v.898h-1.077zm1.436 0h1.077v.898h-1.077zm1.436 0h5.386v.898h-5.386zm5.746 0h1.077v.898h-1.077zm1.436 0h1.077v.898h-1.077zm1.436 0h1.077v.898h-1.077zm1.437 0h1.077v.898h-1.077zm1.436 0h1.077v.898h-1.077z"/><rect x="219.654" y="293.595" width="3.951" height="12.642" rx="1.975" fill="#FFE4CC"/><path d="M219.654 301.496h3.951v2.766a1.975 1.975 0 01-3.951 0v-2.766z" fill="#9D922F"/><rect x="274.172" y="249.348" width="20.543" height="22.914" rx="10.272" fill="silver"/><rect x="260.74" y="237.496" width="46.617" height="22.914" rx="3" fill="#fff"/><circle cx="284.444" cy="265.15" r="6.321" fill="#563A1F"/><rect x="291.555" y="254.879" width="3.951" height="12.642" rx="1.975" fill="#FFE4CC"/><path d="M291.555 262.78h3.95v2.766a1.975 1.975 0 11-3.95 0v-2.766z" fill="#924848"/><path fill="#C4C4C4" d="M280.493 241.446h7.901v6.321h-7.901z"/><path fill="#656565" d="M271.012 243.027h26.074v.79h-26.074z"/><rect x="292.34" y="250.715" width="2.514" height="4.309" rx="1.257" transform="rotate(-15 292.34 250.715)" fill="#656565"/><rect x="292.34" y="250.715" width="2.514" height="2.514" rx="1.257" transform="rotate(-15 292.34 250.715)" fill="gray"/><rect x="293.613" y="251.304" width=".359" height=".718" rx=".18" transform="rotate(-15 293.613 251.304)" fill="#C4C4C4"/><path d="M282.514 243.027l-2.021-1.581h7.901l-2.021 1.581h-3.859z" fill="#979797"/><path fill="#656565" d="M270.974 250.603h17.595v5.745h-17.595z"/><path fill="#C4C4C4" d="M271.332 250.961h1.077v.898h-1.077zm1.438 0h1.077v.898h-1.077zm1.435 0h1.077v.898h-1.077zm-2.873 1.078h1.077v.898h-1.077zm1.438 0h1.077v.898h-1.077zm1.435 0h1.077v.898h-1.077zm-2.873 1.077h1.077v.898h-1.077zm1.438 0h1.077v.898h-1.077zm1.435 0h1.077v.898h-1.077zm1.437-2.155h1.077v.898h-1.077zm1.436 0h1.077v.898h-1.077zm1.437 0h1.077v.898h-1.077zm-2.873 1.078h1.077v.898h-1.077zm1.436 0h1.077v.898h-1.077zm1.437 0h1.077v.898h-1.077zm-2.873 1.077h1.077v.898h-1.077zm1.436 0h1.077v.898h-1.077zm1.437 0h1.077v.898h-1.077zm1.436-2.155h1.077v.898h-1.077zm1.436 0h1.077v.898h-1.077zm1.436 0h1.077v.898h-1.077zm-2.872 1.078h1.077v.898h-1.077zm1.436 0h1.077v.898h-1.077zm1.436 0h1.077v.898h-1.077zm-2.872 1.077h1.077v.898h-1.077zm1.436 0h1.077v.898h-1.077zm1.436 0h1.077v.898h-1.077zm1.437-2.155h1.077v.898h-1.077zm1.435 0h1.077v.898h-1.077zm1.438 0h1.077v.898h-1.077zm-2.873 1.078h1.077v.898h-1.077zm1.435 0h1.077v.898h-1.077zm1.438 0h1.077v.898h-1.077zm-2.873 1.077h1.077v1.077h-1.077zm1.435 0h1.077v.898h-1.077zm1.438 0h1.077v.898h-1.077zm-15.801 1.077h1.077v.898h-1.077zm1.438 0h1.077v.898h-1.077zm1.435 0h1.077v.898h-1.077zm1.437 0h1.077v.898h-1.077zm1.436 0h1.077v.898h-1.077zm1.437 0h1.077v.898h-1.077zm1.436 0h1.077v.898h-1.077zm1.436 0h1.077v.898h-1.077zm1.436 0h1.436v.898h-1.436zm1.437 0h1.077v.898h-1.077zm1.435 0h1.077v.898h-1.077zm1.438 0h1.077v.898h-1.077zm-15.801 1.078h1.077v.898h-1.077zm1.438 0h1.077v.898h-1.077zm1.435 0h1.077v.898h-1.077zm1.437 0h5.386v.898h-5.386zm5.745 0h1.077v.898h-1.077zm1.436 0h1.077v.898h-1.077zm1.437 0h1.077v.898h-1.077zm1.435 0h1.077v.898h-1.077zm1.438 0h1.077v.898h-1.077z"/><rect x="273.382" y="254.879" width="3.951" height="12.642" rx="1.975" fill="#FFE4CC"/><path d="M273.382 262.78h3.95v2.766a1.975 1.975 0 11-3.95 0v-2.766z" fill="#924848"/><rect x="274.172" y="288.063" width="20.543" height="22.914" rx="10.272" fill="silver"/><rect x="260.74" y="276.212" width="46.617" height="22.914" rx="3" fill="#fff"/><circle cx="284.444" cy="303.866" r="6.321" fill="#FDFFAC"/><rect x="291.555" y="293.595" width="3.951" height="12.642" rx="1.975" fill="#FFE4CC"/><path d="M291.555 301.496h3.95v2.766a1.975 1.975 0 01-3.95 0v-2.766z" fill="#796FE7"/><path fill="#C4C4C4" d="M280.493 280.162h7.901v6.321h-7.901z"/><path fill="#656565" d="M271.012 281.743h26.074v.79h-26.074z"/><rect x="292.34" y="289.431" width="2.514" height="4.309" rx="1.257" transform="rotate(-15 292.34 289.431)" fill="#656565"/><rect x="292.34" y="289.431" width="2.514" height="2.514" rx="1.257" transform="rotate(-15 292.34 289.431)" fill="gray"/><rect x="293.613" y="290.02" width=".359" height=".718" rx=".18" transform="rotate(-15 293.613 290.02)" fill="#C4C4C4"/><path d="M282.514 281.742l-2.021-1.58h7.901l-2.021 1.58h-3.859z" fill="#979797"/><path fill="#656565" d="M270.974 289.318h17.595v5.745h-17.595z"/><path fill="#C4C4C4" d="M271.332 289.677h1.077v.898h-1.077zm1.438 0h1.077v.898h-1.077zm1.435 0h1.077v.898h-1.077zm-2.873 1.078h1.077v.898h-1.077zm1.438 0h1.077v.898h-1.077zm1.435 0h1.077v.898h-1.077zm-2.873 1.077h1.077v.898h-1.077zm1.438 0h1.077v.898h-1.077zm1.435 0h1.077v.898h-1.077zm1.437-2.155h1.077v.898h-1.077zm1.436 0h1.077v.898h-1.077zm1.437 0h1.077v.898h-1.077zm-2.873 1.078h1.077v.898h-1.077zm1.436 0h1.077v.898h-1.077zm1.437 0h1.077v.898h-1.077zm-2.873 1.077h1.077v.898h-1.077zm1.436 0h1.077v.898h-1.077zm1.437 0h1.077v.898h-1.077zm1.436-2.155h1.077v.898h-1.077zm1.436 0h1.077v.898h-1.077zm1.436 0h1.077v.898h-1.077zm-2.872 1.078h1.077v.898h-1.077zm1.436 0h1.077v.898h-1.077zm1.436 0h1.077v.898h-1.077zm-2.872 1.077h1.077v.898h-1.077zm1.436 0h1.077v.898h-1.077zm1.436 0h1.077v.898h-1.077zm1.437-2.155h1.077v.898h-1.077zm1.435 0h1.077v.898h-1.077zm1.438 0h1.077v.898h-1.077zm-2.873 1.078h1.077v.898h-1.077zm1.435 0h1.077v.898h-1.077zm1.438 0h1.077v.898h-1.077zm-2.873 1.077h1.077v1.077h-1.077zm1.435 0h1.077v.898h-1.077zm1.438 0h1.077v.898h-1.077zm-15.801 1.077h1.077v.898h-1.077zm1.438 0h1.077v.898h-1.077zm1.435 0h1.077v.898h-1.077zm1.437 0h1.077v.898h-1.077zm1.436 0h1.077v.898h-1.077zm1.437 0h1.077v.898h-1.077zm1.436 0h1.077v.898h-1.077zm1.436 0h1.077v.898h-1.077zm1.436 0h1.436v.898h-1.436zm1.437 0h1.077v.898h-1.077zm1.435 0h1.077v.898h-1.077zm1.438 0h1.077v.898h-1.077zm-15.801 1.077h1.077v.898h-1.077zm1.438 0h1.077v.898h-1.077zm1.435 0h1.077v.898h-1.077zm1.437 0h5.386v.898h-5.386zm5.745 0h1.077v.898h-1.077zm1.436 0h1.077v.898h-1.077zm1.437 0h1.077v.898h-1.077zm1.435 0h1.077v.898h-1.077zm1.438 0h1.077v.898h-1.077z"/><rect x="273.382" y="293.595" width="3.951" height="12.642" rx="1.975" fill="#FFE4CC"/><path d="M273.382 301.496h3.95v2.766a1.975 1.975 0 01-3.95 0v-2.766z" fill="#796FE7"/><path fill="#C4C4C4" d="M440 138.426h6v69h-6zm-27 0h7v69h-7z"/><path d="M471 513.719c0-.714.579-1.293 1.293-1.293h89.399c.722 0 1.308.585 1.308 1.308 0 .577-.389 1.09-.942 1.254-34.502 10.238-54.58 9.597-90.095-.019a1.304 1.304 0 01-.963-1.25zm-189-14.028c0-.699.567-1.265 1.266-1.265H412.73c.701 0 1.27.568 1.27 1.27a1.28 1.28 0 01-.997 1.239c-50.119 11.4-78.896 11.244-130-.006a1.278 1.278 0 01-1.003-1.238zM85 471.926a1.5 1.5 0 011.5-1.5h63a1.5 1.5 0 011.5 1.5v.081c0 .574-.337 1.103-.855 1.351-24.78 11.894-39.13 12.284-64.3.003a1.507 1.507 0 01-.845-1.347v-.088zM2 526.694c0-.7.568-1.268 1.268-1.268h126.463c.701 0 1.269.568 1.269 1.269 0 .603-.436 1.125-1.027 1.244-48.925 9.903-77.099 10.062-126.946 0A1.28 1.28 0 012 526.694z" fill="#5E67BE"/><circle cx="383.5" cy="225.5" r="3" stroke="#fff"/><path d="M354 277.426l32.368-25.039 24.869 13.513 22.895-18.282 16.184 10.731L459 246.426" stroke="#6DCAFF"/><path d="M355 286.426l18.148-31.302 22.094 9.906 11.047-11.095 28.406 21.396L456 244.426" stroke="#ABBFF1"/><path d="M354.766 291.644a2 2 0 012-2h5.481a2 2 0 012 2v22.493h-9.481v-22.493zm11.851-9.482a2 2 0 012-2h5.482a2 2 0 012 2v31.975h-9.482v-31.975zm23.704-8.691a2 2 0 012-2h5.482a2 2 0 012 2v40.666h-9.482v-40.666zm11.852 3.95a2 2 0 012-2h5.481a2 2 0 012 2v36.716h-9.481v-36.716zm47.407 0a2 2 0 012-2h5.482a2 2 0 012 2v36.716h-9.482v-36.716zm-35.556 8.691a2 2 0 012-2h5.482a2 2 0 012 2v28.025h-9.482v-28.025zm23.705-39.506a2 2 0 012-2h5.481a2 2 0 012 2v67.531h-9.481v-67.531zm-11.852 6.322a2 2 0 012-2h5.481a2 2 0 012 2v61.21h-9.481v-61.21zm-47.407 34.764a2 2 0 012-2h5.481a2 2 0 012 2v26.445h-9.481v-26.445z" fill="#fff"/><rect x="352" y="314.426" width="109" height="2" rx="1" fill="#242955"/><path d="M378 90.426a5.998 5.998 0 00-8.949-5.226 6 6 0 00-2.939 6.38L372 90.427h6z" fill="#FFB342"/><path d="M374.675 90.425c0-2.798-1.605-3.743-3.675-5.996 1.117-.015 1.74.017 2.756.4 1.562 1.778 3.215 2.798 3.215 5.597.065 0 0 0 0 0h-2.296z" fill="#fff"/><path d="M121 525.426H32s10.132-28 24.92-28c14.788 0 20.265 16.24 20.265 16.24s9.037-13.16 24.646-8.68S121 525.426 121 525.426z" fill="url(#paint4_linear)"/><path fill-rule="evenodd" clip-rule="evenodd" d="M126.412 379.613c2.357 3.414 6.315 7.858 9.605 8.945 3.289 1.086 6.157-.169 9.17-1.952l1.386 1.25c-2.416 3.112-5.306 4.879-10.051 4.842-7.21-.688-11.33-5.784-15.592-10.543l5.482-2.542z" fill="#BE8562"/><path fill-rule="evenodd" clip-rule="evenodd" d="M121.725 371.704c1.333-.359 2.875 5.843 5.598 8.717l-4.755 1.703-2.77-8.581 1.927-1.839z" fill="#FFD074"/><path fill-rule="evenodd" clip-rule="evenodd" d="M110.616 371.423c.735-1.54 1.2-3.239 1.388-5.099l4.531-.043c-.086 1.58-.137 3.169-.071 4.789.738.215 1.51.284 2.376.253-.79 1.418-2.405 2.476-4.066 3.288-2.442-.704-3.808-1.748-4.158-3.188z" fill="#DBAC8F"/><path fill-rule="evenodd" clip-rule="evenodd" d="M116.529 366.281l-.093 2.807s-.906.787-1.961.583c-1.221-.237-2.727-1.622-2.727-1.622l.258-1.742 4.523-.026z" fill="#BE8562"/><path fill-rule="evenodd" clip-rule="evenodd" d="M113.946 468.393c-.49.97-.627 1.951-.105 2.952 0 0 8.692.191 10.397-.019.489-.06.089-.665-.13-.851-.821-.702-2.323-1.51-5.791-2.193-1.755.567-3.139.475-4.371.111z" fill="#942E17"/><path fill-rule="evenodd" clip-rule="evenodd" d="M103.252 468.031c-.522.953-.69 1.929-.201 2.946 0 0 8.681.475 10.391.321.491-.044.111-.662-.101-.855-.799-.728-2.273-1.585-5.717-2.381-1.773.51-3.153.373-4.372-.031z" fill="#942E17"/><path fill-rule="evenodd" clip-rule="evenodd" d="M123.926 407.157a251.595 251.595 0 01-2.824 27.711c-.981 8.714-1.807 23.734-3.159 32.816-.042.285.017.454.359.642-1.125.444-3.2.589-4.343.173-.811-17.756-.891-42.437-.382-60.507l10.349-.835z" fill="#A467DC"/><path fill-rule="evenodd" clip-rule="evenodd" d="M104.187 407.496c-.177 7.791-.093 16.137.191 24.909-2.642 11.671-1.128 35.612-1.128 35.612 1.188.47 3.16.483 4.313.022l3.756-29.373s2.934-8.188 3.76-12.441c1.054-5.419 2.562-20.074 2.562-20.074l-13.454 1.345z" fill="#C88EFF"/><path fill-rule="evenodd" clip-rule="evenodd" d="M104.036 408.703c-.322-4.351-.39-8.718.626-13.148.868-5.826.95-11.496.969-17.152-.362-2.901-.002-5.302 1.582-6.857 1.038-.394 2.182-.464 3.434-.211.642 1.435 1.812 2.39 3.88 2.461 1.69-.062 2.793-1.077 3.673-2.45.802-.193 1.715-.181 2.682-.067 1.478.334 2.24 1.29 2.227 2.917 1.977 11.35 1.487 22.42.821 33.404-4.948 1.9-12.097 1.797-19.894 1.103z" fill="#FFEFBA"/><path fill-rule="evenodd" clip-rule="evenodd" d="M113.198 377.224c4.766 4.834 12.871 7.609 31.126 7.463 1.911-.47 3.803-.375 3.803-.375s2.571.095 4.016.681c.702.284.736.451.784.563.283.666-1.655.138-2.856.343-.987.169-1.254.531-.986.642 1.696.703 6.039.158 6.039.158.519.066.227.584-.395.857-.362.159-2.209.747-4.01.933-.702.072-1.683.096-3.11-.336a9.134 9.134 0 01-2.428-1.194c-5.085 1.014-12.06 1.549-18.203 1.626-2.343-.149-4.606-.537-6.852-.983-5.073-1.07-8.173-3.327-10.894-5.812l3.966-4.566z" fill="#DBAC8F"/><path fill-rule="evenodd" clip-rule="evenodd" d="M105.628 378.169c-.803-1.872-2.033-4.49-.286-6.106.825-.763 2.308-1.157 3.308-.647 1.67.851 3.356 4.291 3.356 4.291.652 1.166 1.742 2.208 3.005 3.202l-4.609 4.952s-3.931-3.726-4.774-5.692z" fill="#FFD074"/><path fill-rule="evenodd" clip-rule="evenodd" d="M118.23 362.768c1.344-.626 1.714-2.941 1.412-6.422l-7.672.056c-1.475.096-2.06 1.047-2.425 2.211-.127 1.19-.044 2.348.149 3.491-.146.654-.242 1.315-.176 1.995.199.879.771 1.257 1.434 1.513l7.278-2.844z" fill="#3F3F3F"/><path fill-rule="evenodd" clip-rule="evenodd" d="M109.946 363.755c-.673-.901-.572-2.16.054-2.464.441-.212 1.001.151 1.254 1.147l.599.235c.352-1.251.796-2.629 1.645-2.709 1.236-.114 2.753-.153 3.566.027.547.121 1.138.519 1.309 1.052.22.679.067 1.989.008 3.023-.257 2.195-.947 3.901-2.643 4.466-3.003.442-4.549-1.88-5.792-4.777z" fill="#DBAC8F"/><defs><linearGradient id="paint0_linear" x1="455.487" y1="28" x2="455.487" y2="580" gradientUnits="userSpaceOnUse"><stop stop-color="#8F6DFF"/><stop offset="1" stop-color="#3CA1FF"/></linearGradient><linearGradient id="paint1_linear" x1="31.951" y1="429.037" x2="31.951" y2="501.606" gradientUnits="userSpaceOnUse"><stop stop-color="#3ECEFF"/><stop offset="1" stop-color="#8C72FF"/></linearGradient><linearGradient id="paint2_linear" x1="200" y1="81.426" x2="200" y2="207.426" gradientUnits="userSpaceOnUse"><stop stop-color="#66E8FA"/><stop offset="1" stop-color="#8F6DFF"/></linearGradient><linearGradient id="paint3_linear" x1="292.5" y1="81.426" x2="292.5" y2="207.426" gradientUnits="userSpaceOnUse"><stop stop-color="#71D5F3"/><stop offset="1" stop-color="#6047B1"/></linearGradient><linearGradient id="paint4_linear" x1="76.5" y1="497.426" x2="76.5" y2="525.426" gradientUnits="userSpaceOnUse"><stop stop-color="#41CBFF"/><stop offset="1" stop-color="#8976FF"/></linearGradient></defs></svg>