<svg width="40" height="40" fill="none" xmlns="http://www.w3.org/2000/svg"><ellipse cx="20" cy="20.5" rx="20" ry="19.5" fill="#fff"/><path d="M20 .083c-11.046 0-20 8.954-20 20 0 9.907 7.21 18.111 16.665 19.7V24.256H11.84v-5.588h4.825v-4.12c0-4.78 2.92-7.386 7.184-7.386 2.043 0 3.799.153 4.308.22v4.997l-2.958.001c-2.319 0-2.766 1.102-2.766 2.72v3.565h5.533l-.721 5.588h-4.812v15.663C32.328 38.712 40 30.3 40 20.078 40 9.037 31.046.083 20 .083z" fill="url(#paint0_linear)"/><defs><linearGradient id="paint0_linear" x1="1" y1="18.5" x2="39" y2="19.5" gradientUnits="userSpaceOnUse"><stop stop-color="#479CFF"/><stop offset="1" stop-color="#8F6DFF"/></linearGradient></defs></svg>