<svg width="40" height="40" fill="none" xmlns="http://www.w3.org/2000/svg"><circle cx="20" cy="20" r="20" fill="url(#paint0_linear)"/><g clip-path="url(#clip0)"><path d="M28.234 22.2c-.453-.572-.323-.826 0-1.337.006-.006 3.743-5.17 4.128-6.921l.002-.001c.192-.639 0-1.107-.925-1.107h-3.061c-.78 0-1.139.402-1.331.852 0 0-1.56 3.731-3.764 6.15-.712.699-1.04.923-1.43.923-.19 0-.488-.224-.488-.863v-5.955c0-.766-.218-1.107-.863-1.107h-4.814c-.489 0-.78.357-.78.689 0 .726 1.103.893 1.217 2.934v4.43c0 .97-.176 1.15-.567 1.15-1.04 0-3.566-3.747-5.063-8.034-.302-.832-.597-1.168-1.382-1.168H6.05c-.874 0-1.05.402-1.05.852 0 .796 1.04 4.752 4.84 9.979 2.531 3.568 6.096 5.5 9.34 5.5 1.95 0 2.187-.428 2.187-1.167 0-3.409-.176-3.731.8-3.731.453 0 1.232.224 3.052 1.945 2.08 2.04 2.422 2.954 3.587 2.954h3.061c.873 0 1.315-.43 1.06-1.277-.581-1.781-4.515-5.445-4.693-5.69z" fill="#fff"/></g><defs><linearGradient id="paint0_linear" x1="36.098" y1="27.317" x2="6.341" y2="8.78" gradientUnits="userSpaceOnUse"><stop stop-color="#8F6DFF"/><stop offset="1" stop-color="#459CFF"/></linearGradient><clipPath id="clip0"><path fill="#fff" transform="translate(5 7)" d="M0 0h28v28H0z"/></clipPath></defs></svg>