<svg width="12" height="13" fill="none" xmlns="http://www.w3.org/2000/svg"><path d="M10.9 11.337H.823c-1.186 0-.741-.756-.741-.756s.296-.755 1.185-.907c.89-.15.89-.907.89-.907s-.227-4.725 0-5.14c.226-.413.592-2.115 3.853-2.115 3.26 0 3.715 1.744 3.853 2.116.137.372 0 5.14 0 5.14s0 .755.889.906a1.59 1.59 0 011.185.907s.445.756-1.037.756zm-2.964.453H4.083S4.676 13 6.01 13c1.333 0 1.926-1.21 1.926-1.21zM7.492 1.21C6.31.98 5.686 1 4.528 1.21c0 0 .148-1.21 1.482-1.21 1.333 0 1.482 1.21 1.482 1.21z" fill="#8F6DFF"/></svg>