<svg width="176" height="47" fill="none" xmlns="http://www.w3.org/2000/svg"><path d="M175.5 6v40H.5" stroke="#CACACA" stroke-width=".4"/><path d="M2 42l25.5-8 2 3.5L42 26l2 11.5 2.5-6.5 2 2.5 10.5-17 5.5 13H74l2 4.5 3-7 3.5 10.5 5.5-17 1.5 3L93 16l1 17.5 3-5 5.5 11.5 15-31.5L123 26l1.5-5.5L130 35l2.5-6.5 1 3.5 9-11.5 4.5 15 10-19 4.5 4L171 7" stroke="#A22CFF"/><path d="M1.5 39.5l23-9.5 2.5 7.5 6.5-5.5L43 43.5l12-16 2.5 4.5 13-9 5 16.5 2.5-4 1.5 2 7-20 4 18 4.5-8 3.5 10 7-14.5 5.5 5.5L123.5 2l6 19 4.5-5 8 17 5.5-10 6.5 7 8-17 6.5 6" stroke="#ABABAB" stroke-opacity=".5"/></svg>