<svg width="16" height="16" fill="none" xmlns="http://www.w3.org/2000/svg"><g clip-path="url(#clip0)" fill="#000"><path d="M14.753 4.232c0-.016-.016-.032-.016-.032-.016-.032-.032-.064-.048-.08l-.016-.016L10.425.096c-.032-.032-.065-.048-.097-.064-.016 0-.016 0-.032-.016C10.264 0 10.232 0 10.2 0H3.082a1.844 1.844 0 00-1.844 1.844v12.312c0 1.026.834 1.844 1.844 1.844h9.828a1.844 1.844 0 001.843-1.844V4.329c.016-.032 0-.064 0-.097zm-4.216-3.046l2.982 2.806h-2.982V1.186zm3.51 12.986a1.119 1.119 0 01-1.121 1.139H3.082a1.143 1.143 0 01-1.138-1.139V1.86c0-.626.513-1.139 1.138-1.139h6.733v3.624c0 .192.16.352.353.352h3.88v9.475z"/><path d="M6.947 3.559H3.708a.356.356 0 00-.353.352c0 .193.16.353.353.353h3.239c.192 0 .352-.16.352-.353a.356.356 0 00-.352-.352zm4.793 2.79H3.708a.356.356 0 00-.353.352c0 .193.16.353.353.353h8.032c.193 0 .353-.16.353-.353a.356.356 0 00-.353-.352zm0 2.341H3.708a.356.356 0 00-.353.352c0 .193.16.353.353.353h8.032c.193 0 .353-.16.353-.353a.356.356 0 00-.353-.353zm0 2.324H3.708a.356.356 0 00-.353.352c0 .193.16.353.353.353h8.032c.193 0 .353-.16.353-.353a.356.356 0 00-.353-.352z"/></g><defs><clipPath id="clip0"><path fill="#fff" d="M0 0h16v16H0z"/></clipPath></defs></svg>