<svg width="18" height="18" fill="none" xmlns="http://www.w3.org/2000/svg"><path d="M15.375 4.125h-2.25a.374.374 0 01-.355-.256l-.237-.712a1.873 1.873 0 00-1.78-1.282H7.247c-.808 0-1.523.515-1.778 1.282l-.237.712a.376.376 0 01-.356.256h-2.25A2.628 2.628 0 000 6.75v6.75a2.628 2.628 0 002.625 2.625h12.75A2.628 2.628 0 0018 13.5V6.75a2.628 2.628 0 00-2.625-2.625zM17.25 13.5a1.878 1.878 0 01-1.875 1.875H2.625A1.878 1.878 0 01.75 13.5V6.75c0-1.033.842-1.875 1.875-1.875h2.25c.484 0 .914-.309 1.067-.769l.238-.712c.153-.46.582-.769 1.067-.769h3.507c.484 0 .913.309 1.067.77l.237.711c.153.46.582.769 1.067.769h2.25c1.034 0 1.875.841 1.875 1.875v6.75z" fill="#000"/><path d="M9 5.625a4.505 4.505 0 00-4.5 4.5c0 2.482 2.018 4.5 4.5 4.5s4.5-2.018 4.5-4.5-2.018-4.5-4.5-4.5zm0 8.25a3.754 3.754 0 01-3.75-3.75A3.754 3.754 0 019 6.375a3.754 3.754 0 013.75 3.75A3.754 3.754 0 019 13.875z" fill="#000"/><path d="M9 7.125c-1.655 0-3 1.345-3 3a.375.375 0 00.75 0c0-1.24 1.01-2.25 2.25-2.25a.375.375 0 000-.75z" fill="#000"/></svg>