<svg width="50" height="126" fill="none" xmlns="http://www.w3.org/2000/svg"><circle cx="40.104" cy="8.854" r="8.854" fill="#1C1C1C"/><path fill-rule="evenodd" clip-rule="evenodd" d="M27.509 30.487c-2.238 3.556-5.995 8.186-9.117 9.317-3.122 1.132-5.845-.176-8.705-2.033l-1.315 1.302c2.293 3.242 5.036 5.083 9.54 5.044 6.844-.716 10.754-6.025 14.8-10.982l-5.204-2.648z" fill="#5A3C2A"/><path fill-rule="evenodd" clip-rule="evenodd" d="M31.957 22.248c-1.265-.374-2.729 6.087-5.314 9.08l4.514 1.774 2.63-8.939-1.83-1.915z" fill="#302C59"/><path fill-rule="evenodd" clip-rule="evenodd" d="M42.5 21.956c-.698-1.604-1.139-3.374-1.318-5.312l-4.3-.044c.081 1.645.13 3.3.067 4.988-.7.224-1.433.295-2.255.264.75 1.477 2.282 2.578 3.86 3.425 2.317-.734 3.614-1.821 3.946-3.32z" fill="#7B533A"/><path fill-rule="evenodd" clip-rule="evenodd" d="M36.889 16.6l.088 2.923s.86.82 1.86.608c1.16-.247 2.59-1.69 2.59-1.69l-.245-1.815-4.293-.026z" fill="#5A3C2A"/><path fill-rule="evenodd" clip-rule="evenodd" d="M39.34 122.966c.466 1.011.596 2.032.1 3.074 0 0-8.25.2-9.868-.019-.464-.062-.084-.692.123-.886.78-.731 2.205-1.573 5.497-2.284 1.666.59 2.98.495 4.149.115z" fill="#34275A"/><path fill-rule="evenodd" clip-rule="evenodd" d="M49.491 122.588c.495.994.655 2.01.191 3.069 0 0-8.24.495-9.864.335-.466-.046-.105-.689.097-.891.757-.758 2.157-1.65 5.425-2.479 1.683.53 2.994.388 4.151-.034z" fill="#34275A"/><path fill-rule="evenodd" clip-rule="evenodd" d="M29.867 59.179a286.776 286.776 0 002.68 28.865c.932 9.078 1.716 24.724 2.999 34.183.04.297-.016.474-.34.67 1.067.461 3.037.613 4.121.18.77-18.497.846-44.206.363-63.029l-9.823-.87z" fill="#B29DC6"/><path fill-rule="evenodd" clip-rule="evenodd" d="M48.603 59.532c.169 8.115.089 16.809-.181 25.946 2.508 12.157 1.07 37.096 1.07 37.096-1.127.49-2.998.503-4.093.023L41.833 92s-2.784-8.53-3.569-12.959c-1-5.645-2.43-20.91-2.43-20.91l12.77 1.4z" fill="#F3E6FF"/><path fill-rule="evenodd" clip-rule="evenodd" d="M48.747 60.788c-.31-4.538-.594-8.705-.594-13.695 0-6.468-.902-11.975-.92-17.867.344-3.022.002-5.523-1.502-7.142-.985-.41-2.07-.484-3.26-.22-.609 1.494-1.719 2.49-3.682 2.564-1.605-.066-2.651-1.123-3.487-2.553-.761-.2-1.627-.188-2.545-.07-1.403.348-2.127 1.344-2.114 3.038-1.877 11.824 2.69 16.823-.78 34.796 4.698 1.98 11.483 1.872 18.884 1.15z" fill="#2F42A4"/><path fill-rule="evenodd" clip-rule="evenodd" d="M40.05 27.997c-4.525 5.036-12.218 7.926-29.545 7.775-1.814-.49-3.61-.391-3.61-.391s-2.44.098-3.812.709c-.667.296-.699.47-.744.587-.268.693 1.57.143 2.711.357.937.176 1.19.553.935.669C4 38 .254 37.867.254 37.867c-.493.07-.216.609.374.893.344.166 2.097.778 3.806.972.667.075 1.598.1 2.952-.35 1.284-.427 2.305-1.244 2.305-1.244 4.827 1.057 11.448 1.614 17.278 1.694 2.224-.155 4.373-.56 6.505-1.024 4.814-1.115 7.758-3.465 10.34-6.054l-3.764-4.757z" fill="#7B533A"/><path fill-rule="evenodd" clip-rule="evenodd" d="M46.978 28.74c.762-1.95 1.929-4.676.27-6.36-.782-.795-2.19-1.205-3.14-.674-1.584.887-3.185 4.47-3.185 4.47-.618 1.214-1.653 2.3-2.852 3.335l4.375 5.158s3.731-3.88 4.532-5.93z" fill="#302C59"/><path fill-rule="evenodd" clip-rule="evenodd" d="M43.136 13.968c.639-.938.543-2.25-.052-2.566-.418-.222-.949.157-1.19 1.194l-.568.245c-.334-1.303-.755-2.74-1.562-2.822-1.173-.12-2.613-.16-3.385.028-.518.125-1.08.54-1.242 1.096-.209.707-.063 2.072-.007 3.149.244 2.286.898 4.063 2.508 4.652 2.85.46 4.318-1.959 5.498-4.976z" fill="#7B533A"/></svg>