<svg width="1440" height="231" fill="none" xmlns="http://www.w3.org/2000/svg"><g clip-path="url(#clip0)"><path d="M1116 231c0-44.556-17.7-87.288-49.21-118.794A167.981 167.981 0 00948 63a168 168 0 00-168 168h336z" fill="url(#paint0_radial)"/><path d="M902 231a91 91 0 10-182 0h182z" fill="url(#paint1_radial)"/><path d="M1349 0c0 11.95 2.35 23.784 6.93 34.824a90.934 90.934 0 0049.25 49.249A90.977 90.977 0 001440 91V0h-91z" fill="url(#paint2_radial)"/></g><defs><radialGradient id="paint0_radial" cx="0" cy="0" r="1" gradientUnits="userSpaceOnUse" gradientTransform="matrix(0 168 -168 0 948 231)"><stop stop-color="#7EBAFF"/><stop offset="1" stop-color="#F7E6F3"/></radialGradient><radialGradient id="paint1_radial" cx="0" cy="0" r="1" gradientUnits="userSpaceOnUse" gradientTransform="matrix(0 91 -91 0 811 231)"><stop stop-color="#403E8A"/><stop offset="1" stop-color="#C098B7"/></radialGradient><radialGradient id="paint2_radial" cx="0" cy="0" r="1" gradientUnits="userSpaceOnUse" gradientTransform="matrix(0 -91 91 0 1440 0)"><stop stop-color="#FFF974"/><stop offset="1" stop-color="#FBA3ED"/></radialGradient><clipPath id="clip0"><path fill="#fff" d="M0 0h1440v231H0z"/></clipPath></defs></svg>