<svg width="63" height="121" fill="none" xmlns="http://www.w3.org/2000/svg"><path fill-rule="evenodd" clip-rule="evenodd" d="M27.774 32.483c2.84 4.14 7.612 9.535 11.588 10.863 3.976 1.327 7.452-.181 11.106-2.326l1.671 1.518c-2.935 3.756-6.439 5.883-12.18 5.82-8.724-.861-13.69-7.045-18.828-12.82l6.643-3.054z" fill="#F5D5C8"/><path fill-rule="evenodd" clip-rule="evenodd" d="M21.983 22.893c1.614-.43 3.456 7.082 6.74 10.57l-5.76 2.042-3.319-10.395 2.34-2.217z" fill="#E4E4E4"/><path fill-rule="evenodd" clip-rule="evenodd" d="M8.541 22.509c.896-1.861 1.465-3.916 1.7-6.165l5.483-.035c-.11 1.912-.178 3.834-.105 5.796.892.262 1.827.348 2.875.315-.962 1.713-2.92 2.986-4.934 3.963-2.952-.862-4.6-2.13-5.019-3.874z" fill="#FFE2D0"/><path fill-rule="evenodd" clip-rule="evenodd" d="M15.717 16.31l-.124 3.396s-1.1.949-2.374.698c-1.477-.291-3.294-1.974-3.294-1.974l.319-2.107 5.473-.013z" fill="#F5D5C8"/><path fill-rule="evenodd" clip-rule="evenodd" d="M26.115 115.572c-.62 1.16-.814 2.343-.21 3.568 0 0 10.51.477 12.578.272.593-.059.126-.802-.133-1.033-.974-.872-2.768-1.893-6.944-2.817-2.14.636-3.811.486-5.291.01zm-16.293 1.933c-.635 1.152-.843 2.331-.255 3.564 0 0 10.503.609 12.574.43.594-.052.136-.8-.12-1.035-.963-.884-2.744-1.927-6.908-2.904-2.148.61-3.817.439-5.291-.055z" fill="#283828"/><path fill-rule="evenodd" clip-rule="evenodd" d="M24.377 66.109c9.15 6.632 18.436 20.267 17.36 25.194-1.658 7.596-6.157 13.69-10.5 24.25-.248.605-3.737.611-5.088 0 5.138-13.121 3.07-19.231 5.477-24.26 2.062-4.304-20.042-9.582-19.57-24.609l12.321-.575z" fill="#5EBB94"/><path fill-rule="evenodd" clip-rule="evenodd" d="M.64 66.136C.393 75.564 15.98 84.49 16.928 90.485c-5.518 6.683-3.185 12.392-7.121 26.917-.306 1.13 5.32.489 5.304.258 0 0 9.367-22.724 10.385-27.867 1.296-6.553-8.571-25.231-8.571-25.231L.639 66.136z" fill="#72CE97"/><path fill-rule="evenodd" clip-rule="evenodd" d="M.431 67.596c-.372-5.267-.437-10.551.81-15.909 1.073-7.046 1.195-13.907 1.24-20.752-.427-3.512.019-6.416 1.942-8.291 1.257-.472 2.642-.553 4.156-.242.772 1.739 2.183 2.9 4.685 2.994 2.046-.07 3.385-1.293 4.456-2.951.971-.23 2.075-.212 3.245-.07 1.788.41 2.706 1.57 2.683 3.538 2.349 13.744 1.711 27.138.862 40.426-5.995 2.28-14.646 2.127-24.079 1.257z" fill="#fff"/><path fill-rule="evenodd" clip-rule="evenodd" d="M11.643 29.54c5.748 5.868 15.546 9.258 37.637 9.154 2.314-.562 4.604-.44 4.604-.44s3.11.125 4.857.84c.848.347.889.55.946.685.34.807-2.003.16-3.458.404-1.194.2-1.52.638-1.195.773 2.05.858 7.307.214 7.307.214.628.083.273.709-.481 1.037-.44.19-2.676.894-4.856 1.113-.85.085-2.037.11-3.762-.419-1.636-.502-2.934-1.454-2.934-1.454-6.158 1.207-14.6 1.826-22.035 1.896-2.834-.19-5.572-.669-8.288-1.217-6.134-1.315-9.877-4.058-13.16-7.077l4.817-5.51z" fill="#FFE2D0"/><path fill-rule="evenodd" clip-rule="evenodd" d="M2.48 30.652c-.966-2.268-2.443-5.44-.323-7.39 1.002-.92 2.797-1.39 4.006-.77 2.018 1.037 4.044 5.207 4.044 5.207.785 1.413 2.768 2.32 4.292 3.528L8.234 37.56s-4.742-4.524-5.755-6.907z" fill="#E4E4E4"/><path fill-rule="evenodd" clip-rule="evenodd" d="M17.79 12.065c1.628-.752 2.56-7.622 2.209-11.837l-9.76 4.11c-1.786.109-2.498 1.258-2.944 2.665-.158 1.44-.062 2.841.167 4.225-.18.79-.298 1.59-.222 2.414.238 1.064.929 1.524 1.73 1.836l8.82-3.413z" fill="#3F3F3F"/><path fill-rule="evenodd" clip-rule="evenodd" d="M7.76 13.227c-.81-1.092-.683-2.616.076-2.981.533-.256 1.21.186 1.512 1.393l.724.287c.43-1.513.974-3.18 2.002-3.272 1.496-.134 3.332-.175 4.315.046.66.148 1.375.633 1.58 1.279.263.823.072 2.407-.003 3.658-.32 2.655-1.161 4.717-3.216 5.394-3.635.523-5.497-2.293-6.99-5.804z" fill="#FFE2D0"/></svg>