<svg width="1440" height="231" fill="none" xmlns="http://www.w3.org/2000/svg"><g clip-path="url(#clip0)"><path d="M1265.6 74.62c8.44-3.77 17.79 3.002 16.84 12.19l-10.61 102.51c-.95 9.189-11.49 13.902-18.98 8.484l-83.47-60.442c-7.48-5.418-6.29-16.904 2.14-20.674l94.08-42.067z" fill="url(#paint0_linear)"/><path d="M1249 231.164a70.019 70.019 0 00-20.5-49.497 70.021 70.021 0 00-22.71-15.175 70.025 70.025 0 00-53.58 0 70.021 70.021 0 00-22.71 15.175 70.019 70.019 0 00-20.5 49.497h140z" fill="url(#paint1_radial)"/><rect x="1276.54" y="128.684" width="120.649" height="120.008" rx="4" transform="rotate(-30 1276.54 128.684)" fill="url(#paint2_linear)"/><ellipse cx="1317" cy="54.664" rx="44" ry="43.5" transform="rotate(19.44 1317 54.664)" fill="url(#paint3_angular)"/><ellipse cx="1419.24" cy="93.705" rx="20.632" ry="20.397" transform="rotate(19.44 1419.24 93.705)" fill="url(#paint4_radial)"/><path d="M719 0c0 22.543 8.903 44.163 24.749 60.104C759.596 76.044 781.089 85 803.5 85c22.411 0 43.904-8.955 59.751-24.896C879.097 44.164 888 22.544 888 0H719z" fill="url(#paint5_radial)"/></g><defs><radialGradient id="paint1_radial" cx="0" cy="0" r="1" gradientUnits="userSpaceOnUse" gradientTransform="matrix(0 70 -70 0 1179 231.164)"><stop stop-color="#FFF27F"/><stop offset="1" stop-color="#FBA9E5"/></radialGradient><radialGradient id="paint3_angular" cx="0" cy="0" r="1" gradientUnits="userSpaceOnUse" gradientTransform="matrix(0 43.5 -44 0 1317 54.664)"><stop stop-color="#524B91"/><stop offset="1" stop-color="#B892B4"/></radialGradient><radialGradient id="paint4_radial" cx="0" cy="0" r="1" gradientUnits="userSpaceOnUse" gradientTransform="matrix(0 20.3974 -20.6318 0 1419.24 93.705)"><stop stop-color="#87A95C"/><stop offset="1" stop-color="#4F699B"/></radialGradient><radialGradient id="paint5_radial" cx="0" cy="0" r="1" gradientUnits="userSpaceOnUse" gradientTransform="matrix(0 -85 84.5 0 803.5 0)"><stop stop-color="#7EBAFF"/><stop offset="1" stop-color="#F7E6F3"/></radialGradient><linearGradient id="paint0_linear" x1="1276" y1="80.664" x2="1213" y2="167.664" gradientUnits="userSpaceOnUse"><stop stop-color="#F6E6F3"/><stop offset="1" stop-color="#88BDFF"/></linearGradient><linearGradient id="paint2_linear" x1="1393.1" y1="130.716" x2="1291.92" y2="233.96" gradientUnits="userSpaceOnUse"><stop stop-color="#EC7373"/><stop offset="1" stop-color="#201919"/></linearGradient><clipPath id="clip0"><path fill="#fff" d="M0 0h1440v231H0z"/></clipPath></defs></svg>