<svg width="25" height="23" fill="none" xmlns="http://www.w3.org/2000/svg"><path d="M22.314.508H2.686A2.689 2.689 0 000 3.193v12.891a2.689 2.689 0 002.686 2.686h6.323c.078 0 .151.037.197.099l2.307 3.128c.231.313.587.494.977.496h.006c.387 0 .742-.177.975-.487l2.36-3.14a.245.245 0 01.195-.096h6.288A2.689 2.689 0 0025 16.084V3.194A2.689 2.689 0 0022.314.507zm1.221 15.576c0 .115-.016.227-.046.333L15.964 9.82l7.571-6.284v12.547zm-1.22-14.111c.223 0 .432.06.612.165l-9.645 8.005a1.221 1.221 0 01-1.56 0L2.075 2.137c.18-.104.388-.164.61-.164h19.63zM1.51 16.417a1.216 1.216 0 01-.046-.333V3.534l7.573 6.285-7.527 6.598zm13.15 1.57l-2.163 2.877-2.113-2.865a1.715 1.715 0 00-1.376-.694H2.72l7.46-6.539.607.504a2.68 2.68 0 001.715.619 2.68 2.68 0 001.715-.619l.605-.502 7.457 6.537h-6.253c-.534 0-1.045.255-1.366.682z" fill="#8F6DFF"/></svg>