<svg width="28" height="28" fill="none" xmlns="http://www.w3.org/2000/svg"><g clip-path="url(#clip0)" fill="#8F6DFF"><path d="M22.477 14.375v-2.617c0-3.819-2.538-7.055-6.016-8.112V2.461A2.464 2.464 0 0014.001 0a2.464 2.464 0 00-2.462 2.46v1.186c-3.477 1.057-6.015 4.293-6.015 8.112v2.617a12.88 12.88 0 01-3.6 8.956.82.82 0 00.592 1.388H9.98A4.109 4.109 0 0014.001 28a4.109 4.109 0 004.018-3.281h7.465a.82.82 0 00.592-1.388 12.88 12.88 0 01-3.6-8.956zM13.18 2.461a.821.821 0 011.64 0v.86a8.545 8.545 0 00-1.64 0v-.86zM14 26.359a2.465 2.465 0 01-2.32-1.64h4.64a2.465 2.465 0 01-2.32 1.64zm-9.716-3.28a14.504 14.504 0 002.88-8.704v-2.617A6.844 6.844 0 0114 4.922a6.844 6.844 0 016.836 6.836v2.617c0 3.168 1.012 6.199 2.88 8.703H4.284zm20.38-11.322a.82.82 0 001.64 0c0-3.287-1.28-6.377-3.603-8.701a.82.82 0 00-1.16 1.16 10.594 10.594 0 013.123 7.54zm-22.148.821a.82.82 0 00.82-.82c0-2.849 1.11-5.527 3.123-7.541a.82.82 0 10-1.16-1.16 12.224 12.224 0 00-3.604 8.7c0 .453.368.82.82.82z"/></g><defs><clipPath id="clip0"><path fill="#fff" d="M0 0h28v28H0z"/></clipPath></defs></svg>