<svg width="322" height="665" fill="none" xmlns="http://www.w3.org/2000/svg"><path d="M159 105.499c86.5-6 120.898-11.176 162.501-98C363.104-79.322 326.5 663.5 326.5 663.5s-28-87.501-134-65.5C86.5 620-20 502.499 18 399.5c38-103-24-95.001-16.5-165 7.5-70 71-123 157.5-129.001z" fill="#F1EDFD"/><path d="M260.657 224.5c-6-77.5 74.001-60.5 74.001-60.5l13.499 392.5-13.5 3s-148.527-12-163.5-59c-14.973-47 14-73 51.5-129 37.501-56.001 44-69.501 38-147z" fill="url(#paint0_radial)"/><defs><radialGradient id="paint0_radial" cx="0" cy="0" r="1" gradientUnits="userSpaceOnUse" gradientTransform="matrix(-35.14564 207.54019 -94.61405 -16.0223 257.646 360.959)"><stop stop-color="#8F6DFF"/><stop offset="1" stop-color="#404FD3"/></radialGradient></defs></svg>