<svg width="147" height="43" fill="none" xmlns="http://www.w3.org/2000/svg"><g clip-path="url(#clip0)"><path d="M18.366 7.357a2.429 2.429 0 00-2.331-.112l12.57 12.598 4.111-4.13-14.35-8.356zM14.88 8.41a2.56 2.56 0 00-.244 1.094v23.044c0 .386.086.755.246 1.083l12.566-12.626L14.88 8.411zm13.728 13.757l-12.551 12.61a2.45 2.45 0 001.04.222c.438 0 .874-.105 1.268-.342l14.354-8.37-4.111-4.12zm9.574-3.271a.208.208 0 00-.016-.01l-3.984-2.32-4.417 4.438 4.42 4.429 3.997-2.33A2.443 2.443 0 0039.365 21a2.44 2.44 0 00-1.183-2.103z" fill="#858B94"/></g><path d="M78.298 23.894c-.49-.01-.978.075-1.433.25a3.648 3.648 0 00-1.214.77 3.48 3.48 0 00-.803 1.167 3.365 3.365 0 00-.26 1.375c-.004.468.09.933.275 1.367.185.433.458.827.803 1.159a3.7 3.7 0 001.208.771 3.82 3.82 0 001.424.265c.49.01.977-.075 1.432-.25a3.65 3.65 0 001.215-.77c.347-.334.62-.73.802-1.167.183-.437.272-.905.261-1.375a3.316 3.316 0 00-.245-1.384 3.43 3.43 0 00-.801-1.174 3.599 3.599 0 00-1.223-.769 3.714 3.714 0 00-1.441-.235zm0 5.633a2.288 2.288 0 01-1.464-.694 2.115 2.115 0 01-.591-1.46c0-.54.21-1.062.591-1.46.38-.4.903-.647 1.464-.694.286.002.57.06.831.17.262.111.498.273.692.475.194.202.343.44.437.7.094.26.132.535.11.809.015.272-.028.545-.125.801a2.041 2.041 0 01-.44.693 2.14 2.14 0 01-.683.475 2.214 2.214 0 01-.822.185zm-8.025-5.633c-.49-.01-.977.075-1.432.25a3.647 3.647 0 00-1.215.77c-.347.333-.62.73-.803 1.167a3.366 3.366 0 00-.26 1.375c-.004.468.09.933.275 1.367.185.433.459.827.804 1.159a3.7 3.7 0 001.207.771 3.82 3.82 0 001.424.265c.49.01.977-.075 1.432-.25a3.65 3.65 0 001.215-.77c.347-.334.62-.73.803-1.167a3.37 3.37 0 00.26-1.375 3.316 3.316 0 00-.245-1.384c-.18-.44-.453-.84-.801-1.174a3.597 3.597 0 00-1.223-.769 3.714 3.714 0 00-1.44-.235zm0 5.633a2.289 2.289 0 01-1.464-.694 2.115 2.115 0 01-.591-1.46c0-.54.21-1.062.591-1.46.38-.4.903-.647 1.464-.694.286.002.57.06.831.17.262.111.498.273.692.475.194.202.343.44.437.7.095.26.132.535.111.809.014.272-.029.545-.126.801a2.041 2.041 0 01-.439.693 2.14 2.14 0 01-.684.475 2.215 2.215 0 01-.822.185zm-9.578-4.556v1.49h3.71a3.071 3.071 0 01-.862 1.906 3.84 3.84 0 01-1.307.824 3.966 3.966 0 01-1.541.253 4.166 4.166 0 01-1.578-.295c-.5-.2-.953-.493-1.331-.865a3.846 3.846 0 01-.873-1.296 3.721 3.721 0 01-.273-1.52 3.771 3.771 0 01.288-1.513 3.9 3.9 0 01.874-1.29 4.08 4.08 0 011.324-.865 4.221 4.221 0 011.569-.309 4.415 4.415 0 012.848 1.077l1.121-1.077a5.656 5.656 0 00-3.883-1.49 5.951 5.951 0 00-4.045 1.607A5.487 5.487 0 0055 25.468a5.487 5.487 0 001.736 3.859 5.95 5.95 0 004.045 1.608 5.155 5.155 0 002.172-.353 4.965 4.965 0 001.798-1.221 4.86 4.86 0 001.38-3.48 2.984 2.984 0 00-.086-.91h-5.35zm39.175 1.16a3.23 3.23 0 00-1.182-1.594 3.446 3.446 0 00-1.924-.643 3.574 3.574 0 00-1.384.273c-.436.182-.83.449-1.153.783-.324.335-.573.73-.73 1.161a3.19 3.19 0 00-.185 1.345c-.014.464.07.927.246 1.36.176.432.441.826.78 1.159.337.332.742.596 1.188.775.447.18.926.27 1.41.268a3.656 3.656 0 001.723-.412 3.485 3.485 0 001.297-1.162l-1.208-.829c-.186.303-.45.554-.769.728a2.173 2.173 0 01-1.043.267 1.933 1.933 0 01-1.081-.267 1.821 1.821 0 01-.73-.81l4.918-1.989-.173-.414zm-5.005 1.159a1.965 1.965 0 01.522-1.397 2.128 2.128 0 011.377-.674c.279-.009.555.056.799.188.243.131.444.324.581.558l-3.279 1.325zm-4.055 3.396h1.64V20.331h-1.64v10.355zm-2.59-6.046a2.896 2.896 0 00-1.985-.828 3.78 3.78 0 00-2.512 1.1 3.487 3.487 0 00-1.025 2.462c-.007.452.079.9.253 1.32.175.42.433.802.762 1.125.329.324.721.581 1.154.759a3.7 3.7 0 001.368.275c.36.003.717-.07 1.045-.213.328-.143.62-.353.854-.615h.086v.497c.054.46-.07.922-.349 1.3a1.964 1.964 0 01-1.163.745 2.03 2.03 0 01-1.385-.19 1.902 1.902 0 01-.9-1.027l-1.38.58a3.46 3.46 0 001.316 1.508 3.67 3.67 0 001.963.563c1.898 0 3.451-1.077 3.451-3.645V24.06H88.22v.58zm-1.898 4.888a2.288 2.288 0 01-1.464-.694 2.115 2.115 0 01-.591-1.46c0-.54.21-1.062.591-1.46.38-.4.903-.647 1.464-.694.28.011.553.077.806.192.252.116.478.279.663.48.185.2.326.436.415.69.089.255.123.524.1.792a1.92 1.92 0 01-.1.791 2.044 2.044 0 01-1.078 1.17 2.15 2.15 0 01-.806.193zm21.054-9.196h-3.883v10.355h1.64v-3.893h2.243c.893 0 1.749-.34 2.38-.946a3.166 3.166 0 00.985-2.285c0-.857-.354-1.678-.985-2.284a3.438 3.438 0 00-2.38-.947zm.086 4.97h-2.329V21.74h2.329c.489 0 .959.18 1.313.504s.563.767.586 1.235c-.019.478-.226.93-.578 1.269a2.015 2.015 0 01-1.321.554zm9.924-1.49a3 3 0 00-1.679.362 2.833 2.833 0 00-1.169 1.212l1.467.58c.144-.247.358-.449.619-.581.26-.133.554-.19.848-.165.409-.03.814.091 1.134.337.32.246.532.599.592.988v.083a3.569 3.569 0 00-1.64-.414c-1.553 0-3.106.828-3.106 2.32.014.321.095.637.238.929.142.291.344.553.593.768a2.572 2.572 0 001.844.622c.404.013.805-.07 1.167-.244.361-.174.672-.432.904-.75h.086v.828h1.553V26.71a3.088 3.088 0 00-1.105-2.13 3.347 3.347 0 00-2.346-.77zm-.173 5.716c-.518 0-1.294-.249-1.294-.912 0-.828.949-1.076 1.725-1.076a3.453 3.453 0 011.467.33 1.906 1.906 0 01-.638 1.158 2.058 2.058 0 01-1.26.5zm9.06-5.468l-1.812 4.474h-.086l-1.898-4.474h-1.726l2.847 6.296-1.639 3.48h1.639L128 24.058h-1.726zm-14.496 6.627h1.639V20.331h-1.639v10.355zM55.09 17.404v-2.052h.648c.636-1.014.954-2.532.954-4.554V9.7h4.122v5.652h.819l-.108 2.052h-.594V16h-5.112l-.126 1.404h-.603zm1.449-2.052h3.564v-5.004h-2.727v.819c0 .828-.075 1.626-.225 2.394-.15.768-.354 1.365-.612 1.791zm9.881.045c-.468.474-1.047.711-1.737.711-.69 0-1.266-.237-1.728-.711a2.39 2.39 0 01-.684-1.719c0-.666.231-1.236.693-1.71.468-.48 1.047-.72 1.737-.72.69 0 1.266.237 1.728.711.462.474.693 1.047.693 1.719 0 .666-.234 1.239-.702 1.719zm-1.719.09c.498 0 .906-.174 1.224-.522.324-.348.486-.777.486-1.287 0-.504-.168-.933-.504-1.287a1.606 1.606 0 00-1.224-.531c-.498 0-.906.177-1.224.531-.318.348-.477.777-.477 1.287 0 .504.165.933.495 1.287.33.348.738.522 1.224.522zm5.774.621a2.283 2.283 0 01-1.701-.711 2.41 2.41 0 01-.684-1.719c0-.666.227-1.236.683-1.71a2.269 2.269 0 011.702-.72c.72 0 1.34.276 1.863.828l-.441.468c-.433-.456-.91-.684-1.431-.684a1.55 1.55 0 00-1.188.531c-.319.348-.478.777-.478 1.287 0 .504.163.933.487 1.287.33.348.737.522 1.223.522.498 0 .966-.234 1.404-.702l.46.423c-.54.6-1.173.9-1.9.9zm4.17-.108v-4.041h-1.666v-.612h4.032v.612h-1.665V16h-.702zm4.094 1.467a2.26 2.26 0 01-.99-.234l.234-.549c.222.114.465.171.73.171.21 0 .386-.066.53-.198.144-.126.285-.351.423-.675l-2.115-4.635h.765l1.692 3.879 1.494-3.879h.738l-1.953 4.806c-.198.474-.417.81-.657 1.008-.24.204-.537.306-.89.306zM83.336 16v-4.653h4.032V16h-.692v-4.041h-2.647V16h-.692zm5.582 0v-4.653h.693v2.007h2.682v-2.007h.693V16h-.693v-2.034H89.61V16h-.693zm9.477-.603c-.468.474-1.047.711-1.737.711-.69 0-1.266-.237-1.728-.711a2.39 2.39 0 01-.684-1.719c0-.666.23-1.236.693-1.71.468-.48 1.047-.72 1.737-.72.69 0 1.266.237 1.728.711.462.474.693 1.047.693 1.719 0 .666-.234 1.239-.702 1.719zm-1.72.09c.499 0 .907-.174 1.225-.522.324-.348.486-.777.486-1.287 0-.504-.168-.933-.504-1.287a1.606 1.606 0 00-1.224-.531c-.498 0-.906.177-1.224.531-.318.348-.477.777-.477 1.287 0 .504.165.933.495 1.287.33.348.738.522 1.224.522zm6.375.513v-4.653h2.25c.462 0 .831.105 1.107.315.276.21.414.492.414.846 0 .498-.258.855-.774 1.071.684.186 1.026.57 1.026 1.152 0 .39-.153.699-.459.927-.306.228-.717.342-1.233.342h-2.331zm.693-.594h1.548c.33 0 .591-.069.783-.207a.67.67 0 00.288-.576.592.592 0 00-.306-.531c-.198-.126-.483-.189-.855-.189h-1.458v1.503zm0-2.061h1.431c.288 0 .516-.063.684-.189a.66.66 0 00.261-.558.565.565 0 00-.243-.477c-.162-.12-.39-.18-.684-.18h-1.449v1.404z" fill="#858B94"/><defs><clipPath id="clip0"><path fill="#fff" transform="translate(13 7)" d="M0 0h28v28H0z"/></clipPath></defs></svg>