<svg width="147" height="42" fill="none" xmlns="http://www.w3.org/2000/svg"><path d="M35.258 7H18.742A5.749 5.749 0 0013 12.742v16.516A5.749 5.749 0 0018.742 35h16.516A5.749 5.749 0 0041 29.258V12.742A5.749 5.749 0 0035.258 7zm4.101 22.258a4.106 4.106 0 01-4.101 4.101H18.742a4.106 4.106 0 01-4.101-4.101V12.742a4.106 4.106 0 014.101-4.101h16.516a4.106 4.106 0 014.101 4.101v16.516z" fill="#858B94"/><path d="M29.715 13.755a1.369 1.369 0 00-2.505-.33l-.21.365-.21-.364a1.369 1.369 0 00-1.868-.501 1.369 1.369 0 00-.5 1.868l1 1.731-3.69 6.39h-2.689a1.368 1.368 0 000 2.734h10.383l-1.579-2.734H24.89l4.688-8.121c.183-.316.232-.685.137-1.038z" fill="#858B94"/><path d="M34.957 22.914h-2.69l-3.057-5.296-1.578 2.735 4.747 8.222a1.358 1.358 0 001.186.684 1.369 1.369 0 001.182-2.051l-.9-1.56h1.11a1.368 1.368 0 000-2.734zm-15.435 3.828l-.269.466a1.369 1.369 0 001.182 2.05c.473 0 .933-.245 1.186-.683l1.059-1.833h-3.158zm39.564-14.095h.758a.95.95 0 001.043-.85v-.095c0-.567-.38-.851-1.043-.851a.95.95 0 00-1.137.85h-.853A1.89 1.89 0 0159.749 10h.095c1.138 0 1.896.662 1.896 1.513a1.312 1.312 0 01-1.043 1.323v.095a1.216 1.216 0 011.173.821c.055.162.076.333.06.503a1.89 1.89 0 01-1.345 1.633 1.9 1.9 0 01-.74.069 1.845 1.845 0 01-1.861-.915 1.83 1.83 0 01-.225-.693v-.094h.853c.095.567.569.85 1.327.85s1.232-.378 1.232-.945-.474-.945-1.232-.945h-.758v-.568h-.095zm3.886 1.986c0-.756.569-1.229 1.611-1.229l1.138-.095v-.378c0-.472-.285-.662-.853-.662-.57 0-.759.19-.854.473h-.853a1.522 1.522 0 011.707-1.229c1.042 0 1.706.567 1.706 1.418v2.931h-.853v-.567h-.095a1.431 1.431 0 01-1.327.662 1.348 1.348 0 01-1.422-1.135c.095-.094.095-.094.095-.189zm2.749-.378v-.378l-1.043.094c-.569 0-.853.284-.853.568 0 .283.379.567.758.567a.856.856 0 001.06-.444.85.85 0 00.078-.407zm3.127-1.985v3.592h-.853v-4.255h2.844v.662h-1.99zm7.015 1.417c0 1.324-.664 2.175-1.801 2.175a1.52 1.52 0 01-1.327-.757h-.095v2.08h-.853v-5.672h.853v.661h.095a1.514 1.514 0 011.327-.756 2.005 2.005 0 011.39.749 1.994 1.994 0 01.411 1.52zm-.853 0c0-.945-.474-1.418-1.138-1.418-.663 0-1.137.567-1.137 1.418s.474 1.418 1.137 1.418c.664 0 1.138-.472 1.138-1.418zM77 17.375v-.756h.285a.722.722 0 00.758-.568l.095-.189-1.517-4.255h.948l1.043 3.404h.094l1.043-3.404h.853l-1.611 4.444c-.38 1.04-.758 1.324-1.612 1.324H77zm4.266-2.742h.853a.871.871 0 00.948.567c.568 0 .948-.284.948-.662 0-.378-.285-.567-.948-.567h-.664v-.662h.664c.474 0 .758-.19.758-.567 0-.379-.285-.568-.758-.568-.474 0-.853.19-.853.568h-.854a1.503 1.503 0 011.707-1.23c1.042 0 1.611.473 1.611 1.135a.944.944 0 01-.663.851v.095a1.005 1.005 0 01.853.945c0 .851-.664 1.324-1.707 1.324-1.042 0-1.8-.379-1.895-1.23zm4.739 1.229v-4.255h.853v2.932l1.99-2.932h.854v4.255h-.853v-2.93h-.095l-1.99 2.93h-.76zm8.246-3.592h-1.327v3.592h-.853V12.27h-1.327v-.662h3.507v.662zm4.55 2.458a1.778 1.778 0 01-1.895 1.229 1.984 1.984 0 01-1.378-.545 1.973 1.973 0 01-.613-1.346v-.284a1.886 1.886 0 01.969-1.953c.228-.123.479-.199.737-.222h.285c1.232 0 1.895.851 1.895 2.175v.284h-3.033a1.096 1.096 0 001.043 1.229h.095a1.111 1.111 0 001.042-.473l.853-.094zm-2.938-1.419h2.18a1.124 1.124 0 00-.948-1.134h-.094a1.224 1.224 0 00-1.138 1.134zm6.54-1.702h1.896c.853 0 1.327.379 1.327 1.04a.944.944 0 01-.758.946v.095a1.024 1.024 0 01.948.945c0 .756-.569 1.23-1.517 1.23h-1.99v-4.256h.094zm.853.662v1.04h.854c.473 0 .758-.189.758-.567 0-.378-.19-.567-.664-.567l-.948.094zm0 1.702v1.23h1.043c.474 0 .758-.19.758-.662 0-.473-.284-.662-.853-.662l-.948.094zM64.393 27.943h-4.455l-1.042 3.215H57l4.265-11.724h1.896l4.266 11.724H65.53l-1.138-3.215zm-3.98-1.418h3.601l-1.8-5.2h-.096l-1.706 5.2zm16.208.378c0 2.647-1.421 4.349-3.602 4.349a2.764 2.764 0 01-2.654-1.513v4.255h-1.8V22.648h1.706v1.418a3.182 3.182 0 012.748-1.513c2.086-.094 3.602 1.702 3.602 4.35zm-1.895 0c0-1.702-.853-2.837-2.275-2.837s-2.275 1.135-2.275 2.837c0 1.702.948 2.836 2.275 2.836s2.275-1.134 2.275-2.836zm11.279 0c0 2.647-1.422 4.349-3.602 4.349a2.764 2.764 0 01-2.654-1.513v4.255h-1.8V22.648h1.705v1.418a3.182 3.182 0 012.75-1.513c2.18-.094 3.601 1.702 3.601 4.35zm-1.8 0c0-1.702-.854-2.837-2.276-2.837-1.422 0-2.275 1.135-2.275 2.837 0 1.702.948 2.836 2.275 2.836s2.275-1.134 2.275-2.836zm8.055.947c.096 1.134 1.233 1.89 2.844 1.89 1.612 0 2.56-.756 2.56-1.796s-.664-1.418-2.18-1.797l-1.517-.378c-2.18-.567-3.128-1.513-3.128-3.12 0-1.986 1.8-3.404 4.265-3.404s4.171 1.418 4.266 3.404h-1.801a2.192 2.192 0 00-.84-1.454 2.203 2.203 0 00-1.625-.437c-1.421 0-2.37.756-2.37 1.796 0 .851.664 1.324 2.18 1.702l1.328.284c2.37.567 3.412 1.513 3.412 3.215 0 2.174-1.706 3.593-4.55 3.593-2.654 0-4.36-1.324-4.455-3.499h1.612zm10.996-7.282v1.986h1.611v1.418h-1.611V28.7c0 .756.284 1.04 1.042 1.04h.569v1.418c-.309.078-.629.11-.948.095-1.706 0-2.369-.662-2.369-2.27v-4.916h-1.233v-1.419h1.233v-1.985h1.706v-.095zm2.654 6.335c0-2.647 1.612-4.35 4.076-4.35 2.464 0 4.076 1.703 4.076 4.35 0 2.647-1.612 4.35-4.076 4.35-2.464 0-4.076-1.703-4.076-4.35zm6.351 0c0-1.891-.853-2.931-2.275-2.931s-2.275 1.04-2.275 2.931.853 2.931 2.275 2.931 2.275-1.134 2.275-2.931zm3.222-4.35h1.707v1.513c.105-.46.375-.868.758-1.146a1.967 1.967 0 011.327-.367c.194-.014.39.018.569.095v1.607a2.367 2.367 0 00-.759-.094 1.783 1.783 0 00-1.801 1.702v5.39h-1.801v-8.7zm12.512 6.053a3.564 3.564 0 01-1.371 1.986 3.58 3.58 0 01-2.325.661c-2.465 0-4.076-1.702-4.076-4.35 0-2.647 1.516-4.443 3.981-4.443 2.464 0 3.886 1.607 3.886 4.255v.567h-6.066v.095a2.292 2.292 0 00.504 1.624c.37.457.902.756 1.486.834h.285a1.9 1.9 0 001.99-1.23h1.706zm-5.971-2.553h4.265a2.105 2.105 0 00-1.99-2.175h-.19a2.125 2.125 0 00-1.944 1.356c-.101.26-.149.54-.141.819z" fill="#858B94"/></svg>