<svg width="176" height="43" fill="none" xmlns="http://www.w3.org/2000/svg"><path d="M69.21 31.378h-1.732l-1.632-5.805a21.369 21.369 0 01-.271-1.098l-.216-.954c0 .288-.118.648-.217 1.107-.1.459-.18.792-.252 1.008l-1.615 5.778h-1.732l-1.262-4.87L59 21.685h1.623l1.398 5.67c.197.796.354 1.601.47 2.413.047-.378.12-.798.216-1.26.096-.462.186-.84.27-1.134l1.588-5.68h1.578l1.624 5.707c.21.779.375 1.569.496 2.367a17.16 17.16 0 01.478-2.421l1.389-5.652h1.614l-2.534 9.684zm3.454-9.315a.899.899 0 01.225-.648.904.904 0 01.658-.226.903.903 0 01.64.226.898.898 0 01.235.648.899.899 0 01-.234.63.903.903 0 01-.64.224.906.906 0 01-.659-.225.899.899 0 01-.225-.63zm1.66 9.315h-1.561v-7.363h1.56v7.363zm8.531-.001h-1.578v-4.5a1.977 1.977 0 00-.343-1.269 1.326 1.326 0 00-1.091-.423 1.734 1.734 0 00-1.452.585 3.225 3.225 0 00-.46 1.962v3.663h-1.57v-7.38h1.209l.216.963h.082c.217-.35.53-.63.901-.81a3.182 3.182 0 011.362-.288c1.768 0 2.652.9 2.652 2.7l.072 4.797zm4.455.126a2.574 2.574 0 01-2.155-.999 4.493 4.493 0 01-.776-2.799 4.49 4.49 0 01.785-2.817 2.587 2.587 0 012.173-1.008 2.548 2.548 0 012.22 1.071h.08a9.335 9.335 0 01-.117-1.251V21h1.578v10.35h-1.235l-.27-.963h-.073a2.505 2.505 0 01-2.21 1.116zm.424-1.26a1.706 1.706 0 001.407-.54 2.857 2.857 0 00.451-1.8v-.216a3.288 3.288 0 00-.45-1.98 1.686 1.686 0 00-1.426-.585 1.446 1.446 0 00-1.271.666 3.423 3.423 0 00-.451 1.908c-.042.65.109 1.298.433 1.863a1.46 1.46 0 001.307.684zm11.942-2.565a4.008 4.008 0 01-.902 2.817 3.32 3.32 0 01-2.58 1.008 3.542 3.542 0 01-1.804-.468 3.08 3.08 0 01-1.217-1.34 4.554 4.554 0 01-.424-2.026 3.99 3.99 0 01.902-2.799 3.338 3.338 0 012.597-1.008 3.254 3.254 0 012.535 1.026c.643.783.962 1.78.893 2.79zm-5.412 0c0 1.698.628 2.547 1.885 2.547 1.257 0 1.88-.849 1.867-2.547 0-1.68-.625-2.52-1.876-2.52a1.61 1.61 0 00-1.434.648 3.315 3.315 0 00-.406 1.872h-.036zm13.07 3.7l-.956-3.438c-.114-.366-.321-1.212-.622-2.538h-.063c-.259 1.2-.463 2.049-.614 2.547l-.983 3.42h-1.749l-2.066-7.362h1.642l.902 3.6c.21.894.36 1.662.451 2.304.042-.324.111-.696.207-1.116.096-.42.174-.72.235-.9l1.118-3.87h1.723l1.091 3.87c.066.216.15.549.252.999.085.343.145.692.181 1.044h.054c.112-.77.269-1.534.469-2.286l.956-3.6h1.578l-2.083 7.362-1.723-.036zm9.84-2.098a1.926 1.926 0 01-.785 1.657 3.777 3.777 0 01-2.255.576 5.332 5.332 0 01-2.363-.45v-1.35a5.83 5.83 0 002.417.603c.968 0 1.449-.3 1.443-.9a.69.69 0 00-.162-.468 1.904 1.904 0 00-.523-.387 9.08 9.08 0 00-1.019-.45 4.714 4.714 0 01-1.723-.99 1.8 1.8 0 01-.451-1.278 1.67 1.67 0 01.767-1.467 3.612 3.612 0 012.074-.522 5.888 5.888 0 012.462.522l-.505 1.179a5.492 5.492 0 00-2.011-.495c-.83 0-1.242.234-1.236.702a.719.719 0 00.325.585c.444.27.915.49 1.407.657.465.164.91.382 1.326.648.255.173.466.404.613.675.146.296.215.624.199.954zm8.928-7.632l-3.607 9.73h-1.479l3.607-9.73h1.479zm8.749 9.729l-2.823-8.1h-.054c.072 1.2.111 2.331.118 3.393v4.734h-1.444v-9.756h2.246l2.706 7.74 2.787-7.74h2.318v9.73h-1.533v-6.706c0-.774.021-1.245.063-1.413h-.054l-2.932 8.1-1.398.018zm12.636.001l-.316-1.026h-.054c-.282.38-.65.688-1.073.9-.441.176-.914.26-1.389.242a2.348 2.348 0 01-1.696-.584 2.176 2.176 0 01-.613-1.657 1.942 1.942 0 01.848-1.719 4.887 4.887 0 012.579-.63h1.272v-.395a1.484 1.484 0 00-.334-1.053 1.336 1.336 0 00-1.019-.351 3.549 3.549 0 00-1.091.162c-.342.11-.677.242-1.001.396l-.505-1.116a5.418 5.418 0 011.316-.477 6.085 6.085 0 011.344-.163 3.199 3.199 0 012.12.613 2.395 2.395 0 01.712 1.925v4.96l-1.1-.027zm-2.336-1.063c.502.025.993-.146 1.371-.477a1.73 1.73 0 00.514-1.332v-.639h-.902a3.241 3.241 0 00-1.614.37 1.127 1.127 0 00-.506 1.008.99.99 0 00.298.765c.234.197.532.302.839.296v.01zm8.415 1.189a3.232 3.232 0 01-2.543-.972 4.07 4.07 0 01-.902-2.8 4.085 4.085 0 01.902-2.852 3.379 3.379 0 012.633-1 4.943 4.943 0 012.102.433l-.478 1.26a4.759 4.759 0 00-1.642-.387c-1.274 0-1.912.846-1.912 2.538-.046.656.121 1.31.478 1.863a1.652 1.652 0 001.398.62 4.013 4.013 0 001.985-.521v1.368a3.09 3.09 0 01-.902.35 5.433 5.433 0 01-1.119.1zm-92.034-20.46a1.419 1.419 0 00-1.164.522c-.305.42-.455.931-.424 1.449a2.246 2.246 0 00.406 1.458 1.445 1.445 0 001.182.495c.218.002.435-.02.649-.063.21-.042.427-.1.65-.171v.738a3.96 3.96 0 01-1.399.234 2.241 2.241 0 01-1.803-.702 2.912 2.912 0 01-.623-1.998c.001-.494.115-.98.334-1.422a2.14 2.14 0 01.902-.9c.39-.236.834-.366 1.29-.378a3.314 3.314 0 011.497.378l-.307.71a4.644 4.644 0 00-.559-.224 2.032 2.032 0 00-.631-.126zm4.698.611h.902l-1.641 1.917 1.803 2.052h-.974l-1.722-2.016v2.016h-.848v-3.969h.848v1.926l1.632-1.926zm4.096 3.969l-.172-.549c-.15.209-.348.378-.577.495a1.807 1.807 0 01-.749.136 1.265 1.265 0 01-.902-.316 1.18 1.18 0 01-.324-.9 1.043 1.043 0 01.46-.9c.422-.24.903-.358 1.389-.341h.685v-.216a.8.8 0 00-.18-.567.72.72 0 00-.55-.19c-.2 0-.397.03-.587.09a4.436 4.436 0 00-.54.207l-.271-.603a2.95 2.95 0 01.712-.26c.24-.058.484-.088.73-.09.41-.03.816.089 1.146.333a1.296 1.296 0 01.388 1.035v2.7l-.658-.064zm-1.263-.575c.27.011.536-.082.74-.261a.901.901 0 00.279-.72v-.342h-.514a1.753 1.753 0 00-.902.197.603.603 0 00-.27.54.529.529 0 00.162.415.679.679 0 00.514.17h-.01zm3.68-3.394v1.45a.548.548 0 00.631.611c.201.002.402-.026.595-.08a3.04 3.04 0 00.623-.27v-1.71h.847v3.968h-.847v-1.683a3.008 3.008 0 01-.677.315c-.23.07-.471.103-.712.1a1.373 1.373 0 01-.974-.325 1.161 1.161 0 01-.352-.9v-1.476h.866zm6.285 3.969l-.171-.549c-.15.209-.348.378-.577.495a1.807 1.807 0 01-.749.136 1.265 1.265 0 01-.902-.316 1.179 1.179 0 01-.334-.9 1.042 1.042 0 01.46-.9 2.63 2.63 0 011.39-.341h.685v-.216a.8.8 0 00-.18-.567.73.73 0 00-.55-.19c-.2 0-.397.03-.587.09a4.434 4.434 0 00-.541.207l-.27-.603c.225-.117.464-.205.712-.26a3.26 3.26 0 01.721-.09c.41-.03.816.089 1.146.333a1.296 1.296 0 01.388 1.035v2.7l-.64-.064zm-1.262-.575c.27.01.535-.083.74-.261a.899.899 0 00.279-.72v-.342h-.514a1.753 1.753 0 00-.902.197.603.603 0 00-.27.54.53.53 0 00.161.415.678.678 0 00.506.17zm3.744-3.393v2.034c0 .234-.018.582-.054 1.044l1.993-3.078h1.028v3.969h-.812v-3.069l-1.93 3.069h-1.028v-3.969h.803zm1.055-.486a1.807 1.807 0 01-1.118-.27 1.188 1.188 0 01-.397-.9h.766c.006.14.04.278.1.405a.442.442 0 00.225.207c.142.049.292.07.442.063.19.014.379-.04.532-.153a.764.764 0 00.226-.513h.784a1.194 1.194 0 01-.433.9c-.336.208-.733.3-1.127.261zm6.023.485v.657h-1.316v3.312h-.848v-3.312h-1.299v-.657h3.463zm2.365 4.041a1.925 1.925 0 01-1.461-.513 2.053 2.053 0 01-.523-1.485 2.247 2.247 0 01.487-1.53 1.677 1.677 0 011.343-.585 1.637 1.637 0 011.245.477 1.8 1.8 0 01.46 1.323v.46h-2.652c-.012.328.1.65.316.9a1.091 1.091 0 00.83.305c.22.003.442-.018.658-.063a3.45 3.45 0 00.65-.225v.684a2.59 2.59 0 01-.623.207 3.825 3.825 0 01-.73.045zm-.154-3.474a.849.849 0 00-.649.252c-.179.21-.28.473-.289.747h1.804a1.097 1.097 0 00-.234-.747.812.812 0 00-.632-.252zm7.828-.567v3.97h-.847V12.32h-1.804v3.303h-.848v-3.969h3.5zm3.121 4.042a1.39 1.39 0 01-1.173-.54h-.054c.036.336.054.54.054.612v1.629h-.847v-5.742h.685c0 .072.039.249.117.53a1.331 1.331 0 011.227-.602 1.38 1.38 0 011.163.54c.302.444.448.976.415 1.512a2.422 2.422 0 01-.424 1.548 1.39 1.39 0 01-1.163.513zm-.208-3.42a.902.902 0 00-.739.297c-.17.268-.252.583-.235.9v.126a1.85 1.85 0 00.226 1.053.897.897 0 00.748.324.77.77 0 00.677-.36 1.84 1.84 0 00.234-1.026 1.794 1.794 0 00-.234-1.008.788.788 0 00-.677-.306zm3.474-.622v2.034c0 .234-.018.582-.054 1.044l1.993-3.078h1.028v3.97h-.812v-3.069l-1.993 3.068h-.965v-3.969h.803zm7.331 3.97h-.848v-3.312h-1.1c-.041.672-.132 1.34-.271 1.998a2.61 2.61 0 01-.442 1.044.898.898 0 01-.712.333 1.19 1.19 0 01-.46-.081v-.657a.749.749 0 00.261.054c.247 0 .439-.273.578-.819.177-.83.286-1.673.324-2.52h2.706l-.036 3.96zm4.627-1.989a2.168 2.168 0 01-.496 1.52 1.812 1.812 0 01-1.389.55 1.904 1.904 0 01-.983-.252 1.657 1.657 0 01-.659-.72 2.44 2.44 0 01-.234-1.09 2.147 2.147 0 01.496-1.502 1.8 1.8 0 011.398-.54 1.75 1.75 0 011.362.558c.348.411.528.938.505 1.476zm-2.895 0c0 .918.339 1.377 1.019 1.377.679 0 1.016-.46 1.01-1.377 0-.906-.337-1.36-1.01-1.36a.902.902 0 00-.767.352 1.793 1.793 0 00-.252 1.008zm5.719-.055v-1.926h.785v1.926l1.533-1.926h.902l-1.561 1.917 1.705 2.052h-.902l-1.632-2.016v2.016h-.785v-2.016l-1.632 2.016h-.902l1.704-2.052-1.56-1.917h.902l1.443 1.926zm5.582 2.115a1.924 1.924 0 01-1.452-.54 2.053 2.053 0 01-.523-1.485 2.247 2.247 0 01.487-1.53 1.681 1.681 0 011.335-.558 1.635 1.635 0 011.245.477 1.803 1.803 0 01.46 1.314v.46h-2.652c-.012.328.1.65.316.9a1.087 1.087 0 00.829.305 3.1 3.1 0 00.659-.063c.223-.053.441-.128.649-.225v.684a2.597 2.597 0 01-.622.207 3.83 3.83 0 01-.731.054zm-.153-3.474a.85.85 0 00-.649.252 1.202 1.202 0 00-.289.747h1.804a1.097 1.097 0 00-.235-.747.806.806 0 00-.631-.252zm3.391-.567v1.593h1.876v-1.593h.848v3.97h-.848v-1.71h-1.876v1.71h-.847v-3.97h.847zm4.627 0v2.034c0 .234-.018.582-.054 1.044l1.993-3.078h1.028v3.97h-.812v-3.069l-1.993 3.068h-1.028v-3.969h.866zm5.799 4.041a1.924 1.924 0 01-1.452-.54 2.053 2.053 0 01-.523-1.485 2.247 2.247 0 01.487-1.53 1.681 1.681 0 011.335-.558 1.635 1.635 0 011.245.477 1.803 1.803 0 01.46 1.314v.46h-2.652c-.012.328.1.65.316.9a1.087 1.087 0 00.829.305c.222.003.442-.018.659-.063.223-.053.441-.128.649-.225v.684a2.597 2.597 0 01-.622.207 3.83 3.83 0 01-.731.054zm-.153-3.474a.85.85 0 00-.649.252 1.202 1.202 0 00-.289.747h1.804a1.097 1.097 0 00-.235-.747.806.806 0 00-.631-.252zm8.171 4.761h-.748v-1.359h-2.706v1.36h-.785v-2.017h.325c.304-.449.532-.944.676-1.466a7.872 7.872 0 00.298-1.854h2.417v3.312h.586l-.063 2.024zm-1.416-2.052v-2.7h-.857a7.39 7.39 0 01-.288 1.459 4.956 4.956 0 01-.532 1.215l1.677.027zm5.313.694h-.848v-3.312h-1.091c-.041.672-.132 1.34-.271 1.998a2.61 2.61 0 01-.442 1.044.898.898 0 01-.712.333 1.19 1.19 0 01-.46-.081v-.657a.749.749 0 00.261.054c.247 0 .439-.273.578-.819.177-.83.286-1.673.324-2.52h2.706l-.045 3.96zm1.497 0h-.902l1.073-1.63a1.19 1.19 0 01-.631-.413 1.157 1.157 0 01-.226-.738 1.061 1.061 0 01.406-.9c.32-.227.708-.338 1.1-.315h1.804v3.969h-.848v-1.53h-.802l-.974 1.557zm.126-2.763a.513.513 0 00.234.459c.188.11.405.164.623.153h.784v-1.18h-.901a.852.852 0 00-.533.145.507.507 0 00-.207.423z" fill="#858B94"/><g clip-path="url(#clip0)" fill="#858B94"><path d="M40.5 8.25h-25a2.502 2.502 0 00-2.5 2.5v17.5c0 1.379 1.121 2.5 2.5 2.5h8.752c-.027 1-.219 2.596-.931 3.346a1.227 1.227 0 01-.946.404.625.625 0 100 1.25h11.25a.625.625 0 100-1.25c-.383 0-.684-.128-.945-.404-.713-.75-.905-2.347-.932-3.346H40.5c1.379 0 2.5-1.121 2.5-2.5v-17.5c0-1.379-1.121-2.5-2.5-2.5zM24.586 34.5c.754-1.157.9-2.823.92-3.75h4.989c.018.927.165 2.593.92 3.75h-6.83zm17.164-6.25c0 .69-.56 1.25-1.25 1.25h-25c-.689 0-1.25-.56-1.25-1.25v-2.5h27.5v2.5zm0-3.75h-27.5V10.75c0-.689.56-1.25 1.25-1.25h25c.689 0 1.25.561 1.25 1.25V24.5z"/><path d="M28 28.875a1.25 1.25 0 100-2.5 1.25 1.25 0 000 2.5z"/></g><defs><clipPath id="clip0"><path fill="#fff" transform="translate(13 7)" d="M0 0h30v30H0z"/></clipPath></defs></svg>