<svg width="34" height="34" fill="none" xmlns="http://www.w3.org/2000/svg"><circle cx="17" cy="17" r="15" fill="#7DFA69"/><circle cx="17" cy="17" r="16.5" stroke="#7DFA69"/><path d="M17.57 26.281h-1.562a.586.586 0 01-.586-.586v-5c0-.323.262-.586.586-.586h1.562c.324 0 .586.263.586.586v5a.586.586 0 01-.586.586z" fill="#FFCD00"/><path d="M17.57 20.11h-.78v6.171h.78a.586.586 0 00.586-.586v-5a.586.586 0 00-.586-.586zm5.078.78h-.345c-.69 0-1.338-.268-1.826-.756a2.063 2.063 0 01-.54-1.95c.152-.603.706-1.218 1.291-1.431l1.764-.641a2.155 2.155 0 001.414-2.02v-1.99a.978.978 0 00-.976-.977h-1.954a.586.586 0 110-1.172h1.954a2.15 2.15 0 012.148 2.149v1.99a3.33 3.33 0 01-2.186 3.121l-1.764.641c-.222.081-.496.386-.554.615a.885.885 0 00.232.837 1.4 1.4 0 00.997.413h.345a.586.586 0 010 1.172z" fill="#FF9F22"/><path d="M11.275 20.89h-.345a.586.586 0 110-1.171h.345a1.4 1.4 0 00.997-.413.885.885 0 00.232-.837c-.058-.23-.332-.534-.555-.615l-1.763-.641A3.33 3.33 0 018 14.093v-1.991a2.15 2.15 0 012.148-2.149h1.954a.586.586 0 010 1.172h-1.954a.978.978 0 00-.976.977v1.99c0 .9.568 1.712 1.414 2.02l1.764.641c.585.212 1.14.828 1.29 1.431a2.063 2.063 0 01-.54 1.95 2.565 2.565 0 01-1.825.757z" fill="#FFCD00"/><path d="M22.063 11.125v-2.54A.586.586 0 0021.477 8h-9.375a.586.586 0 00-.586.586v2.539l.273 1.367-.273 1.367v.516a7.647 7.647 0 003.906 6.671h2.734a7.645 7.645 0 003.907-6.671v-.516l-.586-1.367.585-1.367z" fill="#FFF36C"/><path d="M18.156 21.046a7.645 7.645 0 003.907-6.671v-.516l-.586-1.367.585-1.367v-2.54A.586.586 0 0021.477 8h-4.688v13.046h1.367z" fill="#FFCD00"/><path d="M11.516 11.125h10.546v2.734H11.517v-2.734z" fill="#FFCD00"/><path d="M16.79 11.125h5.273v2.734h-5.274v-2.734z" fill="#FF9F22"/><path d="M20.695 28h-7.812a.586.586 0 01-.586-.586v-.781c0-.196.098-.38.26-.488l1.173-.78a.586.586 0 01.325-.1h5.468c.116 0 .23.035.325.1l1.172.78a.587.587 0 01.261.488v.781a.586.586 0 01-.586.586z" fill="#FFF36C"/><path d="M21.281 27.414v-.781a.586.586 0 00-.26-.488l-1.173-.78a.586.586 0 00-.325-.1H16.79V28h3.906a.586.586 0 00.586-.586z" fill="#FFCD00"/></svg>