<svg width="34" height="34" fill="none" xmlns="http://www.w3.org/2000/svg"><circle cx="17" cy="17" r="16.5" stroke="#92CAFF"/><circle cx="17" cy="17" r="16.5" stroke="#92CAFF"/><circle cx="17" cy="17" r="15" fill="#92CAFF"/><path d="M22.218 17.96V8.4c0-.595-.477-1.08-1.07-1.091-.612-.012-1.113.503-1.113 1.115v9.375c0 .603.489 1.091 1.091 1.091h1.678c.087 0 .12-.114.046-.16-.272-.167-.632-.449-.632-.769z" fill="#CC3A60"/><path d="M19.364 9.84v7.29h-4.355a.993.993 0 01-.992-.993v-.526h-2.65v-4.926h2.65v-.272a1.12 1.12 0 011.121-1.122h4.226v.549z" fill="#F9C295"/><path d="M14.017 15.09v-.527h-2.65v1.049h2.65v.525c0 .549.444.993.992.993h4.355v-1.048h-4.355a.993.993 0 01-.992-.993z" fill="#E59F6A"/><path d="M12.718 10.396v5.505a.4.4 0 01-.401.4h-1.274V9.996h1.274c.222 0 .401.18.401.401z" fill="#EBEEF2"/><path d="M12.317 15.342h-1.274v.96h1.274c.222 0 .401-.18.401-.401v-.96c0 .222-.18.401-.401.401z" fill="#D1D6DE"/><path d="M9.453 16.844h1.59v-7.39H8.307l1.145 7.39z" fill="#656D88"/><path d="M9.303 15.872l.15.972h1.59v-.972h-1.74z" fill="#444966"/><path d="M11.278 18.874c-.165.514-.36.708-.873.872a.093.093 0 000 .178c.514.164.708.359.873.872.027.086.15.086.177 0 .164-.513.359-.708.872-.872a.093.093 0 000-.178c-.513-.164-.708-.358-.872-.872a.093.093 0 00-.177 0z" fill="#F2DF33"/><path d="M24.237 24.138c-.165.513-.36.708-.872.872a.093.093 0 000 .177c.513.165.707.36.872.873.027.086.15.086.177 0 .164-.514.359-.708.872-.872a.093.093 0 000-.178c-.513-.164-.708-.359-.872-.872a.093.093 0 00-.177 0z" fill="#5C9CEE"/><path d="M24.237 13.55c-.165.513-.36.708-.872.872a.093.093 0 000 .178c.513.164.707.358.872.872.027.086.15.086.177 0 .164-.514.359-.708.872-.872a.093.093 0 000-.178c-.513-.164-.708-.359-.872-.872a.093.093 0 00-.177 0z" fill="#EBEEF2"/><path d="M21.127 7.308a1.09 1.09 0 00-1.091 1.091v13.205h-4.063V8.399a1.09 1.09 0 011.09-1.091h4.064z" fill="#5C9CEE"/><path d="M21.126 7.308a1.09 1.09 0 00-1.09 1.091v13.205h-2.032V8.399a1.09 1.09 0 011.091-1.091h2.031z" fill="#ED5575"/><path d="M18.004 27.693a4.335 4.335 0 100-8.67 4.335 4.335 0 000 8.67z" fill="#FCAB29"/><path d="M20.144 19.588a4.335 4.335 0 01-5.154 6.884 4.335 4.335 0 105.154-6.884z" fill="#DD8D19"/><path d="M17.872 25.355l-.956.299a.44.44 0 01-.572-.416l-.01-1.001a.44.44 0 00-.082-.25l-.58-.817a.44.44 0 01.219-.672l.949-.32a.44.44 0 00.213-.154l.597-.804a.44.44 0 01.707 0l.597.804a.44.44 0 00.213.154l.95.32a.44.44 0 01.218.672l-.58.817a.44.44 0 00-.082.25l-.01 1.002a.44.44 0 01-.572.415l-.956-.3a.44.44 0 00-.263 0z" fill="#F2DF33"/><path d="M21.346 16.219a.911.911 0 01-.91.911h-1.93a.911.911 0 010-1.822h1.93a.91.91 0 01.91.91z" fill="#F4B07D"/><path d="M21.346 14.396a.911.911 0 01-.91.91h-1.93a.911.911 0 010-1.822h1.93a.91.91 0 01.91.912z" fill="#FCD0AE"/><path d="M21.346 12.574a.911.911 0 01-.91.912h-1.93a.911.911 0 010-1.823h1.93a.91.91 0 01.91.911z" fill="#EF9E67"/><path d="M21.346 10.751a.911.911 0 01-.91.911h-1.93a.911.911 0 010-1.822h1.93a.91.91 0 01.91.911z" fill="#FCD0AE"/><path d="M18.904 9.291h.48c.407 0 .737.33.737.738v3.116a.34.34 0 01-.34.34h-.441a1.08 1.08 0 01-1.08-1.08v-1.207h-.878a.338.338 0 00-.338.338v.181a1.59 1.59 0 01-1.59 1.591h-.262c-.461 0-1.175-.522-1.175-1.59v-1.305a1.12 1.12 0 011.121-1.122h3.766z" fill="#F9C295"/><path d="M21.156 18.89c0 .17.138.307.308.307h1.34a.39.39 0 00.38-.287.39.39 0 00-.172-.443c-.359-.22-.486-.41-.486-.507V8.4c0-.757-.615-1.385-1.37-1.4h-4.093a1.4 1.4 0 00-1.399 1.399v.585h-.527a1.436 1.436 0 00-1.373 1.033 1.426 1.426 0 00-.056.361h-.684a.71.71 0 00-.709-.69h-.966v-.234a.308.308 0 00-.308-.308H8.308a.308.308 0 100 .615h2.427v6.775H9.453a.308.308 0 100 .615h1.59c.17 0 .307-.138.307-.308v-.233h.966a.71.71 0 00.708-.69h.685v.217c0 .717.583 1.3 1.3 1.3h.656v1.912a4.645 4.645 0 00-2.303 4.009A4.647 4.647 0 0018.004 28a4.612 4.612 0 003.285-1.362.307.307 0 10-.435-.435 4.001 4.001 0 01-2.85 1.182 4.032 4.032 0 01-4.027-4.027 4.032 4.032 0 014.027-4.027 4.032 4.032 0 013.538 5.952.308.308 0 00.54.294 4.645 4.645 0 00-1.739-6.228v-1.911h.092a1.22 1.22 0 00.808-2.13 1.216 1.216 0 000-1.823 1.216 1.216 0 000-1.822 1.22 1.22 0 00-.808-2.13h-.091V8.42a.82.82 0 01.246-.582.773.773 0 01.474-.22l.018-.001a.788.788 0 01.829.782v9.56c0 .215.09.422.268.622h-.715a.308.308 0 00-.308.307zM17.064 7.614h.873a1.402 1.402 0 00-.24.784.308.308 0 10.615 0 .782.782 0 01.783-.784h.872a1.392 1.392 0 00-.131.248l-.015.038a1.344 1.344 0 00-.056.178l-.003.014a1.338 1.338 0 00-.015.082l-.003.017a1.344 1.344 0 00-.016.207v.644a1.04 1.04 0 00-.344-.059H16.28v-.585c0-.432.35-.784.783-.784zM12.41 15.9a.094.094 0 01-.094.094h-.966v-5.692h.966c.052 0 .094.042.094.093V15.9zm2.599.921a.686.686 0 01-.685-.684v-.526a.308.308 0 00-.308-.308h-.99v-4.31h.99c.17 0 .308-.138.308-.308v-.273a.814.814 0 01.814-.814h4.246a.43.43 0 01.43.43v3.117a.033.033 0 01-.032.032h-.446a.773.773 0 01-.768-.772v-1.207a.308.308 0 00-.308-.308h-.878a.646.646 0 00-.645.646v.181c0 .708-.576 1.284-1.284 1.284a.308.308 0 100 .615c.072 0 .143-.004.212-.012v3.219h-.656zm2.943-4.486v.07c0 .216.05.422.14.605a.601.601 0 01-.14-.675zm1.776 6.712a4.61 4.61 0 00-1.416-.322v-.529a.308.308 0 10-.615 0v.529a4.608 4.608 0 00-1.416.322v-5.622a1.9 1.9 0 001.071-1.709v-.181a.03.03 0 01.03-.03h.168c.045.056.095.11.149.157a1.216 1.216 0 000 1.822 1.216 1.216 0 000 1.823 1.214 1.214 0 00-.411.91 1.22 1.22 0 001.219 1.22h1.221v1.61zm1.31-2.83c0 .334-.27.605-.603.605h-1.929a.604.604 0 010-1.208h1.929c.333 0 .603.271.603.604zM18.507 15a.604.604 0 010-1.207h1.928a.604.604 0 010 1.207h-1.928zm2.531-2.426c0 .333-.27.603-.603.603h-.008l.002-.032V11.97h.006c.333 0 .603.271.603.604zm0-1.823c0 .333-.27.604-.603.604h-.006v-1.207h.006c.333 0 .603.27.603.603z" fill="#000"/><path d="M12.422 19.453c-.42-.134-.539-.253-.673-.673a.4.4 0 00-.382-.278.4.4 0 00-.381.278c-.135.42-.254.54-.673.673a.4.4 0 000 .764c.419.134.538.254.673.673a.4.4 0 00.763 0c.134-.42.254-.539.673-.673a.4.4 0 000-.764zm-.85-.485zm-.205 1.269a1.198 1.198 0 00-.401-.402c.168-.104.297-.233.401-.402.105.17.233.298.402.402a1.198 1.198 0 00-.402.402zm14.013 4.48c-.42-.134-.539-.254-.673-.673a.4.4 0 00-.763 0c-.135.42-.254.539-.673.673a.4.4 0 000 .763c.419.135.538.254.673.673a.4.4 0 00.763 0c.134-.419.254-.538.673-.673a.4.4 0 000-.763zm-1.055.784a1.198 1.198 0 00-.401-.402c.168-.105.297-.233.401-.402.105.169.233.297.402.402a1.197 1.197 0 00-.402.401zM23.27 14.893c.42.134.54.253.674.672a.4.4 0 00.763 0c.134-.419.254-.538.673-.672a.4.4 0 000-.763c-.42-.135-.539-.254-.673-.674a.4.4 0 00-.763 0c-.135.42-.254.539-.673.673a.4.4 0 000 .764zm1.055-.784c.105.169.233.297.402.402a1.197 1.197 0 00-.402.402 1.197 1.197 0 00-.401-.402c.168-.104.297-.233.401-.402zM15.99 22.79l.741-.25a.308.308 0 10-.196-.583l-.741.25a.742.742 0 00-.473.477.741.741 0 00.102.664l.58.817a.132.132 0 01.024.075l.011 1.002a.741.741 0 00.308.597.742.742 0 00.663.108l.956-.299a.132.132 0 01.08 0l.956.3c.228.07.47.031.663-.11a.74.74 0 00.308-.596l.01-1.002c0-.027.01-.053.025-.075l.58-.817a.741.741 0 00.102-.664.742.742 0 00-.473-.478l-.95-.32a.132.132 0 01-.063-.046l-.598-.804a.741.741 0 00-.6-.302.741.741 0 00-.6.302l-.148.2a.308.308 0 10.494.366l.148-.199a.13.13 0 01.106-.053.13.13 0 01.107.053l.597.804a.744.744 0 00.361.263l.95.32a.13.13 0 01.084.084.13.13 0 01-.018.118l-.58.817a.744.744 0 00-.139.424l-.01 1.002a.13.13 0 01-.055.106.13.13 0 01-.117.02l-.956-.3a.745.745 0 00-.447 0l-.956.3a.13.13 0 01-.118-.02.13.13 0 01-.054-.106l-.011-1.002a.744.744 0 00-.138-.424l-.58-.817a.13.13 0 01-.018-.118.13.13 0 01.083-.084z" fill="#000"/></svg>