<svg width="34" height="34" fill="none" xmlns="http://www.w3.org/2000/svg"><circle cx="17" cy="17" r="16.5" stroke="#92CAFF"/><circle cx="17" cy="17" r="16.5" stroke="#79FDF5"/><circle cx="17" cy="17" r="15" fill="#79FDF5"/><path d="M17 28c-6.066 0-11-4.934-11-11S10.934 6 17 6s11 4.934 11 11-4.934 11-11 11z" fill="#FE0050"/><path d="M17 6v22c6.066 0 11-4.934 11-11S23.066 6 17 6z" fill="#E10555"/><path d="M17 24.348c-4.052 0-7.348-3.296-7.348-7.348S12.948 9.652 17 9.652s7.348 3.296 7.348 7.348-3.296 7.348-7.348 7.348z" fill="#D9E7F3"/><path d="M17 9.652v14.696c4.052 0 7.348-3.296 7.348-7.348S21.052 9.652 17 9.652z" fill="#C8D4DF"/><path d="M17 20.48A3.484 3.484 0 0113.52 17c0-1.92 1.56-3.48 3.48-3.48s3.48 1.56 3.48 3.48-1.56 3.48-3.48 3.48z" fill="#FE0050"/><path d="M17 13.52v6.96c1.92 0 3.48-1.56 3.48-3.48s-1.56-3.48-3.48-3.48z" fill="#E10555"/><path d="M17 17.644a.644.644 0 01-.456-1.1l4.74-4.74a.644.644 0 11.912.912l-4.74 4.74a.642.642 0 01-.456.188z" fill="#2D2D55"/><path d="M22.195 11.805l-5.651 5.65a.642.642 0 00.911 0l4.74-4.739a.644.644 0 000-.911z" fill="#0A0A48"/><path d="M24.261 13.117c-.018 0-.036 0-.054-.002l-2.522-.212a.645.645 0 01-.588-.589l-.213-2.521a.645.645 0 01.187-.51l2.734-2.735a.644.644 0 011.098.402l.167 1.98 1.98.166a.645.645 0 01.401 1.098l-2.734 2.735a.645.645 0 01-.456.188z" fill="#FFC300"/><path d="M27.05 9.096l-1.979-.167-3.787 3.787a.643.643 0 00.402.186l2.522.213a.645.645 0 00.51-.187l2.734-2.734a.645.645 0 00-.402-1.098z" fill="#FAB400"/></svg>