<svg width="170" height="136" fill="none" xmlns="http://www.w3.org/2000/svg"><rect x="48" y="43" width="76" height="83" rx="38" fill="silver"/><rect width="170" height="83" rx="5" fill="#fff"/><path d="M67 126c14.06 2.662 21.94 2.629 36 0v3.125S99.914 136 85 136s-18-6.875-18-6.875V126z" fill="#fff"/><ellipse cx="85" cy="100.5" rx="24" ry="23.5" fill="#563A1F"/><rect x="111" y="64" width="14" height="46" rx="7" fill="#FFE4CC"/><path d="M111 92h14v11a7 7 0 11-14 0V92z" fill="#80E76F"/><path fill="#C4C4C4" d="M71 13h28v24H71z"/><path d="M78 22l-2 15h18l-2-15H78z" fill="#fff"/><path fill="#656565" d="M37 20h96v2H37z"/><rect x="114.526" y="47.908" width="9.11" height="15.617" rx="4.555" transform="rotate(-15 114.526 47.908)" fill="#656565"/><rect x="114.526" y="47.908" width="9.11" height="9.11" rx="4.555" transform="rotate(-15 114.526 47.908)" fill="gray"/><rect x="119.14" y="50.04" width="1.301" height="2.603" rx=".651" transform="rotate(-15 119.14 50.04)" fill="#C4C4C4"/><path d="M78.163 20L71 13h28l-7.163 7H78.163z" fill="#979797"/><path fill="#656565" d="M37.091 47.502h63.77v20.823h-63.77z"/><path fill="#C4C4C4" d="M38.392 48.804h3.904v3.254h-3.904zm5.206 0h3.904v3.254h-3.904zm5.206 0h3.904v3.254h-3.904zm-10.412 3.904h3.904v3.254h-3.904zm5.206 0h3.904v3.254h-3.904zm5.206 0h3.904v3.254h-3.904zm-10.412 3.904h3.904v3.254h-3.904zm5.206 0h3.904v3.254h-3.904zm5.206 0h3.904v3.254h-3.904zm5.206-7.808h3.904v3.254H54.01zm5.205 0h3.904v3.254h-3.904zm5.206 0h3.904v3.254h-3.904zM54.01 52.708h3.904v3.254H54.01zm5.205 0h3.904v3.254h-3.904zm5.206 0h3.904v3.254h-3.904zM54.01 56.612h3.904v3.254H54.01zm5.205 0h3.904v3.254h-3.904zm5.206 0h3.904v3.254h-3.904zm5.206-7.808h3.904v3.254h-3.904zm5.205 0h3.904v3.254h-3.904zm5.206 0h3.904v3.254h-3.904zm-10.411 3.904h3.904v3.254h-3.904zm5.205 0h3.904v3.254h-3.904zm5.206 0h3.904v3.254h-3.904zm-10.411 3.904h3.904v3.254h-3.904zm5.205 0h3.904v3.254h-3.904zm5.206 0h3.904v3.254h-3.904zm5.206-7.808h3.904v3.254h-3.904zm5.206 0h3.904v3.254H90.45zm5.205 0h3.904v3.254h-3.904zm-10.411 3.904h3.904v3.254h-3.904zm5.206 0h3.904v3.254H90.45zm5.205 0h3.904v3.254h-3.904zm-10.411 3.904h3.904v3.904h-3.904zm5.206 0h3.904v3.254H90.45zm5.205 0h3.904v3.254h-3.904zm-57.263 3.905h3.904v3.254h-3.904zm5.206 0h3.904v3.254h-3.904zm5.206 0h3.904v3.254h-3.904zm5.206 0h3.904v3.254H54.01zm5.205 0h3.904v3.254h-3.904zm5.206 0h3.904v3.254h-3.904zm5.206 0h3.904v3.254h-3.904zm5.205 0h3.904v3.254h-3.904zm5.206 0h5.206v3.254h-5.206zm5.206 0h3.904v3.254h-3.904zm5.206 0h3.904v3.254H90.45zm5.205 0h3.904v3.254h-3.904zm-57.263 3.904h3.904v3.254h-3.904zm5.206 0h3.904v3.254h-3.904zm5.206 0h3.904v3.254h-3.904zm5.206 0h19.521v3.254H54.01zm20.822 0h3.904v3.254h-3.904zm5.206 0h3.904v3.254h-3.904zm5.206 0h3.904v3.254h-3.904zm5.206 0h3.904v3.254H90.45zm5.205 0h3.904v3.254h-3.904z"/><rect x="45" y="64" width="14" height="46" rx="7" fill="#FFE4CC"/><path d="M45 92h14v11a7 7 0 11-14 0V92z" fill="#80E76F"/></svg>